EncodeSansSemiCondensed-ExtraLight.ufo
<glyph name="exclam" format="2">
  <advance width="435.06060606060606"/>
  <unicode hex="0021"/>
  <outline>
    <contour>
      <point x="187.65151515151516" y="329.09090909090907" type="line"/>
      <point x="247.6818181818182" y="329.09090909090907" type="line"/>
      <point x="264.5" y="896.4242424242424" type="line"/>
      <point x="264.5" y="1480.0" type="line"/>
      <point x="170.56060606060606" y="1480.0" type="line"/>
      <point x="170.56060606060606" y="896.4242424242424" type="line"/>
    </contour>
    <contour>
      <point x="217.53030303030303" y="-10.606060606060606" type="curve" smooth="yes"/>
      <point x="260.6515151515151" y="-10.606060606060606"/>
      <point x="291.3484848484849" y="17.727272727272727"/>
      <point x="291.3484848484849" y="61.93939393939394" type="curve" smooth="yes"/>
      <point x="291.3484848484849" y="106.15151515151516"/>
      <point x="260.8939393939394" y="136.36363636363637"/>
      <point x="217.53030303030303" y="136.36363636363637" type="curve" smooth="yes"/>
      <point x="174.16666666666666" y="136.36363636363637"/>
      <point x="143.71212121212122" y="106.39393939393939"/>
      <point x="143.71212121212122" y="61.93939393939394" type="curve" smooth="yes"/>
      <point x="143.71212121212122" y="17.484848484848484"/>
      <point x="174.4090909090909" y="-10.606060606060606"/>
    </contour>
  </outline>
</glyph>
<glyph name="quotedbl" format="2">
  <advance width="649.7575757575758"/>
  <unicode hex="0022"/>
  <outline>
    <contour>
      <point x="159.65151515151516" y="946.8484848484849" type="line"/>
      <point x="212.37878787878788" y="946.8484848484849" type="line"/>
      <point x="235.74242424242425" y="1616.0" type="line"/>
      <point x="136.28787878787878" y="1616.0" type="line"/>
    </contour>
    <contour>
      <point x="437.3787878787879" y="946.8484848484849" type="line"/>
      <point x="490.1060606060606" y="946.8484848484849" type="line"/>
      <point x="513.469696969697" y="1616.0" type="line"/>
      <point x="414.0151515151515" y="1616.0" type="line"/>
    </contour>
  </outline>
</glyph>
<glyph name="numbersign" format="2">
  <advance width="1062.7272727272727"/>
  <unicode hex="0023"/>
  <outline>
    <contour>
      <point x="591.3181818181819" y="0.0" type="line"/>
      <point x="671.7727272727273" y="0.0" type="line"/>
      <point x="810.7727272727273" y="1480.0" type="line"/>
      <point x="730.3181818181819" y="1480.0" type="line"/>
    </contour>
    <contour>
      <point x="95.0" y="486.1818181818182" type="line"/>
      <point x="967.7272727272727" y="486.1818181818182" type="line"/>
      <point x="967.7272727272727" y="566.4242424242424" type="line"/>
      <point x="95.0" y="566.4242424242424" type="line"/>
    </contour>
    <contour>
      <point x="251.95454545454547" y="0.0" type="line"/>
      <point x="332.40909090909093" y="0.0" type="line"/>
      <point x="471.40909090909093" y="1480.0" type="line"/>
      <point x="390.95454545454544" y="1480.0" type="line"/>
    </contour>
    <contour>
      <point x="95.0" y="913.5757575757576" type="line"/>
      <point x="967.7272727272727" y="913.5757575757576" type="line"/>
      <point x="967.7272727272727" y="993.8181818181819" type="line"/>
      <point x="95.0" y="993.8181818181819" type="line"/>
    </contour>
  </outline>
</glyph>
<glyph name="dollar" format="2">
  <advance width="949.7575757575758"/>
  <unicode hex="0024"/>
  <outline>
    <contour>
      <point x="405.6666666666667" y="-18.12121212121212" type="curve" smooth="yes"/>
      <point x="706.7878787878788" y="-18.12121212121212"/>
      <point x="876.0151515151515" y="125.13636363636364"/>
      <point x="876.0151515151515" y="382.8787878787879" type="curve" smooth="yes"/>
      <point x="876.0151515151515" y="591.3484848484849"/>
      <point x="758.5909090909091" y="711.6969696969697"/>
      <point x="517.560606060606" y="782.7575757575758" type="curve" smooth="yes"/>
      <point x="456.3787878787879" y="800.969696969697" type="line" smooth="yes"/>
      <point x="246.71212121212122" y="864.560606060606"/>
      <point x="166.34848484848484" y="946.0151515151515"/>
      <point x="166.34848484848484" y="1115.7272727272727" type="curve" smooth="yes"/>
      <point x="166.34848484848484" y="1307.7727272727273"/>
      <point x="286.54545454545456" y="1415.7272727272727"/>
      <point x="537.439393939394" y="1415.7272727272727" type="curve" smooth="yes"/>
      <point x="631.3787878787879" y="1415.7272727272727"/>
      <point x="723.5151515151515" y="1403.6060606060605"/>
      <point x="818.3787878787879" y="1373.621212121212" type="curve"/>
      <point x="818.3787878787879" y="1457.8939393939395" type="line"/>
      <point x="738.2727272727273" y="1484.530303030303"/>
      <point x="631.0454545454545" y="1498.121212121212"/>
      <point x="539.1060606060606" y="1498.121212121212" type="curve" smooth="yes"/>
      <point x="233.0151515151515" y="1498.121212121212"/>
      <point x="73.74242424242425" y="1351.030303030303"/>
      <point x="73.74242424242425" y="1110.3636363636363" type="curve" smooth="yes"/>
      <point x="73.74242424242425" y="904.4848484848485"/>
      <point x="190.4090909090909" y="785.2727272727273"/>
      <point x="417.0" y="717.4848484848485" type="curve" smooth="yes"/>
      <point x="478.1818181818182" y="699.2727272727273" type="line" smooth="yes"/>
      <point x="695.6666666666666" y="633.469696969697"/>
      <point x="783.4090909090909" y="553.6818181818181"/>
      <point x="783.4090909090909" y="377.59090909090907" type="curve" smooth="yes"/>
      <point x="783.4090909090909" y="170.3030303030303"/>
      <point x="656.7878787878788" y="64.27272727272728"/>
      <point x="409.75757575757575" y="64.27272727272728" type="curve" smooth="yes"/>
      <point x="311.92424242424244" y="64.27272727272728"/>
      <point x="204.77272727272728" y="81.25757575757575"/>
      <point x="90.56060606060606" y="120.01515151515152" type="curve"/>
      <point x="90.56060606060606" y="35.74242424242424" type="line"/>
      <point x="193.9090909090909" y="-0.8484848484848486"/>
      <point x="309.95454545454544" y="-18.12121212121212"/>
    </contour>
    <contour>
      <point x="434.27272727272725" y="-240.0" type="line"/>
      <point x="517.4242424242424" y="-240.0" type="line"/>
      <point x="517.4242424242424" y="19.545454545454547" type="line"/>
      <point x="434.27272727272725" y="5.454545454545454" type="line"/>
    </contour>
    <contour>
      <point x="434.27272727272725" y="1476.3636363636363" type="line"/>
      <point x="517.4242424242424" y="1476.3636363636363" type="line"/>
      <point x="517.4242424242424" y="1720.0" type="line"/>
      <point x="434.27272727272725" y="1720.0" type="line"/>
    </contour>
  </outline>
</glyph>
<glyph name="ampersand" format="2">
  <advance width="1355.969696969697"/>
  <unicode hex="0026"/>
  <outline>
    <contour>
      <point x="1303.0151515151515" y="-20.0" type="line"/>
      <point x="1355.969696969697" y="46.54545454545455" type="line"/>
      <point x="646.5151515151515" y="660.560606060606" type="line" smooth="yes"/>
      <point x="438.57575757575756" y="841.7121212121212"/>
      <point x="386.5" y="944.1818181818181"/>
      <point x="386.5" y="1092.8030303030303" type="curve" smooth="yes"/>
      <point x="386.5" y="1303.8030303030303"/>
      <point x="502.6363636363636" y="1415.7272727272727"/>
      <point x="755.3484848484849" y="1415.7272727272727" type="curve" smooth="yes"/>
      <point x="825.5" y="1415.7272727272727"/>
      <point x="891.0151515151515" y="1408.9848484848485"/>
      <point x="965.8787878787879" y="1388.5" type="curve"/>
      <point x="965.8787878787879" y="1472.7727272727273" type="line"/>
      <point x="902.9090909090909" y="1488.621212121212"/>
      <point x="831.5909090909091" y="1498.121212121212"/>
      <point x="756.4242424242424" y="1498.121212121212" type="curve" smooth="yes"/>
      <point x="448.3787878787879" y="1498.121212121212"/>
      <point x="293.8939393939394" y="1352.7575757575758"/>
      <point x="293.8939393939394" y="1091.6363636363637" type="curve" smooth="yes"/>
      <point x="293.8939393939394" y="917.0"/>
      <point x="365.0" y="792.5909090909091"/>
      <point x="593.560606060606" y="594.0151515151515" type="curve" smooth="yes"/>
    </contour>
    <contour>
      <point x="626.7424242424242" y="-18.0" type="curve" smooth="yes"/>
      <point x="941.8939393939394" y="-18.0"/>
      <point x="1134.1818181818182" y="155.16666666666666"/>
      <point x="1134.1818181818182" y="494.56060606060606" type="curve" smooth="yes"/>
      <point x="1134.1818181818182" y="581.1212121212121"/>
      <point x="1122.7424242424242" y="679.4545454545455"/>
      <point x="1096.7272727272727" y="768.8484848484849" type="curve"/>
      <point x="1011.2727272727273" y="768.8484848484849" type="line"/>
      <point x="1038.6969696969697" y="679.4545454545455"/>
      <point x="1052.5151515151515" y="580.060606060606"/>
      <point x="1052.5151515151515" y="493.3787878787879" type="curve" smooth="yes"/>
      <point x="1052.5151515151515" y="190.86363636363637"/>
      <point x="893.1363636363636" y="61.75757575757576"/>
      <point x="631.560606060606" y="61.75757575757576" type="curve" smooth="yes"/>
      <point x="368.75757575757575" y="61.75757575757576"/>
      <point x="236.25757575757575" y="200.43939393939394"/>
      <point x="236.25757575757575" y="411.72727272727275" type="curve" smooth="yes"/>
      <point x="236.25757575757575" y="566.2878787878788"/>
      <point x="307.1818181818182" y="682.2878787878788"/>
      <point x="449.030303030303" y="754.5909090909091" type="curve"/>
      <point x="402.45454545454544" y="817.0" type="line"/>
      <point x="236.5151515151515" y="733.8939393939394"/>
      <point x="143.83333333333334" y="589.7878787878788"/>
      <point x="143.83333333333334" y="403.1818181818182" type="curve" smooth="yes"/>
      <point x="143.83333333333334" y="150.8181818181818"/>
      <point x="316.59090909090907" y="-18.0"/>
    </contour>
  </outline>
</glyph>
<glyph name="quotesingle" format="2">
  <advance width="372.030303030303"/>
  <unicode hex="0027"/>
  <outline>
    <contour>
      <point x="159.65151515151516" y="946.8484848484849" type="line"/>
      <point x="212.37878787878788" y="946.8484848484849" type="line"/>
      <point x="235.74242424242425" y="1616.0" type="line"/>
      <point x="136.28787878787878" y="1616.0" type="line"/>
    </contour>
  </outline>
</glyph>
<glyph name="parenleft" format="2">
  <advance width="593.7575757575758"/>
  <unicode hex="0028"/>
  <outline>
    <contour>
      <point x="444.77272727272725" y="-440.0" type="curve"/>
      <point x="539.7575757575758" y="-440.0" type="line"/>
      <point x="315.8787878787879" y="-129.87878787878788"/>
      <point x="218.1818181818182" y="216.3939393939394"/>
      <point x="218.1818181818182" y="588.0" type="curve" smooth="yes"/>
      <point x="218.1818181818182" y="959.6060606060606"/>
      <point x="315.8787878787879" y="1305.878787878788"/>
      <point x="539.7575757575758" y="1616.0" type="curve"/>
      <point x="444.77272727272725" y="1616.0" type="line"/>
      <point x="222.6969696969697" y="1313.7878787878788"/>
      <point x="125.18181818181819" y="965.6666666666666"/>
      <point x="125.18181818181819" y="588.0" type="curve" smooth="yes"/>
      <point x="125.18181818181819" y="210.33333333333334"/>
      <point x="222.6969696969697" y="-137.78787878787878"/>
    </contour>
  </outline>
</glyph>
<glyph name="parenright" format="2">
  <advance width="593.7575757575758"/>
  <unicode hex="0029"/>
  <outline>
    <contour>
      <point x="54.0" y="-440.0" type="curve"/>
      <point x="148.9848484848485" y="-440.0" type="line"/>
      <point x="371.06060606060606" y="-137.78787878787878"/>
      <point x="468.57575757575756" y="210.33333333333334"/>
      <point x="468.57575757575756" y="588.0" type="curve" smooth="yes"/>
      <point x="468.57575757575756" y="965.6666666666666"/>
      <point x="371.06060606060606" y="1313.7878787878788"/>
      <point x="148.9848484848485" y="1616.0" type="curve"/>
      <point x="54.0" y="1616.0" type="line"/>
      <point x="277.8787878787879" y="1305.878787878788"/>
      <point x="375.57575757575756" y="959.6060606060606"/>
      <point x="375.57575757575756" y="588.0" type="curve" smooth="yes"/>
      <point x="375.57575757575756" y="216.3939393939394"/>
      <point x="277.8787878787879" y="-129.87878787878788"/>
    </contour>
  </outline>
</glyph>
<glyph name="asterisk" format="2">
  <advance width="859.5151515151515"/>
  <unicode hex="002A"/>
  <outline>
    <contour>
      <point x="463.2121212121212" y="1204.909090909091" type="line"/>
      <point x="660.8181818181819" y="1251.030303030303" type="line"/>
      <point x="829.5151515151515" y="1305.6060606060605" type="line"/>
      <point x="805.6666666666666" y="1377.5151515151515" type="line"/>
      <point x="638.8484848484849" y="1322.8484848484848" type="line"/>
      <point x="450.2121212121212" y="1243.3939393939395" type="line"/>
      <point x="467.969696969697" y="1446.6363636363637" type="line"/>
      <point x="467.969696969697" y="1616.0" type="line"/>
      <point x="391.54545454545456" y="1616.0" type="line"/>
      <point x="391.54545454545456" y="1446.6363636363637" type="line"/>
      <point x="409.3030303030303" y="1243.3939393939395" type="line"/>
      <point x="220.66666666666666" y="1322.8484848484848" type="line"/>
      <point x="53.84848484848485" y="1377.5151515151515" type="line"/>
      <point x="30.0" y="1305.6060606060605" type="line"/>
      <point x="198.6969696969697" y="1251.030303030303" type="line"/>
      <point x="396.3030303030303" y="1204.909090909091" type="line"/>
      <point x="263.3939393939394" y="1050.7272727272727" type="line"/>
      <point x="161.0151515151515" y="911.5909090909091" type="line"/>
      <point x="223.07575757575756" y="866.2878787878788" type="line"/>
      <point x="325.45454545454544" y="1005.3939393939394" type="line"/>
      <point x="429.75757575757575" y="1180.2424242424242" type="line"/>
      <point x="534.060606060606" y="1005.3939393939394" type="line"/>
      <point x="636.439393939394" y="866.2878787878788" type="line"/>
      <point x="698.5" y="911.5909090909091" type="line"/>
      <point x="596.1212121212121" y="1050.7272727272727" type="line"/>
    </contour>
  </outline>
</glyph>
<glyph name="plus" format="2">
  <advance width="1041.2424242424242"/>
  <unicode hex="002B"/>
  <outline>
    <contour>
      <point x="478.8939393939394" y="373.6363636363636" type="line"/>
      <point x="562.3484848484849" y="373.6363636363636" type="line"/>
      <point x="562.3484848484849" y="720.5454545454545" type="line"/>
      <point x="889.8939393939394" y="720.5454545454545" type="line"/>
      <point x="889.8939393939394" y="799.4545454545455" type="line"/>
      <point x="562.3484848484849" y="799.4545454545455" type="line"/>
      <point x="562.3484848484849" y="1146.3636363636363" type="line"/>
      <point x="478.8939393939394" y="1146.3636363636363" type="line"/>
      <point x="478.8939393939394" y="799.4545454545455" type="line"/>
      <point x="151.34848484848484" y="799.4545454545455" type="line"/>
      <point x="151.34848484848484" y="720.5454545454545" type="line"/>
      <point x="478.8939393939394" y="720.5454545454545" type="line"/>
    </contour>
  </outline>
</glyph>
<glyph name="hyphen" format="2">
  <advance width="744.3939393939394"/>
  <unicode hex="002D"/>
  <outline>
    <contour>
      <point x="151.34848484848484" y="520.6363636363636" type="line"/>
      <point x="593.0454545454545" y="520.6363636363636" type="line"/>
      <point x="593.0454545454545" y="600.5757575757576" type="line"/>
      <point x="151.34848484848484" y="600.5757575757576" type="line"/>
    </contour>
  </outline>
</glyph>
<glyph name="period" format="2">
  <advance width="395.06060606060606"/>
  <unicode hex="002E"/>
  <outline>
    <contour>
      <point x="197.53030303030303" y="-10.606060606060606" type="curve" smooth="yes"/>
      <point x="240.65151515151516" y="-10.606060606060606"/>
      <point x="271.3484848484849" y="17.848484848484848"/>
      <point x="271.3484848484849" y="62.515151515151516" type="curve" smooth="yes"/>
      <point x="271.3484848484849" y="107.18181818181819"/>
      <point x="240.8939393939394" y="137.5151515151515"/>
      <point x="197.53030303030303" y="137.5151515151515" type="curve" smooth="yes"/>
      <point x="154.16666666666666" y="137.5151515151515"/>
      <point x="123.71212121212122" y="107.42424242424242"/>
      <point x="123.71212121212122" y="62.515151515151516" type="curve" smooth="yes"/>
      <point x="123.71212121212122" y="17.606060606060606"/>
      <point x="154.4090909090909" y="-10.606060606060606"/>
    </contour>
  </outline>
</glyph>
<glyph name="slash" format="2">
  <advance width="489.1969696969697"/>
  <unicode hex="002F"/>
  <outline>
    <contour>
      <point x="0.0" y="-240.0" type="line"/>
      <point x="89.16666666666667" y="-240.0" type="line"/>
      <point x="489.1969696969697" y="1616.0" type="line"/>
      <point x="400.030303030303" y="1616.0" type="line"/>
    </contour>
  </outline>
</glyph>
<glyph name="zero" format="2">
  <advance width="1128.6060606060605"/>
  <unicode hex="0030"/>
  <note>
600
</note>
  <outline>
    <contour>
      <point x="564.2878787878788" y="-18.12121212121212" type="curve" smooth="yes"/>
      <point x="838.060606060606" y="-18.12121212121212"/>
      <point x="1013.4242424242424" y="178.4848484848485"/>
      <point x="1013.4242424242424" y="740.0" type="curve" smooth="yes"/>
      <point x="1013.4242424242424" y="1301.5151515151515"/>
      <point x="840.8787878787879" y="1498.121212121212"/>
      <point x="564.2878787878788" y="1498.121212121212" type="curve" smooth="yes"/>
      <point x="287.6969696969697" y="1498.121212121212"/>
      <point x="115.18181818181819" y="1301.5151515151515"/>
      <point x="115.18181818181819" y="740.0" type="curve" smooth="yes"/>
      <point x="115.18181818181819" y="178.4848484848485"/>
      <point x="290.5151515151515" y="-18.12121212121212"/>
    </contour>
    <contour>
      <point x="564.3181818181819" y="64.33333333333333" type="curve" smooth="yes"/>
      <point x="348.43939393939394" y="64.33333333333333"/>
      <point x="207.36363636363637" y="218.78787878787878"/>
      <point x="207.36363636363637" y="743.7575757575758" type="curve" smooth="yes"/>
      <point x="207.36363636363637" y="1261.2121212121212"/>
      <point x="348.5" y="1415.6666666666667"/>
      <point x="564.3181818181819" y="1415.6666666666667" type="curve" smooth="yes"/>
      <point x="780.1060606060606" y="1415.6666666666667"/>
      <point x="921.2424242424242" y="1261.2121212121212"/>
      <point x="921.2424242424242" y="736.2424242424242" type="curve" smooth="yes"/>
      <point x="921.2424242424242" y="218.78787878787878"/>
      <point x="780.1060606060606" y="64.33333333333333"/>
    </contour>
  </outline>
</glyph>
<glyph name="one" format="2">
  <advance width="624.530303030303"/>
  <unicode hex="0031"/>
  <outline>
    <contour>
      <point x="353.3787878787879" y="0.0" type="line"/>
      <point x="442.28787878787875" y="0.0" type="line"/>
      <point x="442.28787878787875" y="1484.121212121212" type="line"/>
      <point x="388.95454545454544" y="1484.121212121212" type="line"/>
      <point x="21.318181818181817" y="1209.590909090909" type="line"/>
      <point x="21.318181818181817" y="1115.5757575757575" type="line"/>
      <point x="388.95454545454544" y="1389.1666666666667" type="line"/>
      <point x="353.3787878787879" y="1388.6666666666667" type="line"/>
    </contour>
  </outline>
</glyph>
<glyph name="two" format="2">
  <advance width="881.3333333333334"/>
  <unicode hex="0032"/>
  <outline>
    <contour>
      <point x="58.07575757575758" y="0.0" type="line"/>
      <point x="817.7272727272727" y="0.0" type="line"/>
      <point x="817.7272727272727" y="81.24242424242425" type="line"/>
      <point x="141.24242424242425" y="81.24242424242425" type="line"/>
      <point x="157.72727272727272" y="52.60606060606061" type="line"/>
      <point x="533.439393939394" y="606.0454545454545" type="line" smooth="yes"/>
      <point x="689.1212121212121" y="833.8333333333334"/>
      <point x="741.6666666666666" y="970.0909090909091"/>
      <point x="743.0757575757576" y="1125.530303030303" type="curve" smooth="yes"/>
      <point x="745.8939393939394" y="1387.6666666666667"/>
      <point x="591.060606060606" y="1498.121212121212"/>
      <point x="337.3333333333333" y="1498.121212121212" type="curve" smooth="yes"/>
      <point x="231.16666666666666" y="1498.121212121212"/>
      <point x="118.12121212121212" y="1477.5"/>
      <point x="41.39393939393939" y="1442.8030303030303" type="curve"/>
      <point x="41.39393939393939" y="1358.530303030303" type="line"/>
      <point x="133.84848484848484" y="1397.1363636363637"/>
      <point x="228.03030303030303" y="1415.7272727272727"/>
      <point x="333.969696969697" y="1415.7272727272727" type="curve" smooth="yes"/>
      <point x="539.8939393939394" y="1415.7272727272727"/>
      <point x="652.6212121212121" y="1336.3636363636363"/>
      <point x="652.6212121212121" y="1122.2272727272727" type="curve" smooth="yes"/>
      <point x="652.6212121212121" y="985.6818181818181"/>
      <point x="599.8484848484849" y="854.1363636363636"/>
      <point x="462.1969696969697" y="651.9848484848485" type="curve" smooth="yes"/>
      <point x="58.07575757575758" y="51.24242424242424" type="line"/>
    </contour>
  </outline>
</glyph>
<glyph name="three" format="2">
  <advance width="922.4090909090909"/>
  <unicode hex="0033"/>
  <outline>
    <contour>
      <point x="375.3636363636364" y="-18.12121212121212" type="curve" smooth="yes"/>
      <point x="676.6515151515151" y="-18.12121212121212"/>
      <point x="847.3787878787879" y="129.25757575757575"/>
      <point x="847.3787878787879" y="389.25757575757575" type="curve" smooth="yes"/>
      <point x="847.3787878787879" y="607.3030303030303"/>
      <point x="716.4242424242424" y="746.7121212121212"/>
      <point x="469.0151515151515" y="780.2121212121212" type="curve"/>
      <point x="467.6060606060606" y="756.939393939394" type="line"/>
      <point x="678.0757575757576" y="800.0151515151515"/>
      <point x="800.030303030303" y="941.0757575757576"/>
      <point x="800.030303030303" y="1134.0151515151515" type="curve" smooth="yes"/>
      <point x="800.030303030303" y="1366.7121212121212"/>
      <point x="652.9848484848485" y="1498.121212121212"/>
      <point x="382.9090909090909" y="1498.121212121212" type="curve" smooth="yes"/>
      <point x="277.25757575757575" y="1498.121212121212"/>
      <point x="164.8030303030303" y="1478.5"/>
      <point x="84.01515151515152" y="1444.2121212121212" type="curve"/>
      <point x="84.01515151515152" y="1361.5151515151515" type="line"/>
      <point x="179.65151515151516" y="1399.621212121212"/>
      <point x="274.7878787878788" y="1417.2424242424242"/>
      <point x="380.6363636363636" y="1417.2424242424242" type="curve" smooth="yes"/>
      <point x="597.2575757575758" y="1417.2424242424242"/>
      <point x="710.4242424242424" y="1320.5454545454545"/>
      <point x="710.4242424242424" y="1132.3181818181818" type="curve" smooth="yes"/>
      <point x="710.4242424242424" y="925.1666666666666"/>
      <point x="562.3333333333334" y="801.2727272727273"/>
      <point x="284.45454545454544" y="801.2727272727273" type="curve" smooth="yes"/>
      <point x="230.83333333333334" y="801.2727272727273" type="line"/>
      <point x="230.83333333333334" y="720.0" type="line"/>
      <point x="364.95454545454544" y="720.0" type="line" smooth="yes"/>
      <point x="634.2121212121212" y="720.0"/>
      <point x="757.9848484848485" y="593.8484848484849"/>
      <point x="757.9848484848485" y="390.0151515151515" type="curve" smooth="yes"/>
      <point x="757.9848484848485" y="173.87878787878788"/>
      <point x="619.060606060606" y="62.75757575757576"/>
      <point x="374.0151515151515" y="62.75757575757576" type="curve" smooth="yes"/>
      <point x="271.6515151515151" y="62.75757575757576"/>
      <point x="158.4848484848485" y="81.63636363636364"/>
      <point x="51.984848484848484" y="120.37878787878788" type="curve"/>
      <point x="51.984848484848484" y="37.68181818181818" type="line"/>
      <point x="151.3939393939394" y="0.696969696969697"/>
      <point x="262.24242424242425" y="-18.12121212121212"/>
    </contour>
  </outline>
</glyph>
<glyph name="four" format="2">
  <advance width="1072.7575757575758"/>
  <unicode hex="0034"/>
  <outline>
    <contour>
      <point x="50.54545454545455" y="377.6060606060606" type="line"/>
      <point x="1029.939393939394" y="377.6060606060606" type="line"/>
      <point x="1029.939393939394" y="456.8181818181818" type="line"/>
      <point x="126.51515151515152" y="456.8181818181818" type="line"/>
      <point x="143.5151515151515" y="427.09090909090907" type="line"/>
      <point x="703.939393939394" y="1480.0" type="line"/>
      <point x="609.7878787878788" y="1480.0" type="line"/>
      <point x="50.54545454545455" y="428.969696969697" type="line"/>
    </contour>
    <contour>
      <point x="736.3333333333334" y="0.0" type="line"/>
      <point x="822.3939393939394" y="0.0" type="line"/>
      <point x="822.3939393939394" y="980.0" type="line"/>
      <point x="751.9090909090909" y="980.0" type="line"/>
      <point x="736.3333333333334" y="456.8181818181818" type="line"/>
    </contour>
  </outline>
</glyph>
<glyph name="five" format="2">
  <advance width="927.5454545454545"/>
  <unicode hex="0035"/>
  <outline>
    <contour>
      <point x="401.9848484848485" y="-18.12121212121212" type="curve" smooth="yes"/>
      <point x="707.4545454545455" y="-18.12121212121212"/>
      <point x="872.3181818181818" y="129.72727272727272"/>
      <point x="872.3484848484849" y="404.8333333333333" type="curve" smooth="yes"/>
      <point x="872.3787878787879" y="673.3787878787879"/>
      <point x="701.4545454545455" y="809.1363636363636"/>
      <point x="331.77272727272725" y="831.439393939394" type="curve" smooth="yes"/>
      <point x="157.6060606060606" y="841.8484848484849" type="line"/>
      <point x="219.3939393939394" y="789.3030303030303" type="line"/>
      <point x="263.25757575757575" y="1435.8181818181818" type="line"/>
      <point x="220.87878787878788" y="1400.1515151515152" type="line"/>
      <point x="810.7424242424242" y="1400.1515151515152" type="line"/>
      <point x="810.7424242424242" y="1480.0" type="line"/>
      <point x="178.78787878787878" y="1480.0" type="line"/>
      <point x="131.1969696969697" y="761.3030303030303" type="line"/>
      <point x="305.3636363636364" y="750.8939393939394" type="line" smooth="yes"/>
      <point x="647.0" y="730.8333333333334"/>
      <point x="782.9242424242424" y="626.7575757575758"/>
      <point x="782.9242424242424" y="402.6363636363636" type="curve" smooth="yes"/>
      <point x="782.9242424242424" y="177.28787878787878"/>
      <point x="653.8636363636364" y="62.878787878787875"/>
      <point x="402.04545454545456" y="62.878787878787875" type="curve" smooth="yes"/>
      <point x="294.5151515151515" y="62.878787878787875"/>
      <point x="181.34848484848484" y="83.25757575757575"/>
      <point x="77.1969696969697" y="120.68181818181819" type="curve"/>
      <point x="77.1969696969697" y="37.984848484848484" type="line"/>
      <point x="173.3181818181818" y="1.3181818181818181"/>
      <point x="286.9848484848485" y="-18.12121212121212"/>
    </contour>
  </outline>
</glyph>
<glyph name="six" format="2">
  <advance width="1035.6515151515152"/>
  <unicode hex="0036"/>
  <outline>
    <contour>
      <point x="584.2121212121212" y="-18.12121212121212" type="curve" smooth="yes"/>
      <point x="806.2878787878788" y="-18.12121212121212"/>
      <point x="979.530303030303" y="120.25757575757575"/>
      <point x="979.530303030303" y="409.8939393939394" type="curve" smooth="yes"/>
      <point x="979.530303030303" y="696.8030303030303"/>
      <point x="800.5909090909091" y="833.2121212121212"/>
      <point x="559.5151515151515" y="833.2121212121212" type="curve" smooth="yes"/>
      <point x="410.4090909090909" y="833.2121212121212"/>
      <point x="267.43939393939394" y="775.0909090909091"/>
      <point x="191.04545454545456" y="679.1212121212121" type="curve"/>
      <point x="191.04545454545456" y="579.7424242424242" type="line"/>
      <point x="272.3636363636364" y="704.6818181818181"/>
      <point x="423.24242424242425" y="753.1515151515151"/>
      <point x="550.6363636363636" y="753.1515151515151" type="curve" smooth="yes"/>
      <point x="748.9848484848485" y="753.1515151515151"/>
      <point x="891.2575757575758" y="651.8939393939394"/>
      <point x="891.2575757575758" y="405.8181818181818" type="curve" smooth="yes"/>
      <point x="891.2575757575758" y="161.5909090909091"/>
      <point x="755.2121212121212" y="62.121212121212125"/>
      <point x="585.8030303030303" y="62.121212121212125" type="curve" smooth="yes"/>
      <point x="370.7878787878788" y="62.121212121212125"/>
      <point x="218.5" y="200.4848484848485"/>
      <point x="218.5" y="687.939393939394" type="curve" smooth="yes"/>
      <point x="218.5" y="709.8787878787879" type="line" smooth="yes"/>
      <point x="218.5" y="1224.9242424242425"/>
      <point x="380.93939393939394" y="1416.7575757575758"/>
      <point x="680.8333333333334" y="1416.7575757575758" type="curve" smooth="yes"/>
      <point x="762.2575757575758" y="1416.7575757575758"/>
      <point x="846.8484848484849" y="1403.3181818181818"/>
      <point x="916.5909090909091" y="1373.469696969697" type="curve"/>
      <point x="916.5909090909091" y="1456.6515151515152" type="line"/>
      <point x="847.7727272727273" y="1486.1818181818182"/>
      <point x="762.530303030303" y="1498.121212121212"/>
      <point x="682.1212121212121" y="1498.121212121212" type="curve" smooth="yes"/>
      <point x="326.1818181818182" y="1498.121212121212"/>
      <point x="128.37878787878788" y="1268.3030303030303"/>
      <point x="128.37878787878788" y="691.3636363636364" type="curve" smooth="yes"/>
      <point x="128.37878787878788" y="155.12121212121212"/>
      <point x="318.90909090909093" y="-18.12121212121212"/>
    </contour>
  </outline>
</glyph>
<glyph name="seven" format="2">
  <advance width="848.1212121212121"/>
  <unicode hex="0037"/>
  <outline>
    <contour>
      <point x="165.63636363636363" y="0.0" type="line"/>
      <point x="258.56060606060606" y="0.0" type="line"/>
      <point x="790.6818181818181" y="1428.7575757575758" type="line"/>
      <point x="790.6818181818181" y="1480.0" type="line"/>
      <point x="10.030303030303031" y="1480.0" type="line"/>
      <point x="10.030303030303031" y="1398.7575757575758" type="line"/>
      <point x="721.1060606060606" y="1398.7575757575758" type="line"/>
      <point x="701.5454545454545" y="1430.6363636363637" type="line"/>
    </contour>
  </outline>
</glyph>
<glyph name="eight" format="2">
  <advance width="1128.6060606060605"/>
  <unicode hex="0038"/>
  <outline>
    <contour>
      <point x="575.2121212121212" y="-18.12121212121212" type="curve" smooth="yes"/>
      <point x="860.6060606060606" y="-18.12121212121212"/>
      <point x="1030.7878787878788" y="134.0"/>
      <point x="1030.7878787878788" y="365.8030303030303" type="curve" smooth="yes"/>
      <point x="1030.7878787878788" y="578.6666666666666"/>
      <point x="914.0151515151515" y="695.3484848484849"/>
      <point x="597.9545454545455" y="782.6969696969697" type="curve" smooth="yes"/>
      <point x="319.8030303030303" y="858.439393939394"/>
      <point x="235.5" y="952.9545454545455"/>
      <point x="235.5" y="1128.9848484848485" type="curve" smooth="yes"/>
      <point x="235.5" y="1308.0151515151515"/>
      <point x="349.57575757575756" y="1418.878787878788"/>
      <point x="560.8939393939394" y="1418.878787878788" type="curve" smooth="yes"/>
      <point x="772.4545454545455" y="1418.878787878788"/>
      <point x="898.3939393939394" y="1315.0757575757575"/>
      <point x="898.3939393939394" y="1123.9242424242425" type="curve" smooth="yes"/>
      <point x="898.3939393939394" y="950.1818181818181"/>
      <point x="815.4090909090909" y="849.7727272727273"/>
      <point x="624.530303030303" y="766.4242424242424" type="curve"/>
      <point x="703.8333333333334" y="732.2272727272727" type="line"/>
      <point x="883.3484848484849" y="809.5757575757576"/>
      <point x="983.5454545454545" y="944.9545454545455"/>
      <point x="983.5454545454545" y="1126.6363636363637" type="curve" smooth="yes"/>
      <point x="983.5454545454545" y="1355.060606060606"/>
      <point x="822.469696969697" y="1498.121212121212"/>
      <point x="561.3939393939394" y="1498.121212121212" type="curve" smooth="yes"/>
      <point x="303.45454545454544" y="1498.121212121212"/>
      <point x="144.34848484848484" y="1353.3939393939395"/>
      <point x="144.34848484848484" y="1126.2575757575758" type="curve" smooth="yes"/>
      <point x="144.34848484848484" y="911.9090909090909"/>
      <point x="264.07575757575756" y="786.6060606060606"/>
      <point x="575.7878787878788" y="701.7727272727273" type="curve" smooth="yes"/>
      <point x="849.2424242424242" y="626.7575757575758"/>
      <point x="940.0" y="543.1818181818181"/>
      <point x="940.0" y="359.3636363636364" type="curve" smooth="yes"/>
      <point x="940.0" y="169.86363636363637"/>
      <point x="806.2272727272727" y="61.121212121212125"/>
      <point x="575.7121212121212" y="61.121212121212125" type="curve" smooth="yes"/>
      <point x="317.57575757575756" y="61.121212121212125"/>
      <point x="188.0151515151515" y="172.9848484848485"/>
      <point x="188.0151515151515" y="372.75757575757575" type="curve" smooth="yes"/>
      <point x="188.0151515151515" y="552.6818181818181"/>
      <point x="297.7878787878788" y="687.3636363636364"/>
      <point x="484.7878787878788" y="743.1969696969697" type="curve"/>
      <point x="404.8939393939394" y="780.1212121212121" type="line"/>
      <point x="215.6060606060606" y="714.6666666666666"/>
      <point x="97.63636363636364" y="563.0"/>
      <point x="97.63636363636364" y="369.24242424242425" type="curve" smooth="yes"/>
      <point x="97.63636363636364" y="124.04545454545455"/>
      <point x="268.6666666666667" y="-18.12121212121212"/>
    </contour>
  </outline>
</glyph>
<glyph name="nine" format="2">
  <advance width="1035.6515151515152"/>
  <unicode hex="0039"/>
  <outline>
    <contour>
      <point x="451.43939393939394" y="1498.121212121212" type="curve" smooth="yes"/>
      <point x="229.36363636363637" y="1498.121212121212"/>
      <point x="56.121212121212125" y="1359.7424242424242"/>
      <point x="56.121212121212125" y="1070.1060606060605" type="curve" smooth="yes"/>
      <point x="56.121212121212125" y="783.1969696969697"/>
      <point x="235.06060606060606" y="646.7878787878788"/>
      <point x="476.1363636363636" y="646.7878787878788" type="curve" smooth="yes"/>
      <point x="625.2424242424242" y="646.7878787878788"/>
      <point x="768.2121212121212" y="704.9090909090909"/>
      <point x="844.6060606060606" y="800.8787878787879" type="curve"/>
      <point x="844.6060606060606" y="900.2575757575758" type="line"/>
      <point x="763.2878787878788" y="775.3181818181819"/>
      <point x="612.4090909090909" y="726.8484848484849"/>
      <point x="485.0151515151515" y="726.8484848484849" type="curve" smooth="yes"/>
      <point x="286.6666666666667" y="726.8484848484849"/>
      <point x="144.3939393939394" y="828.1060606060606"/>
      <point x="144.3939393939394" y="1074.1818181818182" type="curve" smooth="yes"/>
      <point x="144.3939393939394" y="1318.409090909091"/>
      <point x="280.43939393939394" y="1417.878787878788"/>
      <point x="449.8484848484849" y="1417.878787878788" type="curve" smooth="yes"/>
      <point x="664.8636363636364" y="1417.878787878788"/>
      <point x="817.1515151515151" y="1279.5151515151515"/>
      <point x="817.1515151515151" y="792.060606060606" type="curve" smooth="yes"/>
      <point x="817.1515151515151" y="770.1212121212121" type="line" smooth="yes"/>
      <point x="817.1515151515151" y="255.07575757575756"/>
      <point x="654.7121212121212" y="63.24242424242424"/>
      <point x="354.8181818181818" y="63.24242424242424" type="curve" smooth="yes"/>
      <point x="273.3939393939394" y="63.24242424242424"/>
      <point x="188.8030303030303" y="76.68181818181819"/>
      <point x="119.06060606060606" y="106.53030303030303" type="curve"/>
      <point x="119.06060606060606" y="23.348484848484848" type="line"/>
      <point x="187.87878787878788" y="-6.181818181818182"/>
      <point x="273.1212121212121" y="-18.12121212121212"/>
      <point x="353.530303030303" y="-18.12121212121212" type="curve" smooth="yes"/>
      <point x="709.469696969697" y="-18.12121212121212"/>
      <point x="907.2727272727273" y="211.6969696969697"/>
      <point x="907.2727272727273" y="788.6363636363636" type="curve" smooth="yes"/>
      <point x="907.2727272727273" y="1324.878787878788"/>
      <point x="716.7424242424242" y="1498.121212121212"/>
    </contour>
  </outline>
</glyph>
<glyph name="colon" format="2">
  <advance width="395.06060606060606"/>
  <unicode hex="003A"/>
  <outline>
    <contour>
      <point x="197.53030303030303" y="-10.606060606060606" type="curve" smooth="yes"/>
      <point x="240.65151515151516" y="-10.606060606060606"/>
      <point x="271.3484848484849" y="17.848484848484848"/>
      <point x="271.3484848484849" y="62.515151515151516" type="curve" smooth="yes"/>
      <point x="271.3484848484849" y="107.18181818181819"/>
      <point x="240.8939393939394" y="137.5151515151515"/>
      <point x="197.53030303030303" y="137.5151515151515" type="curve" smooth="yes"/>
      <point x="154.16666666666666" y="137.5151515151515"/>
      <point x="123.71212121212122" y="107.42424242424242"/>
      <point x="123.71212121212122" y="62.515151515151516" type="curve" smooth="yes"/>
      <point x="123.71212121212122" y="17.606060606060606"/>
      <point x="154.4090909090909" y="-10.606060606060606"/>
    </contour>
    <contour>
      <point x="197.53030303030303" y="943.6969696969697" type="curve" smooth="yes"/>
      <point x="240.65151515151516" y="943.6969696969697"/>
      <point x="271.3484848484849" y="972.1515151515151"/>
      <point x="271.3484848484849" y="1016.8181818181819" type="curve" smooth="yes"/>
      <point x="271.3484848484849" y="1061.4848484848485"/>
      <point x="240.8939393939394" y="1091.8181818181818"/>
      <point x="197.53030303030303" y="1091.8181818181818" type="curve" smooth="yes"/>
      <point x="154.16666666666666" y="1091.8181818181818"/>
      <point x="123.71212121212122" y="1061.7272727272727"/>
      <point x="123.71212121212122" y="1016.8181818181819" type="curve" smooth="yes"/>
      <point x="123.71212121212122" y="971.9090909090909"/>
      <point x="154.4090909090909" y="943.6969696969697"/>
    </contour>
  </outline>
</glyph>
<glyph name="semicolon" format="2">
  <advance width="395.06060606060606"/>
  <unicode hex="003B"/>
  <outline>
    <contour>
      <point x="140.74242424242425" y="-303.6363636363636" type="curve"/>
      <point x="196.07575757575756" y="-303.6363636363636" type="line"/>
      <point x="238.62121212121212" y="-206.72727272727272"/>
      <point x="271.2878787878788" y="-87.87878787878788"/>
      <point x="271.2878787878788" y="39.303030303030305" type="curve" smooth="yes"/>
      <point x="271.2878787878788" y="108.45454545454545"/>
      <point x="241.34848484848484" y="137.5151515151515"/>
      <point x="195.28787878787878" y="137.5151515151515" type="curve" smooth="yes"/>
      <point x="152.28787878787878" y="137.5151515151515"/>
      <point x="123.71212121212122" y="107.69696969696969"/>
      <point x="123.71212121212122" y="64.39393939393939" type="curve" smooth="yes"/>
      <point x="123.71212121212122" y="19.484848484848484"/>
      <point x="154.5909090909091" y="-10.606060606060606"/>
      <point x="197.53030303030303" y="-10.606060606060606" type="curve" smooth="yes"/>
      <point x="211.83333333333334" y="-10.606060606060606" type="line"/>
      <point x="202.4090909090909" y="14.424242424242424" type="line"/>
      <point x="202.4090909090909" y="-89.51515151515152"/>
      <point x="179.1060606060606" y="-187.21212121212122"/>
    </contour>
    <contour>
      <point x="197.53030303030303" y="943.6969696969697" type="curve" smooth="yes"/>
      <point x="240.65151515151516" y="943.6969696969697"/>
      <point x="271.3484848484849" y="972.1515151515151"/>
      <point x="271.3484848484849" y="1016.8181818181819" type="curve" smooth="yes"/>
      <point x="271.3484848484849" y="1061.4848484848485"/>
      <point x="240.8939393939394" y="1091.8181818181818"/>
      <point x="197.53030303030303" y="1091.8181818181818" type="curve" smooth="yes"/>
      <point x="154.16666666666666" y="1091.8181818181818"/>
      <point x="123.71212121212122" y="1061.7272727272727"/>
      <point x="123.71212121212122" y="1016.8181818181819" type="curve" smooth="yes"/>
      <point x="123.71212121212122" y="971.9090909090909"/>
      <point x="154.4090909090909" y="943.6969696969697"/>
    </contour>
  </outline>
</glyph>
<glyph name="less" format="2">
  <advance width="1041.2424242424242"/>
  <unicode hex="003C"/>
  <outline>
    <contour>
      <point x="889.8939393939394" y="395.27272727272725" type="line"/>
      <point x="889.8939393939394" y="481.6969696969697" type="line"/>
      <point x="224.8939393939394" y="772.3333333333334" type="line"/>
      <point x="224.8939393939394" y="747.8181818181819" type="line"/>
      <point x="889.8939393939394" y="1038.3030303030303" type="line"/>
      <point x="889.8939393939394" y="1124.7272727272727" type="line"/>
      <point x="151.34848484848484" y="796.4848484848485" type="line"/>
      <point x="151.34848484848484" y="723.5151515151515" type="line"/>
    </contour>
  </outline>
</glyph>
<glyph name="equal" format="2">
  <advance width="1041.2424242424242"/>
  <unicode hex="003D"/>
  <outline>
    <contour>
      <point x="151.34848484848484" y="905.7575757575758" type="line"/>
      <point x="889.8939393939394" y="905.7575757575758" type="line"/>
      <point x="889.8939393939394" y="984.6666666666666" type="line"/>
      <point x="151.34848484848484" y="984.6666666666666" type="line"/>
    </contour>
    <contour>
      <point x="151.34848484848484" y="535.3333333333334" type="line"/>
      <point x="889.8939393939394" y="535.3333333333334" type="line"/>
      <point x="889.8939393939394" y="614.2424242424242" type="line"/>
      <point x="151.34848484848484" y="614.2424242424242" type="line"/>
    </contour>
  </outline>
</glyph>
<glyph name="greater" format="2">
  <advance width="1041.2424242424242"/>
  <unicode hex="003E"/>
  <outline>
    <contour>
      <point x="151.34848484848484" y="395.27272727272725" type="line"/>
      <point x="889.8939393939394" y="723.5151515151515" type="line"/>
      <point x="889.8939393939394" y="796.4848484848485" type="line"/>
      <point x="151.34848484848484" y="1124.7272727272727" type="line"/>
      <point x="151.34848484848484" y="1038.3030303030303" type="line"/>
      <point x="816.3484848484849" y="747.8181818181819" type="line"/>
      <point x="816.3484848484849" y="772.3333333333334" type="line"/>
      <point x="151.34848484848484" y="481.6969696969697" type="line"/>
    </contour>
  </outline>
</glyph>
<glyph name="question" format="2">
  <advance width="817.0757575757576"/>
  <unicode hex="003F"/>
  <outline>
    <contour>
      <point x="331.42424242424244" y="314.06060606060606" type="line"/>
      <point x="391.45454545454544" y="314.06060606060606" type="line"/>
      <point x="402.6363636363636" y="689.1363636363636" type="line"/>
      <point x="667.1666666666666" y="803.1212121212121"/>
      <point x="756.560606060606" y="928.3787878787879"/>
      <point x="756.560606060606" y="1133.8636363636363" type="curve" smooth="yes"/>
      <point x="756.560606060606" y="1366.7121212121212"/>
      <point x="609.5151515151515" y="1498.121212121212"/>
      <point x="339.43939393939394" y="1498.121212121212" type="curve" smooth="yes"/>
      <point x="233.78787878787878" y="1498.121212121212"/>
      <point x="121.33333333333333" y="1478.5"/>
      <point x="40.54545454545455" y="1444.2121212121212" type="curve"/>
      <point x="40.54545454545455" y="1361.2121212121212" type="line"/>
      <point x="136.1818181818182" y="1399.3181818181818"/>
      <point x="231.25757575757575" y="1416.939393939394"/>
      <point x="335.6969696969697" y="1416.939393939394" type="curve" smooth="yes"/>
      <point x="553.7878787878788" y="1416.939393939394"/>
      <point x="666.9545454545455" y="1320.3333333333333"/>
      <point x="666.9545454545455" y="1132.2575757575758" type="curve" smooth="yes"/>
      <point x="666.9545454545455" y="951.030303030303"/>
      <point x="579.060606060606" y="839.0757575757576"/>
      <point x="315.93939393939394" y="741.3333333333334" type="curve"/>
    </contour>
    <contour>
      <point x="361.45454545454544" y="-10.606060606060606" type="curve" smooth="yes"/>
      <point x="406.45454545454544" y="-10.606060606060606"/>
      <point x="435.27272727272725" y="19.606060606060606"/>
      <point x="435.27272727272725" y="61.93939393939394" type="curve" smooth="yes"/>
      <point x="435.27272727272725" y="106.15151515151516"/>
      <point x="404.8181818181818" y="136.36363636363637"/>
      <point x="361.45454545454544" y="136.36363636363637" type="curve" smooth="yes"/>
      <point x="318.09090909090907" y="136.36363636363637"/>
      <point x="287.6363636363636" y="106.39393939393939"/>
      <point x="287.6363636363636" y="61.93939393939394" type="curve" smooth="yes"/>
      <point x="287.6363636363636" y="19.363636363636363"/>
      <point x="318.3333333333333" y="-10.606060606060606"/>
    </contour>
  </outline>
</glyph>
<glyph name="at" format="2">
  <advance width="1705.6818181818182"/>
  <unicode hex="0040"/>
  <outline>
    <contour>
      <point x="897.0757575757576" y="-460.0" type="curve" smooth="yes"/>
      <point x="1023.0757575757576" y="-460.0"/>
      <point x="1143.1666666666667" y="-437.3030303030303"/>
      <point x="1241.060606060606" y="-404.1212121212121" type="curve"/>
      <point x="1241.060606060606" y="-324.42424242424244" type="line"/>
      <point x="1123.7878787878788" y="-362.77272727272725"/>
      <point x="1016.969696969697" y="-382.1818181818182"/>
      <point x="897.0757575757576" y="-382.1818181818182" type="curve" smooth="yes"/>
      <point x="439.5" y="-382.1818181818182"/>
      <point x="191.42424242424244" y="-152.13636363636363"/>
      <point x="191.42424242424244" y="523.7575757575758" type="curve" smooth="yes"/>
      <point x="191.42424242424244" y="1188.378787878788"/>
      <point x="438.56060606060606" y="1420.1818181818182"/>
      <point x="858.3484848484849" y="1420.1818181818182" type="curve" smooth="yes"/>
      <point x="1277.6969696969697" y="1420.1818181818182"/>
      <point x="1519.2878787878788" y="1190.7424242424242"/>
      <point x="1519.469696969697" y="555.5757575757576" type="curve" smooth="yes"/>
      <point x="1519.621212121212" y="182.1060606060606"/>
      <point x="1417.0151515151515" y="60.0"/>
      <point x="1314.530303030303" y="60.0" type="curve" smooth="yes"/>
      <point x="1230.4242424242425" y="60.0"/>
      <point x="1195.2575757575758" y="111.01515151515152"/>
      <point x="1195.2575757575758" y="223.75757575757575" type="curve" smooth="yes"/>
      <point x="1195.2575757575758" y="746.3787878787879" type="line" smooth="yes"/>
      <point x="1195.2575757575758" y="1009.6363636363636"/>
      <point x="1067.560606060606" y="1096.121212121212"/>
      <point x="840.4848484848485" y="1096.121212121212" type="curve" smooth="yes"/>
      <point x="753.7272727272727" y="1096.121212121212"/>
      <point x="644.6515151515151" y="1079.469696969697"/>
      <point x="565.4242424242424" y="1049.2272727272727" type="curve"/>
      <point x="565.2424242424242" y="966.6515151515151" type="line"/>
      <point x="661.6363636363636" y="1001.030303030303"/>
      <point x="760.560606060606" y="1015.2424242424242"/>
      <point x="834.8181818181819" y="1015.2424242424242" type="curve" smooth="yes"/>
      <point x="1009.8636363636364" y="1015.2424242424242"/>
      <point x="1107.5" y="958.2121212121212"/>
      <point x="1107.5" y="748.439393939394" type="curve" smooth="yes"/>
      <point x="1107.5" y="225.3030303030303" type="line"/>
      <point x="1026.5454545454545" y="104.9090909090909"/>
      <point x="916.1212121212121" y="63.151515151515156"/>
      <point x="816.4090909090909" y="63.151515151515156" type="curve" smooth="yes"/>
      <point x="672.3787878787879" y="63.151515151515156"/>
      <point x="595.2121212121212" y="133.83333333333334"/>
      <point x="595.2121212121212" y="278.3787878787879" type="curve" smooth="yes"/>
      <point x="595.2121212121212" y="412.3636363636364"/>
      <point x="673.1969696969697" y="484.8484848484849"/>
      <point x="849.3333333333334" y="505.3181818181818" type="curve" smooth="yes"/>
      <point x="1153.3333333333333" y="540.1818181818181" type="line"/>
      <point x="1145.6060606060605" y="615.030303030303" type="line"/>
      <point x="847.9545454545455" y="580.1666666666666" type="line" smooth="yes"/>
      <point x="610.8333333333334" y="553.0909090909091"/>
      <point x="501.75757575757575" y="453.1060606060606"/>
      <point x="501.75757575757575" y="268.9848484848485" type="curve" smooth="yes"/>
      <point x="501.75757575757575" y="84.25757575757575"/>
      <point x="621.5151515151515" y="-16.363636363636363"/>
      <point x="803.4242424242424" y="-16.363636363636363" type="curve" smooth="yes"/>
      <point x="926.1060606060606" y="-16.363636363636363"/>
      <point x="1036.7424242424242" y="32.78787878787879"/>
      <point x="1107.060606060606" y="124.48484848484848" type="curve"/>
      <point x="1116.2272727272727" y="124.48484848484848" type="line"/>
      <point x="1136.030303030303" y="39.621212121212125"/>
      <point x="1198.9242424242425" y="-16.363636363636363"/>
      <point x="1305.409090909091" y="-16.363636363636363" type="curve" smooth="yes"/>
      <point x="1467.3939393939395" y="-16.363636363636363"/>
      <point x="1600.030303030303" y="146.57575757575756"/>
      <point x="1600.5" y="561.6969696969697" type="curve" smooth="yes"/>
      <point x="1600.969696969697" y="1220.7727272727273"/>
      <point x="1331.1363636363635" y="1498.0"/>
      <point x="858.3484848484849" y="1498.0" type="curve" smooth="yes"/>
      <point x="384.6515151515151" y="1498.0"/>
      <point x="105.18181818181819" y="1220.7727272727273"/>
      <point x="105.18181818181819" y="520.0" type="curve" smooth="yes"/>
      <point x="105.18181818181819" y="-187.34848484848484"/>
      <point x="387.93939393939394" y="-459.530303030303"/>
    </contour>
  </outline>
</glyph>
<glyph name="B" format="2">
  <advance width="1162.6363636363637"/>
  <unicode hex="0042"/>
  <anchor x="598.030303030303" y="0.0" name="bottom"/>
  <anchor x="598.030303030303" y="1480.0" name="top"/>
  <outline>
    <contour>
      <point x="489.1666666666667" y="-10.606060606060606" type="curve" smooth="yes"/>
      <point x="915.4090909090909" y="-10.606060606060606"/>
      <point x="1085.4848484848485" y="128.04545454545453"/>
      <point x="1085.4848484848485" y="394.22727272727275" type="curve" smooth="yes"/>
      <point x="1085.4848484848485" y="598.7121212121212"/>
      <point x="976.5454545454545" y="743.6969696969697"/>
      <point x="732.939393939394" y="771.2878787878788" type="curve"/>
      <point x="731.530303030303" y="756.939393939394" type="line"/>
      <point x="963.8030303030303" y="790.530303030303"/>
      <point x="1043.0757575757575" y="940.9848484848485"/>
      <point x="1043.0757575757575" y="1110.0" type="curve" smooth="yes"/>
      <point x="1043.0757575757575" y="1371.1969696969697"/>
      <point x="887.1363636363636" y="1494.3636363636363"/>
      <point x="520.9242424242424" y="1494.3636363636363" type="curve" smooth="yes"/>
      <point x="381.24242424242425" y="1494.3636363636363"/>
      <point x="274.2878787878788" y="1481.7272727272727"/>
      <point x="172.24242424242425" y="1461.939393939394" type="curve"/>
      <point x="172.24242424242425" y="7.3939393939393945" type="line"/>
      <point x="282.27272727272725" y="-5.53030303030303"/>
      <point x="381.25757575757575" y="-10.606060606060606"/>
    </contour>
    <contour>
      <point x="498.1363636363636" y="69.87878787878788" type="curve" smooth="yes"/>
      <point x="414.1212121212121" y="69.87878787878788"/>
      <point x="336.42424242424244" y="72.78787878787878"/>
      <point x="260.5151515151515" y="82.45454545454545" type="curve"/>
      <point x="260.5151515151515" y="1393.8030303030303" type="line"/>
      <point x="335.4090909090909" y="1407.0"/>
      <point x="413.030303030303" y="1413.878787878788"/>
      <point x="522.3939393939394" y="1413.878787878788" type="curve" smooth="yes"/>
      <point x="835.6363636363636" y="1413.878787878788"/>
      <point x="954.3636363636364" y="1326.2878787878788"/>
      <point x="954.3636363636364" y="1108.4242424242425" type="curve" smooth="yes"/>
      <point x="954.3636363636364" y="908.530303030303"/>
      <point x="849.3787878787879" y="801.1515151515151"/>
      <point x="546.0757575757576" y="801.1515151515151" type="curve" smooth="yes"/>
      <point x="243.24242424242425" y="801.1515151515151" type="line"/>
      <point x="243.24242424242425" y="720.030303030303" type="line"/>
      <point x="579.3333333333334" y="720.030303030303" type="line" smooth="yes"/>
      <point x="866.8787878787879" y="720.030303030303"/>
      <point x="996.5151515151515" y="612.5"/>
      <point x="996.5151515151515" y="393.6515151515151" type="curve" smooth="yes"/>
      <point x="996.5151515151515" y="173.74242424242425"/>
      <point x="867.4090909090909" y="69.87878787878788"/>
    </contour>
  </outline>
</glyph>
<glyph name="C" format="2">
  <advance width="1026.590909090909"/>
  <unicode hex="0043"/>
  <anchor x="649.1060606060606" y="0.0" name="bottom"/>
  <anchor x="637.3636363636364" y="1520.0" name="top"/>
  <outline>
    <contour>
      <point x="691.0757575757576" y="-18.12121212121212" type="curve" smooth="yes"/>
      <point x="806.7121212121212" y="-18.12121212121212"/>
      <point x="909.4242424242424" y="3.1363636363636362"/>
      <point x="998.5909090909091" y="35.39393939393939" type="curve"/>
      <point x="998.5909090909091" y="119.87878787878788" type="line"/>
      <point x="886.3939393939394" y="80.72727272727272"/>
      <point x="796.7424242424242" y="64.63636363636364"/>
      <point x="693.2272727272727" y="64.63636363636364" type="curve" smooth="yes"/>
      <point x="389.1060606060606" y="64.63636363636364"/>
      <point x="199.0" y="218.25757575757575"/>
      <point x="199.0" y="741.8787878787879" type="curve" smooth="yes"/>
      <point x="199.0" y="1248.6060606060605"/>
      <point x="381.0151515151515" y="1415.3636363636363"/>
      <point x="702.4545454545455" y="1415.3636363636363" type="curve" smooth="yes"/>
      <point x="801.969696969697" y="1415.3636363636363"/>
      <point x="895.0151515151515" y="1404.3333333333333"/>
      <point x="998.5909090909091" y="1370.9242424242425" type="curve"/>
      <point x="998.5909090909091" y="1455.409090909091" type="line"/>
      <point x="903.8030303030303" y="1483.4242424242425"/>
      <point x="806.530303030303" y="1498.121212121212"/>
      <point x="706.3181818181819" y="1498.121212121212" type="curve" smooth="yes"/>
      <point x="330.3333333333333" y="1498.121212121212"/>
      <point x="105.18181818181819" y="1292.6666666666667"/>
      <point x="105.18181818181819" y="737.8787878787879" type="curve" smooth="yes"/>
      <point x="105.18181818181819" y="169.54545454545453"/>
      <point x="337.2121212121212" y="-18.12121212121212"/>
    </contour>
  </outline>
</glyph>
<glyph name="E" format="2">
  <advance width="1042.0151515151515"/>
  <unicode hex="0045"/>
  <anchor x="598.9090909090909" y="0.0" name="bottom"/>
  <anchor x="908.4545454545455" y="0.0" name="ogonek"/>
  <anchor x="597.969696969697" y="1520.0" name="top"/>
  <anchor x="38.40909090909091" y="1480.0" name="topleft"/>
  <outline>
    <contour>
      <point x="172.24242424242425" y="0.0" type="line"/>
      <point x="988.7575757575758" y="0.0" type="line"/>
      <point x="988.7575757575758" y="82.48484848484848" type="line"/>
      <point x="260.7878787878788" y="82.48484848484848" type="line"/>
      <point x="260.7878787878788" y="1397.5151515151515" type="line"/>
      <point x="978.7575757575758" y="1397.5151515151515" type="line"/>
      <point x="978.7575757575758" y="1480.0" type="line"/>
      <point x="172.24242424242425" y="1480.0" type="line"/>
    </contour>
    <contour>
      <point x="240.0" y="719.3939393939394" type="line"/>
      <point x="885.530303030303" y="719.3939393939394" type="line"/>
      <point x="885.530303030303" y="801.8787878787879" type="line"/>
      <point x="240.0" y="801.8787878787879" type="line"/>
    </contour>
  </outline>
</glyph>
<glyph name="F" format="2">
  <advance width="1002.8484848484849"/>
  <unicode hex="0046"/>
  <outline>
    <contour>
      <point x="172.24242424242425" y="0.0" type="line"/>
      <point x="261.1515151515151" y="0.0" type="line"/>
      <point x="261.1515151515151" y="1397.1818181818182" type="line"/>
      <point x="969.3636363636364" y="1397.1818181818182" type="line"/>
      <point x="969.3636363636364" y="1480.0" type="line"/>
      <point x="172.24242424242425" y="1480.0" type="line"/>
    </contour>
    <contour>
      <point x="245.1818181818182" y="716.3030303030303" type="line"/>
      <point x="876.3181818181819" y="716.3030303030303" type="line"/>
      <point x="876.3181818181819" y="799.1212121212121" type="line"/>
      <point x="245.1818181818182" y="799.1212121212121" type="line"/>
    </contour>
  </outline>
</glyph>
<glyph name="H" format="2">
  <advance width="1318.939393939394"/>
  <unicode hex="0048"/>
  <anchor x="659.530303030303" y="0.0" name="bottom"/>
  <anchor x="659.530303030303" y="1143.969696969697" name="center"/>
  <anchor x="659.530303030303" y="1520.0" name="top"/>
  <anchor x="38.10606060606061" y="1480.0" name="topleft"/>
  <outline>
    <contour>
      <point x="172.24242424242425" y="0.0" type="line"/>
      <point x="261.1515151515151" y="0.0" type="line"/>
      <point x="261.1515151515151" y="718.4545454545455" type="line"/>
      <point x="1057.7878787878788" y="718.4545454545455" type="line"/>
      <point x="1057.7878787878788" y="0.0" type="line"/>
      <point x="1146.6969696969697" y="0.0" type="line"/>
      <point x="1146.6969696969697" y="1480.0" type="line"/>
      <point x="1057.7878787878788" y="1480.0" type="line"/>
      <point x="1057.7878787878788" y="802.8181818181819" type="line"/>
      <point x="261.1515151515151" y="802.8181818181819" type="line"/>
      <point x="261.1515151515151" y="1480.0" type="line"/>
      <point x="172.24242424242425" y="1480.0" type="line"/>
    </contour>
  </outline>
</glyph>
<glyph name="I" format="2">
  <advance width="433.3939393939394"/>
  <unicode hex="0049"/>
  <anchor x="216.66666666666666" y="0.0" name="bottom"/>
  <anchor x="261.1515151515151" y="0.0" name="ogonek"/>
  <anchor x="216.6969696969697" y="1520.0" name="top"/>
  <outline>
    <contour>
      <point x="172.24242424242425" y="0.0" type="line"/>
      <point x="261.1515151515151" y="0.0" type="line"/>
      <point x="261.1515151515151" y="1480.0" type="line"/>
      <point x="172.24242424242425" y="1480.0" type="line"/>
    </contour>
  </outline>
</glyph>
<glyph name="J" format="2">
  <advance width="433.3939393939394"/>
  <unicode hex="004A"/>
  <anchor x="304.3636363636364" y="0.0" name="bottom"/>
  <anchor x="216.72727272727272" y="1520.0" name="top"/>
  <outline>
    <contour>
      <point x="56.81818181818182" y="-340.72727272727275" type="line"/>
      <point x="198.95454545454547" y="-138.6969696969697"/>
      <point x="252.22727272727272" y="24.96969696969697"/>
      <point x="261.1515151515151" y="258.530303030303" type="curve"/>
      <point x="261.1515151515151" y="1480.0" type="line"/>
      <point x="172.3030303030303" y="1480.0" type="line"/>
      <point x="172.3030303030303" y="287.1515151515151" type="line" smooth="yes"/>
      <point x="172.3030303030303" y="44.515151515151516"/>
      <point x="119.66666666666667" y="-113.42424242424242"/>
      <point x="-5.742424242424243" y="-297.7121212121212" type="curve"/>
    </contour>
  </outline>
</glyph>
<glyph name="K" format="2">
  <advance width="1123.8333333333333"/>
  <unicode hex="004B"/>
  <anchor x="592.2121212121212" y="0.0" name="bottom"/>
  <anchor x="591.5757575757576" y="1480.0" name="top"/>
  <outline>
    <contour>
      <point x="1045.090909090909" y="0.0" type="line"/>
      <point x="1150.3484848484848" y="0.0" type="line"/>
      <point x="539.469696969697" y="776.4848484848485" type="line"/>
      <point x="539.1060606060606" y="747.2727272727273" type="line"/>
      <point x="1108.5" y="1480.0" type="line"/>
      <point x="1005.939393939394" y="1480.0" type="line"/>
      <point x="447.6363636363636" y="757.5757575757576" type="line"/>
    </contour>
    <contour>
      <point x="172.24242424242425" y="0.0" type="line"/>
      <point x="261.1515151515151" y="0.0" type="line"/>
      <point x="261.1515151515151" y="1480.0" type="line"/>
      <point x="172.24242424242425" y="1480.0" type="line"/>
    </contour>
    <contour>
      <point x="242.78787878787878" y="718.4545454545455" type="line"/>
      <point x="497.1818181818182" y="718.4545454545455" type="line"/>
      <point x="497.1818181818182" y="801.4090909090909" type="line"/>
      <point x="242.78787878787878" y="801.4090909090909" type="line"/>
    </contour>
  </outline>
</glyph>
<glyph name="L" format="2">
  <advance width="968.1363636363636"/>
  <unicode hex="004C"/>
  <anchor x="566.9545454545455" y="0.0" name="bottom"/>
  <anchor x="628.9090909090909" y="1616.0" name="caronalt"/>
  <anchor x="693.9848484848485" y="781.8181818181819" name="periodcentered"/>
  <anchor x="217.06060606060606" y="778.8484848484849" name="slash"/>
  <anchor x="217.06060606060606" y="1520.0" name="top"/>
  <outline>
    <contour>
      <point x="172.24242424242425" y="0.0" type="line"/>
      <point x="959.7878787878788" y="0.0" type="line"/>
      <point x="959.7878787878788" y="83.3030303030303" type="line"/>
      <point x="261.1515151515151" y="83.3030303030303" type="line"/>
      <point x="261.1515151515151" y="1480.0" type="line"/>
      <point x="172.24242424242425" y="1480.0" type="line"/>
    </contour>
  </outline>
</glyph>
<glyph name="M" format="2">
  <advance width="1618.6666666666667"/>
  <unicode hex="004D"/>
  <anchor x="811.0" y="0.0" name="bottom"/>
  <anchor x="811.0" y="1480.0" name="top"/>
  <outline>
    <contour>
      <point x="176.24242424242425" y="0.0" type="line"/>
      <point x="261.5151515151515" y="0.0" type="line"/>
      <point x="261.5151515151515" y="1401.6060606060605" type="line"/>
      <point x="221.57575757575756" y="1401.6060606060605" type="line"/>
      <point x="763.7575757575758" y="201.21212121212122" type="line"/>
      <point x="854.9090909090909" y="201.21212121212122" type="line"/>
      <point x="1394.2121212121212" y="1401.6060606060605" type="line"/>
      <point x="1357.1515151515152" y="1401.6060606060605" type="line"/>
      <point x="1357.1515151515152" y="0.0" type="line"/>
      <point x="1442.4242424242425" y="0.0" type="line"/>
      <point x="1442.4242424242425" y="1480.0" type="line"/>
      <point x="1340.7424242424242" y="1480.0" type="line"/>
      <point x="795.5151515151515" y="255.33333333333334" type="line"/>
      <point x="827.7575757575758" y="255.33333333333334" type="line"/>
      <point x="277.92424242424244" y="1480.0" type="line"/>
      <point x="176.24242424242425" y="1480.0" type="line"/>
    </contour>
  </outline>
</glyph>
<glyph name="P" format="2">
  <advance width="1129.6969696969697"/>
  <unicode hex="0050"/>
  <outline>
    <contour>
      <point x="172.24242424242425" y="0.0" type="line"/>
      <point x="261.1515151515151" y="0.0" type="line"/>
      <point x="261.1515151515151" y="519.439393939394" type="line"/>
      <point x="327.6212121212121" y="512.8636363636364"/>
      <point x="386.5909090909091" y="510.3939393939394"/>
      <point x="455.1818181818182" y="510.3939393939394" type="curve" smooth="yes"/>
      <point x="857.3333333333334" y="510.3939393939394"/>
      <point x="1036.7121212121212" y="682.0151515151515"/>
      <point x="1036.7121212121212" y="1001.8636363636364" type="curve" smooth="yes"/>
      <point x="1036.7121212121212" y="1340.8030303030303"/>
      <point x="851.6060606060606" y="1494.3636363636363"/>
      <point x="494.6363636363636" y="1494.3636363636363" type="curve" smooth="yes"/>
      <point x="379.06060606060606" y="1494.3636363636363"/>
      <point x="274.3787878787879" y="1481.878787878788"/>
      <point x="172.24242424242425" y="1463.621212121212" type="curve"/>
    </contour>
    <contour>
      <point x="459.6515151515151" y="591.6060606060606" type="curve" smooth="yes"/>
      <point x="389.0" y="591.6060606060606"/>
      <point x="325.6818181818182" y="594.5454545454545"/>
      <point x="261.1515151515151" y="603.2727272727273" type="curve"/>
      <point x="261.1515151515151" y="1394.8181818181818" type="line"/>
      <point x="334.77272727272725" y="1406.4545454545455"/>
      <point x="410.969696969697" y="1413.1515151515152"/>
      <point x="497.06060606060606" y="1413.1515151515152" type="curve" smooth="yes"/>
      <point x="799.9090909090909" y="1413.1515151515152"/>
      <point x="944.8636363636364" y="1288.6060606060605"/>
      <point x="944.8636363636364" y="998.3939393939394" type="curve" smooth="yes"/>
      <point x="944.8636363636364" y="724.0"/>
      <point x="797.0909090909091" y="591.6060606060606"/>
    </contour>
  </outline>
</glyph>
<glyph name="Q" format="2">
  <advance width="1281.3939393939395"/>
  <unicode hex="0051"/>
  <outline>
    <contour>
      <point x="1137.2272727272727" y="-191.15151515151516" type="curve"/>
      <point x="1151.9848484848485" y="-109.39393939393939" type="line"/>
      <point x="951.7727272727273" y="-91.28787878787878"/>
      <point x="723.4545454545455" y="-52.74242424242424"/>
      <point x="558.2878787878788" y="25.87878787878788" type="curve"/>
      <point x="561.7575757575758" y="-5.545454545454545" type="line"/>
      <point x="968.0757575757576" y="-57.878787878787875"/>
      <point x="1176.2121212121212" y="202.6818181818182"/>
      <point x="1176.2121212121212" y="740.0" type="curve" smooth="yes"/>
      <point x="1176.2121212121212" y="1292.3181818181818"/>
      <point x="962.939393939394" y="1498.121212121212"/>
      <point x="640.6969696969697" y="1498.121212121212" type="curve" smooth="yes"/>
      <point x="318.45454545454544" y="1498.121212121212"/>
      <point x="105.18181818181819" y="1289.560606060606"/>
      <point x="105.18181818181819" y="739.6969696969697" type="curve" smooth="yes"/>
      <point x="105.18181818181819" y="122.13636363636364"/>
      <point x="342.8030303030303" y="-97.6969696969697"/>
    </contour>
    <contour>
      <point x="640.6969696969697" y="64.65151515151516" type="curve" smooth="yes"/>
      <point x="375.3333333333333" y="64.65151515151516"/>
      <point x="198.5151515151515" y="228.0"/>
      <point x="198.5151515151515" y="744.2424242424242" type="curve" smooth="yes"/>
      <point x="198.5151515151515" y="1251.939393939394"/>
      <point x="375.4848484848485" y="1415.3484848484848"/>
      <point x="640.6969696969697" y="1415.3484848484848" type="curve" smooth="yes"/>
      <point x="905.9090909090909" y="1415.3484848484848"/>
      <point x="1082.878787878788" y="1251.8484848484848"/>
      <point x="1082.878787878788" y="735.7575757575758" type="curve" smooth="yes"/>
      <point x="1082.878787878788" y="228.15151515151516"/>
      <point x="906.0" y="64.65151515151516"/>
    </contour>
  </outline>
</glyph>
<glyph name="T" format="2">
  <advance width="1059.7272727272727"/>
  <unicode hex="0054"/>
  <anchor x="529.9090909090909" y="0.0" name="bottom"/>
  <anchor x="529.9090909090909" y="793.939393939394" name="center"/>
  <anchor x="529.9090909090909" y="1520.0" name="top"/>
  <outline>
    <contour>
      <point x="485.3636363636364" y="0.0" type="line"/>
      <point x="574.3636363636364" y="0.0" type="line"/>
      <point x="574.3636363636364" y="1396.6969696969697" type="line"/>
      <point x="1048.878787878788" y="1396.6969696969697" type="line"/>
      <point x="1048.878787878788" y="1480.0" type="line"/>
      <point x="10.848484848484848" y="1480.0" type="line"/>
      <point x="10.848484848484848" y="1396.6969696969697" type="line"/>
      <point x="485.3636363636364" y="1396.6969696969697" type="line"/>
    </contour>
  </outline>
</glyph>
<glyph name="V" format="2">
  <advance width="1185.5151515151515"/>
  <unicode hex="0056"/>
  <outline>
    <contour>
      <point x="529.7575757575758" y="0.0" type="line"/>
      <point x="655.7575757575758" y="0.0" type="line"/>
      <point x="1173.560606060606" y="1480.0" type="line"/>
      <point x="1083.2424242424242" y="1480.0" type="line"/>
      <point x="584.7121212121212" y="47.36363636363637" type="line"/>
      <point x="604.8939393939394" y="47.36363636363637" type="line"/>
      <point x="107.81818181818181" y="1480.0" type="line"/>
      <point x="11.954545454545455" y="1480.0" type="line"/>
    </contour>
  </outline>
</glyph>
<glyph name="W" format="2">
  <advance width="1915.378787878788"/>
  <unicode hex="0057"/>
  <anchor x="959.3333333333334" y="0.0" name="bottom"/>
  <anchor x="959.3333333333334" y="1520.0" name="top"/>
  <outline>
    <contour>
      <point x="460.6969696969697" y="0.0" type="line"/>
      <point x="581.1818181818181" y="0.0" type="line"/>
      <point x="969.3484848484849" y="1417.5454545454545" type="line"/>
      <point x="948.2727272727273" y="1417.5454545454545" type="line"/>
      <point x="1334.1969696969697" y="0.0" type="line"/>
      <point x="1454.6818181818182" y="0.0" type="line"/>
      <point x="1855.6515151515152" y="1480.0" type="line"/>
      <point x="1767.8181818181818" y="1480.0" type="line"/>
      <point x="1383.590909090909" y="47.42424242424242" type="line"/>
      <point x="1404.8333333333333" y="47.42424242424242" type="line"/>
      <point x="1016.939393939394" y="1480.0" type="line"/>
      <point x="901.4848484848485" y="1480.0" type="line"/>
      <point x="512.8787878787879" y="47.42424242424242" type="line"/>
      <point x="534.6969696969697" y="47.42424242424242" type="line"/>
      <point x="152.54545454545456" y="1480.0" type="line"/>
      <point x="59.25757575757576" y="1480.0" type="line"/>
    </contour>
  </outline>
</glyph>
<glyph name="X" format="2">
  <advance width="1162.121212121212"/>
  <unicode hex="0058"/>
  <outline>
    <contour>
      <point x="1027.060606060606" y="0.0" type="line"/>
      <point x="1133.1515151515152" y="0.0" type="line"/>
      <point x="633.6060606060606" y="749.8787878787879" type="line"/>
      <point x="581.0454545454545" y="825.3030303030303" type="line"/>
      <point x="145.21212121212122" y="1480.0" type="line"/>
      <point x="40.25757575757576" y="1480.0" type="line"/>
      <point x="527.8636363636364" y="749.1969696969697" type="line"/>
      <point x="580.4242424242424" y="672.6363636363636" type="line"/>
    </contour>
    <contour>
      <point x="28.075757575757574" y="0.0" type="line"/>
      <point x="132.3181818181818" y="0.0" type="line"/>
      <point x="580.4242424242424" y="672.6363636363636" type="line"/>
      <point x="633.6060606060606" y="749.8787878787879" type="line"/>
      <point x="1120.6969696969697" y="1480.0" type="line"/>
      <point x="1017.3181818181819" y="1480.0" type="line"/>
      <point x="581.0454545454545" y="825.3030303030303" type="line"/>
      <point x="527.8636363636364" y="749.1969696969697" type="line"/>
    </contour>
  </outline>
</glyph>
<glyph name="Z" format="2">
  <advance width="1037.2878787878788"/>
  <unicode hex="005A"/>
  <anchor x="519.0909090909091" y="0.0" name="bottom"/>
  <anchor x="519.4545454545455" y="1520.0" name="top"/>
  <outline>
    <contour>
      <point x="58.621212121212125" y="0.0" type="line"/>
      <point x="978.6666666666666" y="0.0" type="line"/>
      <point x="978.6666666666666" y="81.42424242424242" type="line"/>
      <point x="145.53030303030303" y="81.42424242424242" type="line"/>
      <point x="159.62121212121212" y="53.13636363636364" type="line"/>
      <point x="967.7272727272727" y="1428.5757575757575" type="line"/>
      <point x="967.7272727272727" y="1480.0" type="line"/>
      <point x="69.56060606060606" y="1480.0" type="line"/>
      <point x="69.56060606060606" y="1398.5757575757575" type="line"/>
      <point x="880.8181818181819" y="1398.5757575757575" type="line"/>
      <point x="866.7272727272727" y="1426.8636363636363" type="line"/>
      <point x="58.621212121212125" y="51.42424242424242" type="line"/>
    </contour>
  </outline>
</glyph>
<glyph name="bracketleft" format="2">
  <advance width="593.7575757575758"/>
  <unicode hex="005B"/>
  <outline>
    <contour>
      <point x="192.24242424242425" y="-440.0" type="line"/>
      <point x="632.7272727272727" y="-440.0" type="line"/>
      <point x="632.7272727272727" y="-360.7878787878788" type="line"/>
      <point x="280.6969696969697" y="-360.7878787878788" type="line"/>
      <point x="280.6969696969697" y="1536.7878787878788" type="line"/>
      <point x="633.030303030303" y="1536.7878787878788" type="line"/>
      <point x="633.030303030303" y="1616.0" type="line"/>
      <point x="192.24242424242425" y="1616.0" type="line"/>
    </contour>
  </outline>
</glyph>
<glyph name="backslash" format="2">
  <advance width="491.07575757575756"/>
  <unicode hex="005C"/>
  <outline>
    <contour>
      <point x="400.969696969697" y="-240.0" type="line"/>
      <point x="491.07575757575756" y="-240.0" type="line"/>
      <point x="90.10606060606061" y="1616.0" type="line"/>
      <point x="0.0" y="1616.0" type="line"/>
    </contour>
  </outline>
</glyph>
<glyph name="bracketright" format="2">
  <advance width="593.7575757575758"/>
  <unicode hex="005D"/>
  <outline>
    <contour>
      <point x="-38.96969696969697" y="-440.0" type="line"/>
      <point x="401.5151515151515" y="-440.0" type="line"/>
      <point x="401.5151515151515" y="1616.0" type="line"/>
      <point x="-39.27272727272727" y="1616.0" type="line"/>
      <point x="-39.27272727272727" y="1536.7878787878788" type="line"/>
      <point x="313.06060606060606" y="1536.7878787878788" type="line"/>
      <point x="313.06060606060606" y="-360.7878787878788" type="line"/>
      <point x="-38.96969696969697" y="-360.7878787878788" type="line"/>
    </contour>
  </outline>
</glyph>
<glyph name="underscore" format="2">
  <advance width="1007.969696969697"/>
  <unicode hex="005F"/>
  <outline>
    <contour>
      <point x="91.89393939393939" y="-79.24242424242425" type="line"/>
      <point x="916.0757575757576" y="-79.24242424242425" type="line"/>
      <point x="916.0757575757576" y="-0.030303030303030304" type="line"/>
      <point x="91.89393939393939" y="-0.030303030303030304" type="line"/>
    </contour>
  </outline>
</glyph>
<glyph name="grave" format="2">
  <advance width="918.1818181818182"/>
  <unicode hex="0060"/>
  <anchor x="459.0909090909091" y="1200.0" name="_top"/>
  <anchor x="459.0909090909091" y="1562.060606060606" name="top"/>
  <outline>
    <contour>
      <point x="419.93939393939394" y="1261.3333333333333" type="line"/>
      <point x="498.24242424242425" y="1261.3333333333333" type="line"/>
      <point x="317.6666666666667" y="1616.0" type="line"/>
      <point x="221.87878787878788" y="1616.0" type="line"/>
    </contour>
  </outline>
</glyph>
<glyph name="b" format="2">
  <advance width="1005.1060606060606"/>
  <unicode hex="0062"/>
  <anchor x="505.6060606060606" y="0.0" name="bottom"/>
  <anchor x="197.06060606060606" y="1616.0" name="top"/>
  <outline>
    <contour>
      <point x="420.0" y="-18.151515151515152" type="curve" smooth="yes"/>
      <point x="733.6969696969697" y="-18.242424242424242"/>
      <point x="910.2272727272727" y="160.46969696969697"/>
      <point x="910.2272727272727" y="560.5757575757576" type="curve" smooth="yes"/>
      <point x="910.2272727272727" y="967.6060606060606"/>
      <point x="734.6212121212121" y="1097.3333333333333"/>
      <point x="527.7575757575758" y="1097.3333333333333" type="curve" smooth="yes"/>
      <point x="401.8484848484849" y="1097.3333333333333"/>
      <point x="305.1666666666667" y="1040.6515151515152"/>
      <point x="248.0" y="972.7727272727273" type="curve"/>
      <point x="241.24242424242425" y="972.7727272727273" type="line"/>
      <point x="241.24242424242425" y="1616.0" type="line"/>
      <point x="152.78787878787878" y="1616.0" type="line"/>
      <point x="152.78787878787878" y="22.575757575757578" type="line"/>
      <point x="229.3030303030303" y="-3.2272727272727275"/>
      <point x="329.8636363636364" y="-18.151515151515152"/>
    </contour>
    <contour>
      <point x="423.969696969697" y="62.27272727272727" type="curve" smooth="yes"/>
      <point x="358.1060606060606" y="62.27272727272727"/>
      <point x="287.6060606060606" y="73.25757575757575"/>
      <point x="241.24242424242425" y="87.18181818181819" type="curve"/>
      <point x="241.24242424242425" y="865.0757575757576" type="line"/>
      <point x="302.030303030303" y="965.4090909090909"/>
      <point x="408.8333333333333" y="1015.0909090909091"/>
      <point x="513.6060606060606" y="1015.0909090909091" type="curve" smooth="yes"/>
      <point x="684.1515151515151" y="1015.0909090909091"/>
      <point x="817.7424242424242" y="921.469696969697"/>
      <point x="817.7424242424242" y="551.030303030303" type="curve" smooth="yes"/>
      <point x="817.7424242424242" y="200.21212121212122"/>
      <point x="678.3333333333334" y="62.27272727272727"/>
    </contour>
  </outline>
</glyph>
<glyph name="f" format="2">
  <advance width="625.7424242424242"/>
  <unicode hex="0066"/>
  <outline>
    <contour>
      <point x="218.28787878787878" y="0.0" type="line"/>
      <point x="306.469696969697" y="0.0" type="line"/>
      <point x="306.469696969697" y="1312.7878787878788" type="line" smooth="yes"/>
      <point x="306.469696969697" y="1487.4848484848485"/>
      <point x="386.3030303030303" y="1554.5454545454545"/>
      <point x="541.9545454545455" y="1554.5454545454545" type="curve" smooth="yes"/>
      <point x="589.2727272727273" y="1554.5454545454545"/>
      <point x="628.9848484848485" y="1550.1969696969697"/>
      <point x="673.3181818181819" y="1541.969696969697" type="curve"/>
      <point x="673.3181818181819" y="1624.939393939394" type="line"/>
      <point x="630.3939393939394" y="1632.939393939394"/>
      <point x="581.2121212121212" y="1636.0"/>
      <point x="541.6818181818181" y="1636.0" type="curve" smooth="yes"/>
      <point x="327.45454545454544" y="1636.0"/>
      <point x="218.28787878787878" y="1526.8181818181818"/>
      <point x="218.28787878787878" y="1310.9242424242425" type="curve" smooth="yes"/>
    </contour>
    <contour>
      <point x="11.924242424242424" y="1002.0" type="line"/>
      <point x="636.2727272727273" y="1002.0" type="line"/>
      <point x="636.2727272727273" y="1081.2121212121212" type="line"/>
      <point x="11.924242424242424" y="1081.2121212121212" type="line"/>
    </contour>
  </outline>
</glyph>
<glyph name="j" format="2">
  <advance width="394.1212121212121"/>
  <unicode hex="006A"/>
  <anchor x="196.9090909090909" y="1202.8181818181818" name="_top"/>
  <anchor x="196.9090909090909" y="1202.8181818181818" name="top"/>
  <outline>
    <contour>
      <point x="37.24242424242424" y="-460.969696969697" type="line"/>
      <point x="179.22727272727272" y="-258.93939393939394"/>
      <point x="241.33333333333334" y="-90.63636363636364"/>
      <point x="241.33333333333334" y="175.8030303030303" type="curve" smooth="yes"/>
      <point x="241.33333333333334" y="1081.2121212121212" type="line"/>
      <point x="152.78787878787878" y="1081.2121212121212" type="line"/>
      <point x="152.78787878787878" y="166.84848484848484" type="line" smooth="yes"/>
      <point x="152.78787878787878" y="-75.78787878787878"/>
      <point x="100.15151515151516" y="-233.72727272727272"/>
      <point x="-25.257575757575758" y="-418.0151515151515" type="curve"/>
    </contour>
    <contour>
      <point x="196.9090909090909" y="1353.6666666666667" type="curve" smooth="yes"/>
      <point x="240.96969696969697" y="1353.6666666666667"/>
      <point x="269.93939393939394" y="1380.878787878788"/>
      <point x="269.93939393939394" y="1424.5757575757575" type="curve" smooth="yes"/>
      <point x="269.93939393939394" y="1468.2727272727273"/>
      <point x="240.96969696969697" y="1497.3636363636363"/>
      <point x="196.9090909090909" y="1497.3636363636363" type="curve" smooth="yes"/>
      <point x="152.84848484848484" y="1497.3636363636363"/>
      <point x="123.87878787878788" y="1468.2727272727273"/>
      <point x="123.87878787878788" y="1424.5757575757575" type="curve" smooth="yes"/>
      <point x="123.87878787878788" y="1380.878787878788"/>
      <point x="152.84848484848484" y="1353.6666666666667"/>
    </contour>
  </outline>
</glyph>
<glyph name="k" format="2">
  <advance width="911.8939393939394"/>
  <unicode hex="006B"/>
  <anchor x="498.74242424242425" y="0.0" name="bottom"/>
  <anchor x="197.06060606060606" y="1616.0" name="top"/>
  <outline>
    <contour>
      <point x="827.0454545454545" y="0.0" type="line"/>
      <point x="932.7878787878788" y="0.0" type="line"/>
      <point x="490.969696969697" y="567.469696969697" type="line"/>
      <point x="490.969696969697" y="539.1969696969697" type="line"/>
      <point x="900.5151515151515" y="1081.2121212121212" type="line"/>
      <point x="796.7878787878788" y="1081.2121212121212" type="line"/>
      <point x="395.6515151515151" y="552.8484848484849" type="line"/>
    </contour>
    <contour>
      <point x="224.27272727272728" y="513.1515151515151" type="line"/>
      <point x="442.8181818181818" y="513.1515151515151" type="line"/>
      <point x="442.8181818181818" y="592.5454545454545" type="line"/>
      <point x="224.27272727272728" y="592.5454545454545" type="line"/>
    </contour>
    <contour>
      <point x="152.78787878787878" y="0.0" type="line"/>
      <point x="241.24242424242425" y="0.0" type="line"/>
      <point x="241.24242424242425" y="1616.0" type="line"/>
      <point x="152.78787878787878" y="1616.0" type="line"/>
    </contour>
  </outline>
</glyph>
<glyph name="l" format="2">
  <advance width="394.030303030303"/>
  <unicode hex="006C"/>
  <anchor x="197.03030303030303" y="0.0" name="bottom"/>
  <anchor x="349.72727272727275" y="1616.0" name="caronalt"/>
  <anchor x="396.5" y="794.0" name="periodcentered"/>
  <anchor x="197.06060606060606" y="714.0" name="slash"/>
  <anchor x="197.06060606060606" y="1616.0" name="top"/>
  <outline>
    <contour>
      <point x="152.78787878787878" y="0.0" type="line"/>
      <point x="241.24242424242425" y="0.0" type="line"/>
      <point x="241.24242424242425" y="1616.0" type="line"/>
      <point x="152.78787878787878" y="1616.0" type="line"/>
    </contour>
  </outline>
</glyph>
<glyph name="m" format="2">
  <advance width="1553.8181818181818"/>
  <unicode hex="006D"/>
  <anchor x="785.2727272727273" y="0.0" name="bottom"/>
  <anchor x="785.2727272727273" y="1200.0" name="top"/>
  <outline>
    <contour>
      <point x="152.78787878787878" y="0.0" type="line"/>
      <point x="241.24242424242425" y="0.0" type="line"/>
      <point x="241.24242424242425" y="837.8636363636364" type="line"/>
      <point x="316.3787878787879" y="969.1666666666666"/>
      <point x="438.6969696969697" y="1013.969696969697"/>
      <point x="529.0151515151515" y="1013.969696969697" type="curve" smooth="yes"/>
      <point x="653.3484848484849" y="1013.969696969697"/>
      <point x="741.2424242424242" y="949.0151515151515"/>
      <point x="741.2424242424242" y="748.1212121212121" type="curve" smooth="yes"/>
      <point x="741.2424242424242" y="0.0" type="line"/>
      <point x="829.1818181818181" y="0.0" type="line"/>
      <point x="829.1818181818181" y="751.1666666666666" type="line" smooth="yes"/>
      <point x="829.1818181818181" y="1011.4242424242424"/>
      <point x="707.1969696969697" y="1097.3333333333333"/>
      <point x="545.3333333333334" y="1097.3333333333333" type="curve" smooth="yes"/>
      <point x="433.57575757575756" y="1097.3333333333333"/>
      <point x="326.54545454545456" y="1051.4848484848485"/>
      <point x="245.3030303030303" y="954.4242424242424" type="curve"/>
      <point x="236.75757575757575" y="954.4242424242424" type="line"/>
      <point x="229.42424242424244" y="1081.2121212121212" type="line"/>
      <point x="152.78787878787878" y="1081.2121212121212" type="line"/>
    </contour>
    <contour>
      <point x="1324.1818181818182" y="0.0" type="line"/>
      <point x="1412.6060606060605" y="0.0" type="line"/>
      <point x="1412.6060606060605" y="749.9848484848485" type="line" smooth="yes"/>
      <point x="1412.6060606060605" y="1011.2424242424242"/>
      <point x="1285.0" y="1097.3333333333333"/>
      <point x="1120.4545454545455" y="1097.3333333333333" type="curve" smooth="yes"/>
      <point x="1009.6363636363636" y="1097.3333333333333"/>
      <point x="877.5454545454545" y="1051.3484848484848"/>
      <point x="777.3787878787879" y="905.9242424242424" type="curve"/>
      <point x="807.0454545454545" y="812.5" type="line"/>
      <point x="882.8333333333334" y="969.1666666666666"/>
      <point x="1016.9242424242424" y="1013.969696969697"/>
      <point x="1107.4242424242425" y="1013.969696969697" type="curve" smooth="yes"/>
      <point x="1232.1969696969697" y="1013.969696969697"/>
      <point x="1324.1818181818182" y="949.0151515151515"/>
      <point x="1324.1818181818182" y="748.1212121212121" type="curve" smooth="yes"/>
    </contour>
  </outline>
</glyph>
<glyph name="n" format="2">
  <advance width="1019.439393939394"/>
  <unicode hex="006E"/>
  <anchor x="11.43939393939394" y="1200.0" name="apostrophe"/>
  <anchor x="515.8030303030303" y="0.0" name="bottom"/>
  <anchor x="515.8030303030303" y="1200.0" name="top"/>
  <outline>
    <contour>
      <point x="152.78787878787878" y="0.0" type="line"/>
      <point x="241.24242424242425" y="0.0" type="line"/>
      <point x="241.24242424242425" y="843.5" type="line"/>
      <point x="322.6969696969697" y="971.0454545454545"/>
      <point x="456.8484848484849" y="1013.969696969697"/>
      <point x="555.4545454545455" y="1013.969696969697" type="curve" smooth="yes"/>
      <point x="696.969696969697" y="1013.969696969697"/>
      <point x="789.7727272727273" y="948.0757575757576"/>
      <point x="789.7727272727273" y="749.8181818181819" type="curve" smooth="yes"/>
      <point x="789.7727272727273" y="0.0" type="line"/>
      <point x="878.2272727272727" y="0.0" type="line"/>
      <point x="878.2272727272727" y="752.5151515151515" type="line" smooth="yes"/>
      <point x="878.2272727272727" y="1010.6818181818181"/>
      <point x="746.9242424242424" y="1097.3333333333333"/>
      <point x="567.0" y="1097.3333333333333" type="curve" smooth="yes"/>
      <point x="441.42424242424244" y="1097.3333333333333"/>
      <point x="327.95454545454544" y="1045.8484848484848"/>
      <point x="245.3030303030303" y="955.8333333333334" type="curve"/>
      <point x="236.75757575757575" y="955.8333333333334" type="line"/>
      <point x="229.42424242424244" y="1081.2121212121212" type="line"/>
      <point x="152.78787878787878" y="1081.2121212121212" type="line"/>
    </contour>
  </outline>
</glyph>
<glyph name="p" format="2">
  <advance width="1005.1060606060606"/>
  <unicode hex="0070"/>
  <outline>
    <contour>
      <point x="152.78787878787878" y="-440.0" type="line"/>
      <point x="241.24242424242425" y="-440.0" type="line"/>
      <point x="241.24242424242425" y="-5.348484848484849" type="line"/>
      <point x="293.0" y="-12.454545454545455"/>
      <point x="356.56060606060606" y="-18.151515151515152"/>
      <point x="413.6363636363636" y="-18.151515151515152" type="curve" smooth="yes"/>
      <point x="735.0151515151515" y="-18.151515151515152"/>
      <point x="910.2272727272727" y="160.65151515151516"/>
      <point x="910.2272727272727" y="560.5757575757576" type="curve" smooth="yes"/>
      <point x="910.2272727272727" y="967.969696969697"/>
      <point x="733.1818181818182" y="1097.3333333333333"/>
      <point x="521.3030303030303" y="1097.3333333333333" type="curve" smooth="yes"/>
      <point x="399.3939393939394" y="1097.3333333333333"/>
      <point x="302.1515151515151" y="1040.1060606060605"/>
      <point x="245.54545454545456" y="966.4090909090909" type="curve"/>
      <point x="237.46969696969697" y="966.4090909090909" type="line"/>
      <point x="229.8181818181818" y="1081.2121212121212" type="line"/>
      <point x="152.78787878787878" y="1081.2121212121212" type="line"/>
    </contour>
    <contour>
      <point x="416.92424242424244" y="62.303030303030305" type="curve" smooth="yes"/>
      <point x="358.3787878787879" y="62.303030303030305"/>
      <point x="287.6060606060606" y="69.53030303030303"/>
      <point x="241.24242424242425" y="80.04545454545455" type="curve"/>
      <point x="241.24242424242425" y="859.0151515151515" type="line"/>
      <point x="302.06060606060606" y="965.2878787878788"/>
      <point x="408.6363636363636" y="1015.1818181818181"/>
      <point x="510.8939393939394" y="1015.1818181818181" type="curve" smooth="yes"/>
      <point x="684.1212121212121" y="1015.1818181818181"/>
      <point x="817.7424242424242" y="921.560606060606"/>
      <point x="817.7424242424242" y="551.060606060606" type="curve" smooth="yes"/>
      <point x="817.7424242424242" y="200.24242424242425"/>
      <point x="678.3333333333334" y="62.303030303030305"/>
    </contour>
  </outline>
</glyph>
<glyph name="q" format="2">
  <advance width="1005.1060606060606"/>
  <unicode hex="0071"/>
  <outline>
    <contour>
      <point x="763.8636363636364" y="-440.0" type="line"/>
      <point x="852.3181818181818" y="-440.0" type="line"/>
      <point x="852.3181818181818" y="1056.6060606060605" type="line"/>
      <point x="778.8939393939394" y="1080.909090909091"/>
      <point x="675.2424242424242" y="1097.3333333333333"/>
      <point x="585.1060606060606" y="1097.3333333333333" type="curve" smooth="yes"/>
      <point x="271.40909090909093" y="1097.3333333333333"/>
      <point x="94.87878787878788" y="918.7121212121212"/>
      <point x="94.87878787878788" y="518.6060606060606" type="curve" smooth="yes"/>
      <point x="94.87878787878788" y="111.57575757575758"/>
      <point x="270.4848484848485" y="-18.151515151515152"/>
      <point x="477.3484848484849" y="-18.151515151515152" type="curve" smooth="yes"/>
      <point x="603.2575757575758" y="-18.151515151515152"/>
      <point x="699.939393939394" y="38.53030303030303"/>
      <point x="757.1060606060606" y="106.4090909090909" type="curve"/>
      <point x="763.8636363636364" y="106.4090909090909" type="line"/>
    </contour>
    <contour>
      <point x="491.5" y="64.0909090909091" type="curve" smooth="yes"/>
      <point x="320.95454545454544" y="64.0909090909091"/>
      <point x="187.36363636363637" y="157.71212121212122"/>
      <point x="187.36363636363637" y="528.1515151515151" type="curve" smooth="yes"/>
      <point x="187.36363636363637" y="878.969696969697"/>
      <point x="327.07575757575756" y="1016.9090909090909"/>
      <point x="581.0454545454545" y="1016.9090909090909" type="curve" smooth="yes"/>
      <point x="646.939393939394" y="1016.9090909090909"/>
      <point x="717.5" y="1006.3939393939394"/>
      <point x="763.8636363636364" y="994.439393939394" type="curve"/>
      <point x="763.8636363636364" y="214.1060606060606" type="line"/>
      <point x="703.0757575757576" y="113.77272727272727"/>
      <point x="595.3333333333334" y="64.0909090909091"/>
    </contour>
  </outline>
</glyph>
<glyph name="v" format="2">
  <advance width="939.7424242424242"/>
  <unicode hex="0076"/>
  <anchor x="471.04545454545456" y="0.0" name="bottom"/>
  <anchor x="471.04545454545456" y="1200.0" name="top"/>
  <outline>
    <contour>
      <point x="410.3484848484849" y="0.0" type="line"/>
      <point x="529.3636363636364" y="0.0" type="line"/>
      <point x="923.030303030303" y="1081.2121212121212" type="line"/>
      <point x="828.9242424242424" y="1081.2121212121212" type="line"/>
      <point x="461.0" y="52.93939393939394" type="line"/>
      <point x="481.42424242424244" y="52.93939393939394" type="line"/>
      <point x="113.5" y="1081.2121212121212" type="line"/>
      <point x="16.71212121212121" y="1081.2121212121212" type="line"/>
    </contour>
  </outline>
</glyph>
<glyph name="w" format="2">
  <advance width="1547.6969696969697"/>
  <unicode hex="0077"/>
  <anchor x="774.3787878787879" y="0.0" name="bottom"/>
  <anchor x="775.7878787878788" y="1200.0" name="top"/>
  <outline>
    <contour>
      <point x="366.04545454545456" y="0.0" type="line"/>
      <point x="480.77272727272725" y="0.0" type="line"/>
      <point x="782.7121212121212" y="1014.3030303030303" type="line"/>
      <point x="766.9090909090909" y="1014.3030303030303" type="line"/>
      <point x="1067.5151515151515" y="0.0" type="line"/>
      <point x="1182.2424242424242" y="0.0" type="line"/>
      <point x="1489.3030303030303" y="1081.2121212121212" type="line"/>
      <point x="1401.1969696969697" y="1081.2121212121212" type="line"/>
      <point x="1116.5757575757575" y="63.18181818181819" type="line"/>
      <point x="1133.0" y="63.18181818181819" type="line"/>
      <point x="832.7575757575758" y="1081.2121212121212" type="line"/>
      <point x="718.030303030303" y="1081.2121212121212" type="line"/>
      <point x="417.92424242424244" y="63.121212121212125" type="line"/>
      <point x="433.8333333333333" y="63.121212121212125" type="line"/>
      <point x="149.3181818181818" y="1081.2121212121212" type="line"/>
      <point x="58.39393939393939" y="1081.2121212121212" type="line"/>
    </contour>
  </outline>
</glyph>
<glyph name="x" format="2">
  <advance width="879.530303030303"/>
  <unicode hex="0078"/>
  <anchor x="440.93939393939394" y="0.0" name="bottom"/>
  <anchor x="441.030303030303" y="1200.0" name="top"/>
  <outline>
    <contour>
      <point x="758.0151515151515" y="0.0" type="line"/>
      <point x="862.6212121212121" y="0.0" type="line"/>
      <point x="492.5" y="546.7575757575758" type="line"/>
      <point x="441.2121212121212" y="618.2575757575758" type="line"/>
      <point x="129.57575757575756" y="1081.2121212121212" type="line"/>
      <point x="24.96969696969697" y="1081.2121212121212" type="line"/>
      <point x="387.3484848484849" y="544.6060606060606" type="line"/>
      <point x="438.9090909090909" y="474.6969696969697" type="line"/>
    </contour>
    <contour>
      <point x="19.40909090909091" y="0.0" type="line"/>
      <point x="121.84848484848484" y="0.0" type="line"/>
      <point x="438.9090909090909" y="474.6969696969697" type="line"/>
      <point x="492.5" y="546.7575757575758" type="line"/>
      <point x="854.7272727272727" y="1081.2121212121212" type="line"/>
      <point x="753.2272727272727" y="1081.2121212121212" type="line"/>
      <point x="441.2121212121212" y="618.2575757575758" type="line"/>
      <point x="387.3484848484849" y="544.6060606060606" type="line"/>
    </contour>
  </outline>
</glyph>
<glyph name="y" format="2">
  <advance width="939.7424242424242"/>
  <unicode hex="0079"/>
  <anchor x="699.9545454545455" y="0.0" name="bottom"/>
  <anchor x="471.04545454545456" y="1200.0" name="top"/>
  <outline>
    <contour>
      <point x="278.07575757575756" y="-440.0" type="line"/>
      <point x="369.6515151515151" y="-440.0" type="line"/>
      <point x="923.030303030303" y="1081.2121212121212" type="line"/>
      <point x="828.9242424242424" y="1081.2121212121212" type="line"/>
      <point x="461.0" y="52.93939393939394" type="line"/>
      <point x="439.22727272727275" y="0.0" type="line"/>
    </contour>
    <contour>
      <point x="410.3484848484849" y="0.0" type="line"/>
      <point x="498.22727272727275" y="0.0" type="line"/>
      <point x="113.5" y="1081.2121212121212" type="line"/>
      <point x="16.71212121212121" y="1081.2121212121212" type="line"/>
    </contour>
  </outline>
</glyph>
<glyph name="braceleft" format="2">
  <advance width="633.7575757575758"/>
  <unicode hex="007B"/>
  <outline>
    <contour>
      <point x="548.8787878787879" y="-460.0" type="curve" smooth="yes"/>
      <point x="594.6666666666666" y="-460.0"/>
      <point x="641.5454545454545" y="-455.8787878787879"/>
      <point x="673.030303030303" y="-449.75757575757575" type="curve"/>
      <point x="673.030303030303" y="-378.54545454545456" type="line"/>
      <point x="549.5454545454545" y="-378.54545454545456" type="line" smooth="yes"/>
      <point x="395.6515151515151" y="-378.54545454545456"/>
      <point x="320.6969696969697" y="-309.8030303030303"/>
      <point x="320.6969696969697" y="-155.6818181818182" type="curve" smooth="yes"/>
      <point x="320.6969696969697" y="400.8484848484849" type="line" smooth="yes"/>
      <point x="320.6969696969697" y="531.0909090909091"/>
      <point x="271.3030303030303" y="605.2727272727273"/>
      <point x="163.96969696969697" y="629.6969696969697" type="curve"/>
      <point x="163.96969696969697" y="615.5151515151515" type="line"/>
      <point x="271.3030303030303" y="639.939393939394"/>
      <point x="320.6969696969697" y="714.1212121212121"/>
      <point x="320.6969696969697" y="844.3636363636364" type="curve" smooth="yes"/>
      <point x="320.6969696969697" y="1331.6818181818182" type="line" smooth="yes"/>
      <point x="320.6969696969697" y="1485.8030303030303"/>
      <point x="395.6515151515151" y="1554.5454545454545"/>
      <point x="549.5454545454545" y="1554.5454545454545" type="curve" smooth="yes"/>
      <point x="673.030303030303" y="1554.5454545454545" type="line"/>
      <point x="673.030303030303" y="1625.7575757575758" type="line"/>
      <point x="641.5454545454545" y="1631.878787878788"/>
      <point x="594.6666666666666" y="1636.0"/>
      <point x="548.8787878787879" y="1636.0" type="curve" smooth="yes"/>
      <point x="339.75757575757575" y="1636.0"/>
      <point x="232.24242424242425" y="1532.1060606060605"/>
      <point x="232.24242424242425" y="1325.0" type="curve" smooth="yes"/>
      <point x="232.24242424242425" y="838.5757575757576" type="line" smooth="yes"/>
      <point x="232.24242424242425" y="715.4848484848485"/>
      <point x="171.45454545454544" y="662.2121212121212"/>
      <point x="57.75757575757576" y="662.2121212121212" type="curve" smooth="yes"/>
      <point x="44.89393939393939" y="662.2121212121212" type="line"/>
      <point x="44.89393939393939" y="583.0" type="line"/>
      <point x="57.75757575757576" y="583.0" type="line" smooth="yes"/>
      <point x="171.45454545454544" y="583.0"/>
      <point x="232.24242424242425" y="529.7272727272727"/>
      <point x="232.24242424242425" y="406.6363636363636" type="curve" smooth="yes"/>
      <point x="232.24242424242425" y="-149.0" type="line" smooth="yes"/>
      <point x="232.24242424242425" y="-356.1060606060606"/>
      <point x="339.75757575757575" y="-460.0"/>
    </contour>
  </outline>
</glyph>
<glyph name="bar" format="2">
  <advance width="430.1818181818182"/>
  <unicode hex="007C"/>
  <outline>
    <contour>
      <point x="172.24242424242425" y="-440.0" type="line"/>
      <point x="257.93939393939394" y="-440.0" type="line"/>
      <point x="257.93939393939394" y="1616.0" type="line"/>
      <point x="172.24242424242425" y="1616.0" type="line"/>
    </contour>
  </outline>
</glyph>
<glyph name="braceright" format="2">
  <advance width="633.7575757575758"/>
  <unicode hex="007D"/>
  <outline>
    <contour>
      <point x="84.87878787878788" y="-460.0" type="curve" smooth="yes"/>
      <point x="294.0" y="-460.0"/>
      <point x="401.5151515151515" y="-356.1060606060606"/>
      <point x="401.5151515151515" y="-149.0" type="curve" smooth="yes"/>
      <point x="401.5151515151515" y="406.6363636363636" type="line" smooth="yes"/>
      <point x="401.5151515151515" y="529.7272727272727"/>
      <point x="462.3030303030303" y="583.0"/>
      <point x="576.0" y="583.0" type="curve" smooth="yes"/>
      <point x="588.8636363636364" y="583.0" type="line"/>
      <point x="588.8636363636364" y="662.2121212121212" type="line"/>
      <point x="576.0" y="662.2121212121212" type="line" smooth="yes"/>
      <point x="462.3030303030303" y="662.2121212121212"/>
      <point x="401.5151515151515" y="715.4848484848485"/>
      <point x="401.5151515151515" y="838.5757575757576" type="curve" smooth="yes"/>
      <point x="401.5151515151515" y="1325.0" type="line" smooth="yes"/>
      <point x="401.5151515151515" y="1532.1060606060605"/>
      <point x="294.0" y="1636.0"/>
      <point x="84.87878787878788" y="1636.0" type="curve" smooth="yes"/>
      <point x="39.09090909090909" y="1636.0"/>
      <point x="-7.787878787878788" y="1631.878787878788"/>
      <point x="-39.27272727272727" y="1625.7575757575758" type="curve"/>
      <point x="-39.27272727272727" y="1554.5454545454545" type="line"/>
      <point x="84.21212121212122" y="1554.5454545454545" type="line" smooth="yes"/>
      <point x="238.1060606060606" y="1554.5454545454545"/>
      <point x="313.06060606060606" y="1485.8030303030303"/>
      <point x="313.06060606060606" y="1331.6818181818182" type="curve" smooth="yes"/>
      <point x="313.06060606060606" y="844.3636363636364" type="line" smooth="yes"/>
      <point x="313.06060606060606" y="714.1212121212121"/>
      <point x="362.72727272727275" y="639.939393939394"/>
      <point x="469.78787878787875" y="615.5151515151515" type="curve"/>
      <point x="469.78787878787875" y="629.6969696969697" type="line"/>
      <point x="362.72727272727275" y="605.2727272727273"/>
      <point x="313.06060606060606" y="531.0909090909091"/>
      <point x="313.06060606060606" y="400.8484848484849" type="curve" smooth="yes"/>
      <point x="313.06060606060606" y="-155.6818181818182" type="line" smooth="yes"/>
      <point x="313.06060606060606" y="-309.8030303030303"/>
      <point x="238.1060606060606" y="-378.54545454545456"/>
      <point x="84.21212121212122" y="-378.54545454545456" type="curve" smooth="yes"/>
      <point x="-39.27272727272727" y="-378.54545454545456" type="line"/>
      <point x="-39.27272727272727" y="-449.75757575757575" type="line"/>
      <point x="-7.787878787878788" y="-455.8787878787879"/>
      <point x="39.09090909090909" y="-460.0"/>
    </contour>
  </outline>
</glyph>
<glyph name="asciitilde" format="2">
  <advance width="1041.2424242424242"/>
  <unicode hex="007E"/>
  <outline>
    <contour>
      <point x="694.3787878787879" y="657.030303030303" type="curve" smooth="yes"/>
      <point x="774.2272727272727" y="657.030303030303"/>
      <point x="844.469696969697" y="688.9090909090909"/>
      <point x="889.8939393939394" y="747.7575757575758" type="curve"/>
      <point x="889.8939393939394" y="843.6969696969697" type="line"/>
      <point x="834.3181818181819" y="771.3333333333334"/>
      <point x="769.8636363636364" y="735.5757575757576"/>
      <point x="692.7424242424242" y="735.5757575757576" type="curve" smooth="yes"/>
      <point x="587.2272727272727" y="735.5757575757576"/>
      <point x="480.56060606060606" y="851.6969696969697"/>
      <point x="346.8636363636364" y="851.6969696969697" type="curve" smooth="yes"/>
      <point x="267.0151515151515" y="851.6969696969697"/>
      <point x="196.77272727272728" y="819.8181818181819"/>
      <point x="151.34848484848484" y="760.969696969697" type="curve"/>
      <point x="151.34848484848484" y="665.030303030303" type="line"/>
      <point x="206.92424242424244" y="737.3939393939394"/>
      <point x="271.3787878787879" y="773.1515151515151"/>
      <point x="348.5" y="773.1515151515151" type="curve" smooth="yes"/>
      <point x="454.0151515151515" y="773.1515151515151"/>
      <point x="560.6818181818181" y="657.030303030303"/>
    </contour>
  </outline>
</glyph>
<glyph name="exclamdown" format="2">
  <advance width="435.06060606060606"/>
  <unicode hex="00A1"/>
  <outline>
    <contour>
      <point x="187.65151515151516" y="750.969696969697" type="line"/>
      <point x="170.56060606060606" y="184.21212121212122" type="line"/>
      <point x="170.56060606060606" y="-380.0" type="line"/>
      <point x="264.5" y="-380.0" type="line"/>
      <point x="264.5" y="184.21212121212122" type="line"/>
      <point x="247.6818181818182" y="750.969696969697" type="line"/>
    </contour>
    <contour>
      <point x="217.53030303030303" y="1091.8181818181818" type="curve" smooth="yes"/>
      <point x="174.4090909090909" y="1091.8181818181818"/>
      <point x="143.71212121212122" y="1063.6060606060605"/>
      <point x="143.71212121212122" y="1018.6969696969697" type="curve" smooth="yes"/>
      <point x="143.71212121212122" y="973.7878787878788"/>
      <point x="174.16666666666666" y="943.6969696969697"/>
      <point x="217.53030303030303" y="943.6969696969697" type="curve" smooth="yes"/>
      <point x="260.8939393939394" y="943.6969696969697"/>
      <point x="291.3484848484849" y="974.030303030303"/>
      <point x="291.3484848484849" y="1018.6969696969697" type="curve" smooth="yes"/>
      <point x="291.3484848484849" y="1063.3636363636363"/>
      <point x="260.6515151515151" y="1091.8181818181818"/>
    </contour>
  </outline>
</glyph>
<glyph name="cent" format="2">
  <advance width="773.8939393939394"/>
  <unicode hex="00A2"/>
  <outline>
    <contour>
      <point x="510.24242424242425" y="-18.242424242424242" type="curve" smooth="yes"/>
      <point x="587.6818181818181" y="-18.242424242424242"/>
      <point x="666.2727272727273" y="-4.742424242424242"/>
      <point x="748.3787878787879" y="24.893939393939394" type="curve"/>
      <point x="748.3787878787879" y="108.22727272727273" type="line"/>
      <point x="658.469696969697" y="76.51515151515152"/>
      <point x="585.5909090909091" y="63.696969696969695"/>
      <point x="522.0151515151515" y="63.696969696969695" type="curve" smooth="yes"/>
      <point x="303.04545454545456" y="63.696969696969695"/>
      <point x="187.93939393939394" y="181.71212121212122"/>
      <point x="187.93939393939394" y="544.4848484848485" type="curve" smooth="yes"/>
      <point x="187.93939393939394" y="901.6818181818181"/>
      <point x="309.93939393939394" y="1015.3939393939394"/>
      <point x="557.2272727272727" y="1015.3939393939394" type="curve" smooth="yes"/>
      <point x="613.1363636363636" y="1015.3939393939394"/>
      <point x="679.3181818181819" y="1007.5757575757576"/>
      <point x="748.3787878787879" y="988.7727272727273" type="curve"/>
      <point x="748.3787878787879" y="1072.1060606060605" type="line"/>
      <point x="683.9545454545455" y="1089.8636363636363"/>
      <point x="617.4090909090909" y="1097.3333333333333"/>
      <point x="556.3333333333334" y="1097.3333333333333" type="curve" smooth="yes"/>
      <point x="256.3636363636364" y="1097.3333333333333"/>
      <point x="94.87878787878788" y="945.6666666666666"/>
      <point x="94.87878787878788" y="540.4545454545455" type="curve" smooth="yes"/>
      <point x="94.87878787878788" y="135.4090909090909"/>
      <point x="244.0151515151515" y="-18.242424242424242"/>
    </contour>
    <contour>
      <point x="467.57575757575756" y="-240.0" type="line"/>
      <point x="548.3030303030303" y="-240.0" type="line"/>
      <point x="548.3030303030303" y="3.6363636363636367" type="line"/>
      <point x="467.57575757575756" y="3.6363636363636367" type="line"/>
    </contour>
    <contour>
      <point x="467.57575757575756" y="1077.5757575757575" type="line"/>
      <point x="548.3030303030303" y="1077.5757575757575" type="line"/>
      <point x="548.3030303030303" y="1321.2121212121212" type="line"/>
      <point x="467.57575757575756" y="1321.2121212121212" type="line"/>
    </contour>
  </outline>
</glyph>
<glyph name="sterling" format="2">
  <advance width="1145.030303030303"/>
  <unicode hex="00A3"/>
  <outline>
    <contour>
      <point x="296.6969696969697" y="37.57575757575758" type="line"/>
      <point x="385.0" y="37.57575757575758" type="line"/>
      <point x="385.0" y="1076.3939393939395" type="line" smooth="yes"/>
      <point x="385.0" y="1318.378787878788"/>
      <point x="515.0757575757576" y="1415.7272727272727"/>
      <point x="766.030303030303" y="1415.7272727272727" type="curve" smooth="yes"/>
      <point x="859.969696969697" y="1415.7272727272727"/>
      <point x="952.1060606060606" y="1403.6060606060605"/>
      <point x="1046.969696969697" y="1373.621212121212" type="curve"/>
      <point x="1046.969696969697" y="1457.8939393939395" type="line"/>
      <point x="966.8636363636364" y="1484.530303030303"/>
      <point x="859.6363636363636" y="1498.121212121212"/>
      <point x="766.2878787878788" y="1498.121212121212" type="curve" smooth="yes"/>
      <point x="461.6060606060606" y="1498.121212121212"/>
      <point x="296.6969696969697" y="1361.060606060606"/>
      <point x="296.6969696969697" y="1075.5454545454545" type="curve" smooth="yes"/>
    </contour>
    <contour>
      <point x="78.78787878787878" y="0.0" type="line"/>
      <point x="1081.3636363636363" y="0.0" type="line"/>
      <point x="1081.3636363636363" y="80.60606060606061" type="line"/>
      <point x="78.78787878787878" y="80.60606060606061" type="line"/>
    </contour>
    <contour>
      <point x="78.78787878787878" y="710.6969696969697" type="line"/>
      <point x="890.4545454545455" y="710.6969696969697" type="line"/>
      <point x="890.4545454545455" y="789.3030303030303" type="line"/>
      <point x="78.78787878787878" y="789.3030303030303" type="line"/>
    </contour>
  </outline>
</glyph>
<glyph name="yen" format="2">
  <advance width="1110.3939393939395"/>
  <unicode hex="00A5"/>
  <outline>
    <contour>
      <point x="510.8484848484849" y="0.0" type="line"/>
      <point x="599.7575757575758" y="0.0" type="line"/>
      <point x="599.7575757575758" y="711.3787878787879" type="line"/>
      <point x="578.7575757575758" y="640.4545454545455" type="line"/>
      <point x="1104.1666666666667" y="1480.0" type="line"/>
      <point x="1006.7121212121212" y="1480.0" type="line"/>
      <point x="538.6060606060606" y="731.0" type="line"/>
      <point x="574.2727272727273" y="731.0" type="line"/>
      <point x="107.51515151515152" y="1480.0" type="line"/>
      <point x="5.651515151515151" y="1480.0" type="line"/>
      <point x="531.8484848484849" y="640.4545454545455" type="line"/>
      <point x="510.8484848484849" y="711.7424242424242" type="line"/>
    </contour>
    <contour>
      <point x="201.45454545454547" y="315.42424242424244" type="line"/>
      <point x="909.1515151515151" y="315.42424242424244" type="line"/>
      <point x="909.1515151515151" y="389.969696969697" type="line"/>
      <point x="201.45454545454547" y="389.969696969697" type="line"/>
    </contour>
    <contour>
      <point x="201.45454545454547" y="658.030303030303" type="line"/>
      <point x="909.1515151515151" y="658.030303030303" type="line"/>
      <point x="909.1515151515151" y="732.5757575757576" type="line"/>
      <point x="201.45454545454547" y="732.5757575757576" type="line"/>
    </contour>
  </outline>
</glyph>
<glyph name="brokenbar" format="2">
  <advance width="430.1818181818182"/>
  <unicode hex="00A6"/>
  <outline>
    <contour>
      <point x="172.24242424242425" y="836.0" type="line"/>
      <point x="257.93939393939394" y="836.0" type="line"/>
      <point x="257.93939393939394" y="1616.0" type="line"/>
      <point x="172.24242424242425" y="1616.0" type="line"/>
    </contour>
    <contour>
      <point x="172.24242424242425" y="-440.0" type="line"/>
      <point x="257.93939393939394" y="-440.0" type="line"/>
      <point x="257.93939393939394" y="340.0" type="line"/>
      <point x="172.24242424242425" y="340.0" type="line"/>
    </contour>
  </outline>
</glyph>
<glyph name="section" format="2">
  <advance width="899.3939393939394"/>
  <unicode hex="00A7"/>
  <outline>
    <contour>
      <point x="389.8484848484849" y="-18.242424242424242" type="curve" smooth="yes"/>
      <point x="631.4848484848485" y="-18.242424242424242"/>
      <point x="761.0" y="95.57575757575758"/>
      <point x="761.0" y="282.8484848484849" type="curve" smooth="yes"/>
      <point x="761.0" y="426.969696969697"/>
      <point x="696.5454545454545" y="519.2727272727273"/>
      <point x="500.8939393939394" y="568.4545454545455" type="curve" smooth="yes"/>
      <point x="383.5151515151515" y="596.6666666666666" type="line" smooth="yes"/>
      <point x="253.96969696969697" y="628.9545454545455"/>
      <point x="198.8939393939394" y="696.3181818181819"/>
      <point x="198.8939393939394" y="804.5151515151515" type="curve" smooth="yes"/>
      <point x="198.8939393939394" y="875.6666666666666"/>
      <point x="231.8939393939394" y="937.6060606060606"/>
      <point x="297.22727272727275" y="978.6212121212121" type="curve"/>
      <point x="236.93939393939394" y="1027.7272727272727" type="line"/>
      <point x="161.6818181818182" y="974.6515151515151"/>
      <point x="116.66666666666667" y="894.1666666666666"/>
      <point x="116.66666666666667" y="800.1060606060606" type="curve" smooth="yes"/>
      <point x="116.66666666666667" y="656.1363636363636"/>
      <point x="184.8030303030303" y="561.7272727272727"/>
      <point x="369.59090909090907" y="515.5757575757576" type="curve" smooth="yes"/>
      <point x="486.93939393939394" y="487.3030303030303" type="line" smooth="yes"/>
      <point x="614.0" y="455.3787878787879"/>
      <point x="672.6818181818181" y="399.1969696969697"/>
      <point x="672.6818181818181" y="276.90909090909093" type="curve" smooth="yes"/>
      <point x="672.6818181818181" y="138.63636363636363"/>
      <point x="579.3939393939394" y="60.96969696969697"/>
      <point x="390.95454545454544" y="60.96969696969697" type="curve" smooth="yes"/>
      <point x="309.6666666666667" y="60.96969696969697"/>
      <point x="233.27272727272728" y="72.62121212121212"/>
      <point x="136.24242424242425" y="102.37878787878788" type="curve"/>
      <point x="136.24242424242425" y="21.28787878787879" type="line"/>
      <point x="215.78787878787878" y="-4.7727272727272725"/>
      <point x="299.530303030303" y="-18.242424242424242"/>
    </contour>
    <contour>
      <point x="665.1515151515151" y="451.07575757575756" type="line"/>
      <point x="738.6060606060606" y="502.8636363636364"/>
      <point x="782.7272727272727" y="581.2424242424242"/>
      <point x="782.7272727272727" y="683.3030303030303" type="curve" smooth="yes"/>
      <point x="782.7272727272727" y="829.2727272727273"/>
      <point x="718.2727272727273" y="923.8181818181819"/>
      <point x="523.3787878787879" y="972.7575757575758" type="curve" smooth="yes"/>
      <point x="405.72727272727275" y="1000.9090909090909" type="line" smooth="yes"/>
      <point x="277.72727272727275" y="1032.8333333333333"/>
      <point x="226.4090909090909" y="1097.3484848484848"/>
      <point x="226.4090909090909" y="1204.4848484848485" type="curve" smooth="yes"/>
      <point x="226.4090909090909" y="1323.2575757575758"/>
      <point x="310.1060606060606" y="1416.909090909091"/>
      <point x="511.3787878787879" y="1416.909090909091" type="curve" smooth="yes"/>
      <point x="586.2424242424242" y="1416.909090909091"/>
      <point x="647.0151515151515" y="1409.909090909091"/>
      <point x="727.4545454545455" y="1389.1515151515152" type="curve"/>
      <point x="727.4545454545455" y="1470.2424242424242" type="line"/>
      <point x="658.8181818181818" y="1487.121212121212"/>
      <point x="590.0" y="1496.121212121212"/>
      <point x="509.530303030303" y="1496.121212121212" type="curve" smooth="yes"/>
      <point x="262.72727272727275" y="1496.121212121212"/>
      <point x="138.0909090909091" y="1369.909090909091"/>
      <point x="138.0909090909091" y="1199.9545454545455" type="curve" smooth="yes"/>
      <point x="138.0909090909091" y="1058.439393939394"/>
      <point x="206.1060606060606" y="966.060606060606"/>
      <point x="392.07575757575756" y="919.7575757575758" type="curve" smooth="yes"/>
      <point x="509.42424242424244" y="891.5454545454545" type="line" smooth="yes"/>
      <point x="638.030303030303" y="859.2575757575758"/>
      <point x="700.5" y="800.2272727272727"/>
      <point x="700.5" y="677.3333333333334" type="curve" smooth="yes"/>
      <point x="700.5" y="598.560606060606"/>
      <point x="667.560606060606" y="540.0909090909091"/>
      <point x="605.4090909090909" y="501.1212121212121" type="curve"/>
    </contour>
  </outline>
</glyph>
<glyph name="copyright" format="2">
  <advance width="1699.090909090909"/>
  <unicode hex="00A9"/>
  <outline>
    <contour>
      <point x="849.5454545454545" y="-22.0" type="curve" smooth="yes"/>
      <point x="1295.909090909091" y="-22.0"/>
      <point x="1593.909090909091" y="282.0"/>
      <point x="1593.909090909091" y="740.0" type="curve" smooth="yes"/>
      <point x="1593.909090909091" y="1198.0"/>
      <point x="1295.909090909091" y="1502.0"/>
      <point x="849.5454545454545" y="1502.0" type="curve" smooth="yes"/>
      <point x="403.1818181818182" y="1502.0"/>
      <point x="105.18181818181819" y="1198.0"/>
      <point x="105.18181818181819" y="740.0" type="curve" smooth="yes"/>
      <point x="105.18181818181819" y="282.0"/>
      <point x="403.1818181818182" y="-22.0"/>
    </contour>
    <contour>
      <point x="885.7272727272727" y="324.0" type="curve" smooth="yes"/>
      <point x="963.969696969697" y="324.0"/>
      <point x="1035.969696969697" y="336.0"/>
      <point x="1102.878787878788" y="365.27272727272725" type="curve"/>
      <point x="1102.878787878788" y="442.42424242424244" type="line"/>
      <point x="1021.1212121212121" y="411.27272727272725"/>
      <point x="950.939393939394" y="401.5151515151515"/>
      <point x="893.060606060606" y="401.5151515151515" type="curve" smooth="yes"/>
      <point x="702.1515151515151" y="401.5151515151515"/>
      <point x="583.7878787878788" y="508.1212121212121"/>
      <point x="583.7878787878788" y="737.6363636363636" type="curve" smooth="yes"/>
      <point x="583.7878787878788" y="961.6363636363636"/>
      <point x="701.7878787878788" y="1066.4848484848485"/>
      <point x="914.4545454545455" y="1066.4848484848485" type="curve" smooth="yes"/>
      <point x="983.6060606060606" y="1066.4848484848485"/>
      <point x="1041.0" y="1056.7272727272727"/>
      <point x="1102.878787878788" y="1039.2121212121212" type="curve"/>
      <point x="1102.878787878788" y="1116.3636363636363" type="line"/>
      <point x="1039.3636363636363" y="1136.0"/>
      <point x="979.2424242424242" y="1144.0"/>
      <point x="910.8787878787879" y="1144.0" type="curve" smooth="yes"/>
      <point x="645.9090909090909" y="1144.0"/>
      <point x="497.969696969697" y="995.7575757575758"/>
      <point x="497.969696969697" y="733.8787878787879" type="curve" smooth="yes"/>
      <point x="497.969696969697" y="462.72727272727275"/>
      <point x="653.1818181818181" y="324.0"/>
    </contour>
    <contour>
      <point x="849.5454545454545" y="54.72727272727273" type="curve" smooth="yes"/>
      <point x="447.6666666666667" y="54.72727272727273"/>
      <point x="182.5151515151515" y="326.72727272727275"/>
      <point x="182.5151515151515" y="740.0" type="curve" smooth="yes"/>
      <point x="182.5151515151515" y="1153.2727272727273"/>
      <point x="447.6666666666667" y="1425.2727272727273"/>
      <point x="849.5454545454545" y="1425.2727272727273" type="curve" smooth="yes"/>
      <point x="1251.4242424242425" y="1425.2727272727273"/>
      <point x="1516.5757575757575" y="1153.2727272727273"/>
      <point x="1516.5757575757575" y="740.0" type="curve" smooth="yes"/>
      <point x="1516.5757575757575" y="326.72727272727275"/>
      <point x="1251.4242424242425" y="54.72727272727273"/>
    </contour>
  </outline>
</glyph>
<glyph name="ordfeminine" format="2">
  <advance width="780.3636363636364"/>
  <unicode hex="00AA"/>
  <outline>
    <contour>
      <point x="326.1515151515151" y="595.7575757575758" type="curve" smooth="yes"/>
      <point x="428.56060606060606" y="595.7575757575758"/>
      <point x="521.1212121212121" y="635.8787878787879"/>
      <point x="580.030303030303" y="709.060606060606" type="curve"/>
      <point x="586.6666666666666" y="709.060606060606" type="line"/>
      <point x="593.939393939394" y="610.0" type="line"/>
      <point x="665.1818181818181" y="610.0" type="line"/>
      <point x="665.1818181818181" y="1199.7727272727273" type="line" smooth="yes"/>
      <point x="665.1818181818181" y="1420.3636363636363"/>
      <point x="558.3636363636364" y="1492.6060606060605"/>
      <point x="357.22727272727275" y="1492.6060606060605" type="curve" smooth="yes"/>
      <point x="281.24242424242425" y="1492.6060606060605"/>
      <point x="191.1969696969697" y="1478.7272727272727"/>
      <point x="122.5" y="1453.409090909091" type="curve"/>
      <point x="122.5" y="1376.530303030303" type="line"/>
      <point x="203.86363636363637" y="1403.9848484848485"/>
      <point x="284.07575757575756" y="1417.3333333333333"/>
      <point x="349.1212121212121" y="1417.3333333333333" type="curve" smooth="yes"/>
      <point x="501.6515151515151" y="1417.3333333333333"/>
      <point x="582.5454545454545" y="1370.3636363636363"/>
      <point x="582.5454545454545" y="1205.1363636363637" type="curve" smooth="yes"/>
      <point x="582.5454545454545" y="794.3939393939394" type="line"/>
      <point x="516.0909090909091" y="703.560606060606"/>
      <point x="424.969696969697" y="669.2424242424242"/>
      <point x="343.1060606060606" y="669.2424242424242" type="curve" smooth="yes"/>
      <point x="221.8181818181818" y="669.2424242424242"/>
      <point x="157.21212121212122" y="726.7878787878788"/>
      <point x="157.21212121212122" y="838.0454545454545" type="curve" smooth="yes"/>
      <point x="157.21212121212122" y="942.3939393939394"/>
      <point x="222.13636363636363" y="999.530303030303"/>
      <point x="373.3939393939394" y="1014.6818181818181" type="curve" smooth="yes"/>
      <point x="624.3787878787879" y="1040.2272727272727" type="line"/>
      <point x="616.1515151515151" y="1107.030303030303" type="line"/>
      <point x="369.6212121212121" y="1081.3636363636363" type="line" smooth="yes"/>
      <point x="161.04545454545453" y="1060.469696969697"/>
      <point x="71.27272727272727" y="975.8030303030303"/>
      <point x="71.27272727272727" y="828.439393939394" type="curve" smooth="yes"/>
      <point x="71.27272727272727" y="683.8636363636364"/>
      <point x="172.07575757575756" y="595.7575757575758"/>
    </contour>
  </outline>
</glyph>
<glyph name="guillemetleft" format="2">
  <advance width="822.7424242424242"/>
  <unicode hex="00AB"/>
  <outline>
    <contour>
      <point x="337.6666666666667" y="139.3939393939394" type="line"/>
      <point x="428.9090909090909" y="139.3939393939394" type="line"/>
      <point x="206.84848484848484" y="560.6060606060606" type="line"/>
      <point x="428.9090909090909" y="981.8181818181819" type="line"/>
      <point x="337.6666666666667" y="981.8181818181819" type="line"/>
      <point x="115.60606060606061" y="560.6060606060606" type="line"/>
    </contour>
    <contour>
      <point x="655.8939393939394" y="139.3939393939394" type="line"/>
      <point x="747.1363636363636" y="139.3939393939394" type="line"/>
      <point x="525.0757575757576" y="560.6060606060606" type="line"/>
      <point x="747.1363636363636" y="981.8181818181819" type="line"/>
      <point x="655.8939393939394" y="981.8181818181819" type="line"/>
      <point x="433.8333333333333" y="560.6060606060606" type="line"/>
    </contour>
  </outline>
</glyph>
<glyph name="logicalnot" format="2">
  <advance width="1286.939393939394"/>
  <unicode hex="00AC"/>
  <outline>
    <contour>
      <point x="1062.2727272727273" y="192.1818181818182" type="line"/>
      <point x="1145.7272727272727" y="192.1818181818182" type="line"/>
      <point x="1145.7272727272727" y="799.4545454545455" type="line"/>
      <point x="151.34848484848484" y="799.4545454545455" type="line"/>
      <point x="151.34848484848484" y="720.5454545454545" type="line"/>
      <point x="1062.2727272727273" y="720.5454545454545" type="line"/>
    </contour>
  </outline>
</glyph>
<glyph name="registered" format="2">
  <advance width="1505.5757575757575"/>
  <unicode hex="00AE"/>
  <outline>
    <contour>
      <point x="752.7878787878788" y="268.0" type="curve" smooth="yes"/>
      <point x="1114.7878787878788" y="268.0"/>
      <point x="1362.7878787878788" y="518.0"/>
      <point x="1362.7878787878788" y="882.0" type="curve" smooth="yes"/>
      <point x="1362.7878787878788" y="1246.0"/>
      <point x="1114.7878787878788" y="1498.0"/>
      <point x="752.7878787878788" y="1498.0" type="curve" smooth="yes"/>
      <point x="390.7878787878788" y="1498.0"/>
      <point x="142.78787878787878" y="1246.0"/>
      <point x="142.78787878787878" y="882.0" type="curve" smooth="yes"/>
      <point x="142.78787878787878" y="518.0"/>
      <point x="390.7878787878788" y="268.0"/>
    </contour>
    <contour>
      <point x="926.4242424242424" y="600.0" type="line"/>
      <point x="1008.8484848484849" y="600.0" type="line"/>
      <point x="834.3030303030303" y="857.5757575757576" type="line"/>
      <point x="768.0" y="831.5757575757576" type="line"/>
    </contour>
    <contour>
      <point x="752.7878787878788" y="339.45454545454544" type="curve" smooth="yes"/>
      <point x="428.42424242424244" y="339.45454545454544"/>
      <point x="216.84848484848484" y="553.2727272727273"/>
      <point x="216.84848484848484" y="882.0" type="curve" smooth="yes"/>
      <point x="216.84848484848484" y="1210.8484848484848"/>
      <point x="428.42424242424244" y="1426.5454545454545"/>
      <point x="752.7878787878788" y="1426.5454545454545" type="curve" smooth="yes"/>
      <point x="1077.1515151515152" y="1426.5454545454545"/>
      <point x="1288.7272727272727" y="1210.8484848484848"/>
      <point x="1288.7272727272727" y="882.0" type="curve" smooth="yes"/>
      <point x="1288.7272727272727" y="553.2727272727273"/>
      <point x="1077.1515151515152" y="339.45454545454544"/>
    </contour>
    <contour>
      <point x="543.939393939394" y="600.0" type="line"/>
      <point x="616.0" y="600.0" type="line"/>
      <point x="616.3636363636364" y="823.5757575757576" type="line"/>
      <point x="739.1515151515151" y="823.5757575757576" type="line" smooth="yes"/>
      <point x="902.2424242424242" y="823.5757575757576"/>
      <point x="984.3636363636364" y="889.4545454545455"/>
      <point x="984.3636363636364" y="1006.7878787878788" type="curve" smooth="yes"/>
      <point x="984.3636363636364" y="1124.121212121212"/>
      <point x="900.2424242424242" y="1192.0"/>
      <point x="739.1515151515151" y="1192.0" type="curve" smooth="yes"/>
      <point x="543.939393939394" y="1192.0" type="line"/>
    </contour>
    <contour>
      <point x="616.3636363636364" y="889.8181818181819" type="line"/>
      <point x="616.3636363636364" y="1125.7575757575758" type="line"/>
      <point x="752.0" y="1125.7575757575758" type="line" smooth="yes"/>
      <point x="860.1212121212121" y="1125.7575757575758"/>
      <point x="912.5454545454545" y="1086.7272727272727"/>
      <point x="912.5454545454545" y="1006.7878787878788" type="curve" smooth="yes"/>
      <point x="912.5454545454545" y="926.8484848484849"/>
      <point x="862.1212121212121" y="889.8181818181819"/>
      <point x="752.0" y="889.8181818181819" type="curve" smooth="yes"/>
    </contour>
  </outline>
</glyph>
<glyph name="degree" format="2">
  <advance width="947.3333333333334"/>
  <unicode hex="00B0"/>
  <outline>
    <contour>
      <point x="473.6666666666667" y="835.3333333333334" type="curve" smooth="yes"/>
      <point x="666.7272727272727" y="835.3333333333334"/>
      <point x="804.5454545454545" y="974.7878787878788"/>
      <point x="804.5454545454545" y="1165.8484848484848" type="curve" smooth="yes"/>
      <point x="804.5454545454545" y="1356.909090909091"/>
      <point x="666.7272727272727" y="1496.2424242424242"/>
      <point x="473.6666666666667" y="1496.2424242424242" type="curve" smooth="yes"/>
      <point x="280.6060606060606" y="1496.2424242424242"/>
      <point x="142.78787878787878" y="1356.909090909091"/>
      <point x="142.78787878787878" y="1165.8484848484848" type="curve" smooth="yes"/>
      <point x="142.78787878787878" y="974.7878787878788"/>
      <point x="280.6060606060606" y="835.3333333333334"/>
    </contour>
    <contour>
      <point x="473.6666666666667" y="909.4848484848485" type="curve" smooth="yes"/>
      <point x="326.40909090909093" y="909.4848484848485"/>
      <point x="221.1969696969697" y="1008.8181818181819"/>
      <point x="221.1969696969697" y="1165.8484848484848" type="curve" smooth="yes"/>
      <point x="221.1969696969697" y="1322.909090909091"/>
      <point x="326.530303030303" y="1422.090909090909"/>
      <point x="473.6666666666667" y="1422.090909090909" type="curve" smooth="yes"/>
      <point x="620.8030303030303" y="1422.090909090909"/>
      <point x="726.1363636363636" y="1322.909090909091"/>
      <point x="726.1363636363636" y="1165.8484848484848" type="curve" smooth="yes"/>
      <point x="726.1363636363636" y="1008.8181818181819"/>
      <point x="620.9242424242424" y="909.4848484848485"/>
    </contour>
  </outline>
</glyph>
<glyph name="plusminus" format="2">
  <advance width="1041.2424242424242"/>
  <unicode hex="00B1"/>
  <outline>
    <contour>
      <point x="478.8939393939394" y="320.6060606060606" type="line"/>
      <point x="562.3484848484849" y="320.6060606060606" type="line"/>
      <point x="562.3484848484849" y="666.6060606060606" type="line"/>
      <point x="889.8939393939394" y="666.6060606060606" type="line"/>
      <point x="889.8939393939394" y="745.5151515151515" type="line"/>
      <point x="562.3484848484849" y="745.5151515151515" type="line"/>
      <point x="562.3484848484849" y="1091.5151515151515" type="line"/>
      <point x="478.8939393939394" y="1091.5151515151515" type="line"/>
      <point x="478.8939393939394" y="745.5151515151515" type="line"/>
      <point x="151.34848484848484" y="745.5151515151515" type="line"/>
      <point x="151.34848484848484" y="666.6060606060606" type="line"/>
      <point x="478.8939393939394" y="666.6060606060606" type="line"/>
    </contour>
    <contour>
      <point x="151.34848484848484" y="0.09090909090909091" type="line"/>
      <point x="889.8939393939394" y="0.09090909090909091" type="line"/>
      <point x="889.8939393939394" y="79.0" type="line"/>
      <point x="151.34848484848484" y="79.0" type="line"/>
    </contour>
  </outline>
</glyph>
<glyph name="micro" format="2">
  <advance width="1009.530303030303"/>
  <unicode hex="00B5"/>
  <outline>
    <contour>
      <point x="455.27272727272725" y="-18.09090909090909" type="curve" smooth="yes"/>
      <point x="568.6060606060606" y="-18.09090909090909"/>
      <point x="680.5909090909091" y="27.28787878787879"/>
      <point x="764.2878787878788" y="121.15151515151516" type="curve"/>
      <point x="772.7727272727273" y="121.15151515151516" type="line"/>
      <point x="780.1060606060606" y="0.0" type="line"/>
      <point x="856.7424242424242" y="0.0" type="line"/>
      <point x="856.7424242424242" y="1081.2121212121212" type="line"/>
      <point x="768.2878787878788" y="1081.2121212121212" type="line"/>
      <point x="768.2878787878788" y="234.8030303030303" type="line"/>
      <point x="689.1818181818182" y="110.07575757575758"/>
      <point x="556.7272727272727" y="65.27272727272728"/>
      <point x="459.4848484848485" y="65.27272727272728" type="curve" smooth="yes"/>
      <point x="323.8787878787879" y="65.27272727272728"/>
      <point x="229.66666666666666" y="130.3181818181818"/>
      <point x="229.66666666666666" y="328.57575757575756" type="curve" smooth="yes"/>
      <point x="229.66666666666666" y="479.24242424242425" type="line"/>
      <point x="173.66666666666666" y="479.24242424242425" type="line"/>
      <point x="173.66666666666666" y="328.8939393939394" type="line" smooth="yes"/>
      <point x="173.66666666666666" y="68.0"/>
      <point x="282.90909090909093" y="-18.09090909090909"/>
    </contour>
    <contour>
      <point x="141.21212121212122" y="-440.0" type="line"/>
      <point x="229.66666666666666" y="-440.0" type="line"/>
      <point x="229.66666666666666" y="1081.1818181818182" type="line"/>
      <point x="141.21212121212122" y="1081.1818181818182" type="line"/>
    </contour>
  </outline>
</glyph>
<glyph name="paragraph" format="2">
  <advance width="1129.6969696969697"/>
  <unicode hex="00B6"/>
  <outline>
    <contour>
      <point x="666.3030303030303" y="0.0" type="line"/>
      <point x="747.1818181818182" y="0.0" type="line"/>
      <point x="747.1818181818182" y="1480.0" type="line"/>
      <point x="674.439393939394" y="1488.2727272727273"/>
      <point x="591.9090909090909" y="1494.3636363636363"/>
      <point x="504.6666666666667" y="1494.3636363636363" type="curve" smooth="yes"/>
      <point x="233.54545454545456" y="1494.3636363636363"/>
      <point x="92.98484848484848" y="1340.8030303030303"/>
      <point x="92.98484848484848" y="1001.8636363636364" type="curve" smooth="yes"/>
      <point x="92.98484848484848" y="682.0151515151515"/>
      <point x="228.78787878787878" y="510.3939393939394"/>
      <point x="532.8787878787879" y="510.3939393939394" type="curve" smooth="yes"/>
      <point x="581.7727272727273" y="510.3939393939394"/>
      <point x="619.8787878787879" y="512.7727272727273"/>
      <point x="666.3030303030303" y="517.939393939394" type="curve"/>
    </contour>
    <contour>
      <point x="876.5757575757576" y="0.0" type="line"/>
      <point x="957.4545454545455" y="0.0" type="line"/>
      <point x="957.4545454545455" y="1480.0" type="line"/>
      <point x="876.5757575757576" y="1480.0" type="line"/>
    </contour>
  </outline>
</glyph>
<glyph name="periodcentered" format="2">
  <advance width="395.06060606060606"/>
  <unicode hex="00B7"/>
  <anchor x="197.53030303030303" y="560.0" name="_periodcentered"/>
  <outline>
    <contour>
      <point x="197.53030303030303" y="485.0" type="curve" smooth="yes"/>
      <point x="240.65151515151516" y="485.0"/>
      <point x="271.3484848484849" y="513.4545454545455"/>
      <point x="271.3484848484849" y="558.1212121212121" type="curve" smooth="yes"/>
      <point x="271.3484848484849" y="602.7878787878788"/>
      <point x="240.8939393939394" y="633.1212121212121"/>
      <point x="197.53030303030303" y="633.1212121212121" type="curve" smooth="yes"/>
      <point x="154.16666666666666" y="633.1212121212121"/>
      <point x="123.71212121212122" y="603.030303030303"/>
      <point x="123.71212121212122" y="558.1212121212121" type="curve" smooth="yes"/>
      <point x="123.71212121212122" y="513.2121212121212"/>
      <point x="154.4090909090909" y="485.0"/>
    </contour>
  </outline>
</glyph>
<glyph name="cedilla" format="2">
  <advance width="918.1818181818182"/>
  <unicode hex="00B8"/>
  <anchor x="459.0909090909091" y="0.0" name="_bottom"/>
  <outline>
    <contour>
      <point x="458.92424242424244" y="-403.6363636363636" type="curve" smooth="yes"/>
      <point x="572.7272727272727" y="-403.6363636363636"/>
      <point x="636.6212121212121" y="-346.3636363636364"/>
      <point x="636.6212121212121" y="-257.8333333333333" type="curve" smooth="yes"/>
      <point x="636.6212121212121" y="-166.3030303030303"/>
      <point x="576.530303030303" y="-110.89393939393939"/>
      <point x="463.469696969697" y="-110.89393939393939" type="curve"/>
      <point x="493.8181818181818" y="-140.78787878787878" type="line"/>
      <point x="493.8181818181818" y="20.0" type="line"/>
      <point x="429.6969696969697" y="20.0" type="line"/>
      <point x="429.6969696969697" y="-164.93939393939394" type="line"/>
      <point x="459.7878787878788" y="-164.93939393939394" type="line" smooth="yes"/>
      <point x="533.5" y="-164.93939393939394"/>
      <point x="572.6666666666666" y="-193.8939393939394"/>
      <point x="572.6666666666666" y="-256.77272727272725" type="curve" smooth="yes"/>
      <point x="572.6666666666666" y="-315.5151515151515"/>
      <point x="536.5" y="-345.6060606060606"/>
      <point x="461.8181818181818" y="-345.6060606060606" type="curve" smooth="yes"/>
      <point x="413.27272727272725" y="-345.6060606060606"/>
      <point x="360.07575757575756" y="-336.6363636363636"/>
      <point x="303.8484848484849" y="-306.8636363636364" type="curve"/>
      <point x="303.8484848484849" y="-368.6212121212121" type="line"/>
      <point x="344.6666666666667" y="-391.25757575757575"/>
      <point x="406.3636363636364" y="-403.6363636363636"/>
    </contour>
  </outline>
</glyph>
<glyph name="ordmasculine" format="2">
  <advance width="842.2424242424242"/>
  <unicode hex="00BA"/>
  <outline>
    <contour>
      <point x="421.1515151515151" y="595.7575757575758" type="curve" smooth="yes"/>
      <point x="627.5909090909091" y="595.7575757575758"/>
      <point x="765.6969696969697" y="726.4545454545455"/>
      <point x="765.6969696969697" y="1045.969696969697" type="curve" smooth="yes"/>
      <point x="765.6969696969697" y="1365.4848484848485"/>
      <point x="627.5909090909091" y="1492.6060606060605"/>
      <point x="421.1515151515151" y="1492.6060606060605" type="curve" smooth="yes"/>
      <point x="214.71212121212122" y="1492.6060606060605"/>
      <point x="76.54545454545455" y="1365.939393939394"/>
      <point x="76.54545454545455" y="1045.969696969697" type="curve" smooth="yes"/>
      <point x="76.54545454545455" y="726.0"/>
      <point x="214.71212121212122" y="595.7575757575758"/>
    </contour>
    <contour>
      <point x="421.1515151515151" y="670.7727272727273" type="curve" smooth="yes"/>
      <point x="264.5" y="670.7727272727273"/>
      <point x="163.15151515151516" y="760.3333333333334"/>
      <point x="163.15151515151516" y="1045.969696969697" type="curve" smooth="yes"/>
      <point x="163.15151515151516" y="1331.6969696969697"/>
      <point x="264.5" y="1417.590909090909"/>
      <point x="421.1515151515151" y="1417.590909090909" type="curve" smooth="yes"/>
      <point x="577.8636363636364" y="1417.590909090909"/>
      <point x="679.0909090909091" y="1331.6969696969697"/>
      <point x="679.0909090909091" y="1045.969696969697" type="curve" smooth="yes"/>
      <point x="679.0909090909091" y="760.3333333333334"/>
      <point x="577.8636363636364" y="670.7727272727273"/>
    </contour>
  </outline>
</glyph>
<glyph name="guillemetright" format="2">
  <advance width="822.7424242424242"/>
  <unicode hex="00BB"/>
  <outline>
    <contour>
      <point x="75.60606060606061" y="139.3939393939394" type="line"/>
      <point x="166.84848484848484" y="139.3939393939394" type="line"/>
      <point x="388.9090909090909" y="560.6060606060606" type="line"/>
      <point x="166.84848484848484" y="981.8181818181819" type="line"/>
      <point x="75.60606060606061" y="981.8181818181819" type="line"/>
      <point x="297.6666666666667" y="560.6060606060606" type="line"/>
    </contour>
    <contour>
      <point x="393.8333333333333" y="139.3939393939394" type="line"/>
      <point x="485.07575757575756" y="139.3939393939394" type="line"/>
      <point x="707.1363636363636" y="560.6060606060606" type="line"/>
      <point x="485.07575757575756" y="981.8181818181819" type="line"/>
      <point x="393.8333333333333" y="981.8181818181819" type="line"/>
      <point x="615.8939393939394" y="560.6060606060606" type="line"/>
    </contour>
  </outline>
</glyph>
<glyph name="onequarter" format="2">
  <advance width="1661.3484848484848"/>
  <unicode hex="00BC"/>
  <outline>
    <contour>
      <point x="362.8939393939394" y="636.3030303030303" type="line"/>
      <point x="442.3181818181818" y="636.3030303030303" type="line"/>
      <point x="442.3181818181818" y="1620.0" type="line"/>
      <point x="393.0" y="1620.0" type="line"/>
      <point x="135.93939393939394" y="1428.560606060606" type="line"/>
      <point x="135.93939393939394" y="1345.0454545454545" type="line"/>
      <point x="393.0" y="1536.4848484848485" type="line"/>
      <point x="362.8939393939394" y="1551.469696969697" type="line"/>
    </contour>
    <contour>
      <point x="142.34848484848484" y="616.0" type="line"/>
      <point x="651.9545454545455" y="616.0" type="line"/>
      <point x="651.9545454545455" y="690.030303030303" type="line"/>
      <point x="142.34848484848484" y="690.030303030303" type="line"/>
    </contour>
    <contour>
      <point x="412.7878787878788" y="-136.0" type="line"/>
      <point x="494.93939393939394" y="-136.0" type="line"/>
      <point x="1248.560606060606" y="1616.0" type="line"/>
      <point x="1166.409090909091" y="1616.0" type="line"/>
    </contour>
    <contour>
      <point x="970.8939393939394" y="111.54545454545455" type="line"/>
      <point x="1633.2727272727273" y="111.54545454545455" type="line"/>
      <point x="1633.2727272727273" y="182.15151515151516" type="line"/>
      <point x="1037.9848484848485" y="182.15151515151516" type="line"/>
      <point x="1052.9545454545455" y="159.0151515151515" type="line"/>
      <point x="1413.1363636363637" y="864.0" type="line"/>
      <point x="1331.439393939394" y="864.0" type="line"/>
      <point x="970.8939393939394" y="159.4848484848485" type="line"/>
    </contour>
    <contour>
      <point x="1421.2727272727273" y="-136.0" type="line"/>
      <point x="1496.1818181818182" y="-136.0" type="line"/>
      <point x="1496.1818181818182" y="526.0" type="line"/>
      <point x="1436.3939393939395" y="526.0" type="line"/>
      <point x="1421.2727272727273" y="182.15151515151516" type="line"/>
    </contour>
  </outline>
</glyph>
<glyph name="onehalf" format="2">
  <advance width="1661.3484848484848"/>
  <unicode hex="00BD"/>
  <outline>
    <contour>
      <point x="362.8939393939394" y="636.3030303030303" type="line"/>
      <point x="442.3181818181818" y="636.3030303030303" type="line"/>
      <point x="442.3181818181818" y="1620.0" type="line"/>
      <point x="393.0" y="1620.0" type="line"/>
      <point x="135.93939393939394" y="1428.560606060606" type="line"/>
      <point x="135.93939393939394" y="1345.0454545454545" type="line"/>
      <point x="393.0" y="1536.4848484848485" type="line"/>
      <point x="362.8939393939394" y="1551.469696969697" type="line"/>
    </contour>
    <contour>
      <point x="142.34848484848484" y="616.0" type="line"/>
      <point x="651.9545454545455" y="616.0" type="line"/>
      <point x="651.9545454545455" y="690.030303030303" type="line"/>
      <point x="142.34848484848484" y="690.030303030303" type="line"/>
    </contour>
    <contour>
      <point x="412.7878787878788" y="-136.0" type="line"/>
      <point x="494.93939393939394" y="-136.0" type="line"/>
      <point x="1248.560606060606" y="1616.0" type="line"/>
      <point x="1166.409090909091" y="1616.0" type="line"/>
    </contour>
    <contour>
      <point x="1030.2424242424242" y="-136.0" type="line"/>
      <point x="1561.1969696969697" y="-136.0" type="line"/>
      <point x="1561.1969696969697" y="-61.96969696969697" type="line"/>
      <point x="1109.621212121212" y="-61.96969696969697" type="line"/>
      <point x="1121.1060606060605" y="-85.77272727272728" type="line"/>
      <point x="1374.3939393939395" y="271.5" type="line" smooth="yes"/>
      <point x="1481.1666666666667" y="421.25757575757575"/>
      <point x="1522.4545454545455" y="514.469696969697"/>
      <point x="1523.8636363636365" y="618.5757575757576" type="curve" smooth="yes"/>
      <point x="1525.2727272727273" y="800.1212121212121"/>
      <point x="1413.7272727272727" y="876.1212121212121"/>
      <point x="1231.1515151515152" y="876.1212121212121" type="curve" smooth="yes"/>
      <point x="1151.0757575757575" y="876.1212121212121"/>
      <point x="1073.8484848484848" y="863.530303030303"/>
      <point x="1018.1515151515151" y="839.2121212121212" type="curve"/>
      <point x="1018.1515151515151" y="763.939393939394" type="line"/>
      <point x="1081.2272727272727" y="790.0757575757576"/>
      <point x="1147.3181818181818" y="802.7272727272727"/>
      <point x="1224.7424242424242" y="802.7272727272727" type="curve" smooth="yes"/>
      <point x="1365.878787878788" y="802.7272727272727"/>
      <point x="1442.7727272727273" y="749.939393939394"/>
      <point x="1442.7727272727273" y="613.939393939394" type="curve" smooth="yes"/>
      <point x="1442.7727272727273" y="525.3939393939394"/>
      <point x="1402.909090909091" y="440.969696969697"/>
      <point x="1309.2121212121212" y="309.1060606060606" type="curve" smooth="yes"/>
      <point x="1030.2424242424242" y="-88.71212121212122" type="line"/>
    </contour>
  </outline>
</glyph>
<glyph name="questiondown" format="2">
  <advance width="817.0757575757576"/>
  <unicode hex="00BF"/>
  <outline>
    <contour>
      <point x="485.6515151515151" y="767.1515151515151" type="line"/>
      <point x="425.6212121212121" y="767.1515151515151" type="line"/>
      <point x="414.43939393939394" y="392.07575757575756" type="line"/>
      <point x="149.9090909090909" y="278.09090909090907"/>
      <point x="60.515151515151516" y="152.83333333333334"/>
      <point x="60.515151515151516" y="-45.13636363636364" type="curve" smooth="yes"/>
      <point x="60.515151515151516" y="-268.59090909090907"/>
      <point x="207.56060606060606" y="-400.0"/>
      <point x="477.6363636363636" y="-400.0" type="curve" smooth="yes"/>
      <point x="583.2878787878788" y="-400.0"/>
      <point x="695.7424242424242" y="-380.3787878787879"/>
      <point x="776.530303030303" y="-346.09090909090907" type="curve"/>
      <point x="776.530303030303" y="-263.09090909090907" type="line"/>
      <point x="680.8939393939394" y="-301.1969696969697"/>
      <point x="585.8181818181819" y="-318.8181818181818"/>
      <point x="481.3787878787879" y="-318.8181818181818" type="curve" smooth="yes"/>
      <point x="263.2878787878788" y="-318.8181818181818"/>
      <point x="150.12121212121212" y="-222.21212121212122"/>
      <point x="150.12121212121212" y="-43.53030303030303" type="curve" smooth="yes"/>
      <point x="150.12121212121212" y="130.1818181818182"/>
      <point x="238.0151515151515" y="242.13636363636363"/>
      <point x="501.1363636363636" y="339.8787878787879" type="curve"/>
    </contour>
    <contour>
      <point x="455.6212121212121" y="1091.8181818181818" type="curve" smooth="yes"/>
      <point x="410.6212121212121" y="1091.8181818181818"/>
      <point x="381.8030303030303" y="1061.6060606060605"/>
      <point x="381.8030303030303" y="1019.2727272727273" type="curve" smooth="yes"/>
      <point x="381.8030303030303" y="975.060606060606"/>
      <point x="412.25757575757575" y="944.8484848484849"/>
      <point x="455.6212121212121" y="944.8484848484849" type="curve" smooth="yes"/>
      <point x="498.9848484848485" y="944.8484848484849"/>
      <point x="529.439393939394" y="974.8181818181819"/>
      <point x="529.439393939394" y="1019.2727272727273" type="curve" smooth="yes"/>
      <point x="529.439393939394" y="1061.8484848484848"/>
      <point x="498.74242424242425" y="1091.8181818181818"/>
    </contour>
  </outline>
</glyph>
<glyph name="Agrave" format="2">
  <advance width="1220.5454545454545"/>
  <unicode hex="00C0"/>
  <anchor x="611.1818181818182" y="1520.0" name="_top"/>
  <anchor x="611.2121212121212" y="0.0" name="bottom"/>
  <anchor x="1191.0757575757575" y="0.0" name="ogonek"/>
  <anchor x="611.1818181818182" y="1520.0" name="top"/>
  <outline>
    <contour>
      <point x="29.46969696969697" y="0.0" type="line"/>
      <point x="121.81818181818181" y="0.0" type="line"/>
      <point x="621.5151515151515" y="1431.5454545454545" type="line"/>
      <point x="596.7272727272727" y="1431.5454545454545" type="line"/>
      <point x="1096.6060606060605" y="0.0" type="line"/>
      <point x="1191.0757575757575" y="0.0" type="line"/>
      <point x="669.2424242424242" y="1480.0" type="line"/>
      <point x="551.3030303030303" y="1480.0" type="line"/>
    </contour>
    <contour>
      <point x="267.6969696969697" y="516.6969696969697" type="line"/>
      <point x="952.6969696969697" y="516.6969696969697" type="line"/>
      <point x="929.0" y="599.0" type="line"/>
      <point x="291.42424242424244" y="599.0" type="line"/>
    </contour>
    <contour>
      <point x="572.0" y="1614.1818181818182" type="line"/>
      <point x="650.3636363636364" y="1614.1818181818182" type="line"/>
      <point x="497.59090909090907" y="1888.8484848484848" type="line"/>
      <point x="401.09090909090907" y="1888.8484848484848" type="line"/>
    </contour>
  </outline>
</glyph>
<glyph name="Atilde" format="2">
  <advance width="1220.5454545454545"/>
  <unicode hex="00C3"/>
  <anchor x="611.1818181818182" y="1520.0" name="_top"/>
  <anchor x="611.2121212121212" y="0.0" name="bottom"/>
  <anchor x="1191.0757575757575" y="0.0" name="ogonek"/>
  <anchor x="611.1818181818182" y="1520.0" name="top"/>
  <outline>
    <contour>
      <point x="29.46969696969697" y="0.0" type="line"/>
      <point x="121.81818181818181" y="0.0" type="line"/>
      <point x="621.5151515151515" y="1431.5454545454545" type="line"/>
      <point x="596.7272727272727" y="1431.5454545454545" type="line"/>
      <point x="1096.6060606060605" y="0.0" type="line"/>
      <point x="1191.0757575757575" y="0.0" type="line"/>
      <point x="669.2424242424242" y="1480.0" type="line"/>
      <point x="551.3030303030303" y="1480.0" type="line"/>
    </contour>
    <contour>
      <point x="267.6969696969697" y="516.6969696969697" type="line"/>
      <point x="952.6969696969697" y="516.6969696969697" type="line"/>
      <point x="929.0" y="599.0" type="line"/>
      <point x="291.42424242424244" y="599.0" type="line"/>
    </contour>
    <contour>
      <point x="749.6666666666666" y="1689.8030303030303" type="curve" smooth="yes"/>
      <point x="815.1363636363636" y="1689.8030303030303"/>
      <point x="864.5151515151515" y="1712.7424242424242"/>
      <point x="898.5" y="1752.1515151515152" type="curve"/>
      <point x="898.5" y="1828.7727272727273" type="line"/>
      <point x="856.4848484848485" y="1780.7424242424242"/>
      <point x="812.5757575757576" y="1757.1818181818182"/>
      <point x="750.030303030303" y="1757.1818181818182" type="curve" smooth="yes"/>
      <point x="660.939393939394" y="1757.1818181818182"/>
      <point x="580.969696969697" y="1834.3636363636363"/>
      <point x="472.6969696969697" y="1834.3636363636363" type="curve" smooth="yes"/>
      <point x="407.22727272727275" y="1834.3636363636363"/>
      <point x="357.8484848484849" y="1811.3030303030303"/>
      <point x="323.8636363636364" y="1771.8939393939395" type="curve"/>
      <point x="323.8636363636364" y="1695.2727272727273" type="line"/>
      <point x="365.8787878787879" y="1743.3030303030303"/>
      <point x="409.7878787878788" y="1766.8636363636363"/>
      <point x="472.3333333333333" y="1766.8636363636363" type="curve" smooth="yes"/>
      <point x="561.4242424242424" y="1766.8636363636363"/>
      <point x="641.3939393939394" y="1689.8030303030303"/>
    </contour>
  </outline>
</glyph>
<glyph name="Adieresis" format="2">
  <advance width="1220.5454545454545"/>
  <unicode hex="00C4"/>
  <anchor x="611.1818181818182" y="1520.0" name="_top"/>
  <anchor x="611.2121212121212" y="0.0" name="bottom"/>
  <anchor x="1191.0757575757575" y="0.0" name="ogonek"/>
  <anchor x="611.1818181818182" y="1520.0" name="top"/>
  <outline>
    <contour>
      <point x="29.46969696969697" y="0.0" type="line"/>
      <point x="121.81818181818181" y="0.0" type="line"/>
      <point x="621.5151515151515" y="1431.5454545454545" type="line"/>
      <point x="596.7272727272727" y="1431.5454545454545" type="line"/>
      <point x="1096.6060606060605" y="0.0" type="line"/>
      <point x="1191.0757575757575" y="0.0" type="line"/>
      <point x="669.2424242424242" y="1480.0" type="line"/>
      <point x="551.3030303030303" y="1480.0" type="line"/>
    </contour>
    <contour>
      <point x="267.6969696969697" y="516.6969696969697" type="line"/>
      <point x="952.6969696969697" y="516.6969696969697" type="line"/>
      <point x="929.0" y="599.0" type="line"/>
      <point x="291.42424242424244" y="599.0" type="line"/>
    </contour>
    <contour>
      <point x="814.9090909090909" y="1682.7272727272727" type="curve" smooth="yes"/>
      <point x="857.1515151515151" y="1682.7272727272727"/>
      <point x="886.060606060606" y="1709.2121212121212"/>
      <point x="886.060606060606" y="1751.878787878788" type="curve" smooth="yes"/>
      <point x="886.060606060606" y="1794.5454545454545"/>
      <point x="857.1515151515151" y="1822.909090909091"/>
      <point x="814.9090909090909" y="1822.909090909091" type="curve" smooth="yes"/>
      <point x="772.6666666666666" y="1822.909090909091"/>
      <point x="743.7575757575758" y="1794.5454545454545"/>
      <point x="743.7575757575758" y="1751.878787878788" type="curve" smooth="yes"/>
      <point x="743.7575757575758" y="1709.2121212121212"/>
      <point x="772.6666666666666" y="1682.7272727272727"/>
    </contour>
    <contour>
      <point x="407.45454545454544" y="1682.7272727272727" type="curve" smooth="yes"/>
      <point x="449.6969696969697" y="1682.7272727272727"/>
      <point x="478.6060606060606" y="1709.2121212121212"/>
      <point x="478.6060606060606" y="1751.878787878788" type="curve" smooth="yes"/>
      <point x="478.6060606060606" y="1794.5454545454545"/>
      <point x="449.6969696969697" y="1822.909090909091"/>
      <point x="407.45454545454544" y="1822.909090909091" type="curve" smooth="yes"/>
      <point x="365.2121212121212" y="1822.909090909091"/>
      <point x="336.3030303030303" y="1794.5454545454545"/>
      <point x="336.3030303030303" y="1751.878787878788" type="curve" smooth="yes"/>
      <point x="336.3030303030303" y="1709.2121212121212"/>
      <point x="365.2121212121212" y="1682.7272727272727"/>
    </contour>
  </outline>
</glyph>
<glyph name="Aring" format="2">
  <advance width="1220.5454545454545"/>
  <unicode hex="00C5"/>
  <anchor x="614.469696969697" y="1350.909090909091" name="_top"/>
  <anchor x="611.2121212121212" y="0.0" name="bottom"/>
  <anchor x="1191.0757575757575" y="0.0" name="ogonek"/>
  <anchor x="611.1818181818182" y="1520.0" name="top"/>
  <outline>
    <contour>
      <point x="29.46969696969697" y="0.0" type="line"/>
      <point x="121.81818181818181" y="0.0" type="line"/>
      <point x="621.5151515151515" y="1431.5454545454545" type="line"/>
      <point x="596.7272727272727" y="1431.5454545454545" type="line"/>
      <point x="1096.6060606060605" y="0.0" type="line"/>
      <point x="1191.0757575757575" y="0.0" type="line"/>
      <point x="669.2424242424242" y="1480.0" type="line"/>
      <point x="551.3030303030303" y="1480.0" type="line"/>
    </contour>
    <contour>
      <point x="267.6969696969697" y="516.6969696969697" type="line"/>
      <point x="952.6969696969697" y="516.6969696969697" type="line"/>
      <point x="929.0" y="599.0" type="line"/>
      <point x="291.42424242424244" y="599.0" type="line"/>
    </contour>
    <contour>
      <point x="614.469696969697" y="1438.9545454545455" type="curve" smooth="yes"/>
      <point x="722.0454545454545" y="1438.9545454545455"/>
      <point x="801.1363636363636" y="1517.8030303030303"/>
      <point x="801.1363636363636" y="1625.1363636363637" type="curve" smooth="yes"/>
      <point x="801.1363636363636" y="1732.469696969697"/>
      <point x="722.0454545454545" y="1811.3181818181818"/>
      <point x="614.469696969697" y="1811.3181818181818" type="curve" smooth="yes"/>
      <point x="506.8939393939394" y="1811.3181818181818"/>
      <point x="427.8030303030303" y="1732.469696969697"/>
      <point x="427.8030303030303" y="1625.1363636363637" type="curve" smooth="yes"/>
      <point x="427.8030303030303" y="1517.8030303030303"/>
      <point x="506.8939393939394" y="1438.9545454545455"/>
    </contour>
    <contour>
      <point x="614.469696969697" y="1496.1666666666667" type="curve" smooth="yes"/>
      <point x="540.2878787878788" y="1496.1666666666667"/>
      <point x="487.6212121212121" y="1545.0757575757575"/>
      <point x="487.6212121212121" y="1625.1363636363637" type="curve" smooth="yes"/>
      <point x="487.6212121212121" y="1705.1969696969697"/>
      <point x="540.2878787878788" y="1754.1060606060605"/>
      <point x="614.469696969697" y="1754.1060606060605" type="curve" smooth="yes"/>
      <point x="688.6515151515151" y="1754.1060606060605"/>
      <point x="741.3181818181819" y="1705.1969696969697"/>
      <point x="741.3181818181819" y="1625.1363636363637" type="curve" smooth="yes"/>
      <point x="741.3181818181819" y="1545.0757575757575"/>
      <point x="688.6515151515151" y="1496.1666666666667"/>
    </contour>
  </outline>
</glyph>
<glyph name="Edieresis" format="2">
  <advance width="1042.0151515151515"/>
  <unicode hex="00CB"/>
  <anchor x="597.969696969697" y="1520.0" name="_top"/>
  <anchor x="598.9090909090909" y="0.0" name="bottom"/>
  <anchor x="908.4545454545455" y="0.0" name="ogonek"/>
  <anchor x="597.969696969697" y="1520.0" name="top"/>
  <anchor x="38.40909090909091" y="1480.0" name="topleft"/>
  <outline>
    <contour>
      <point x="172.24242424242425" y="0.0" type="line"/>
      <point x="988.7575757575758" y="0.0" type="line"/>
      <point x="988.7575757575758" y="82.48484848484848" type="line"/>
      <point x="260.7878787878788" y="82.48484848484848" type="line"/>
      <point x="260.7878787878788" y="1397.5151515151515" type="line"/>
      <point x="978.7575757575758" y="1397.5151515151515" type="line"/>
      <point x="978.7575757575758" y="1480.0" type="line"/>
      <point x="172.24242424242425" y="1480.0" type="line"/>
    </contour>
    <contour>
      <point x="240.0" y="719.3939393939394" type="line"/>
      <point x="885.530303030303" y="719.3939393939394" type="line"/>
      <point x="885.530303030303" y="801.8787878787879" type="line"/>
      <point x="240.0" y="801.8787878787879" type="line"/>
    </contour>
    <contour>
      <point x="801.6969696969697" y="1682.7272727272727" type="curve" smooth="yes"/>
      <point x="843.939393939394" y="1682.7272727272727"/>
      <point x="872.8484848484849" y="1709.2121212121212"/>
      <point x="872.8484848484849" y="1751.878787878788" type="curve" smooth="yes"/>
      <point x="872.8484848484849" y="1794.5454545454545"/>
      <point x="843.939393939394" y="1822.909090909091"/>
      <point x="801.6969696969697" y="1822.909090909091" type="curve" smooth="yes"/>
      <point x="759.4545454545455" y="1822.909090909091"/>
      <point x="730.5454545454545" y="1794.5454545454545"/>
      <point x="730.5454545454545" y="1751.878787878788" type="curve" smooth="yes"/>
      <point x="730.5454545454545" y="1709.2121212121212"/>
      <point x="759.4545454545455" y="1682.7272727272727"/>
    </contour>
    <contour>
      <point x="394.24242424242425" y="1682.7272727272727" type="curve" smooth="yes"/>
      <point x="436.4848484848485" y="1682.7272727272727"/>
      <point x="465.3939393939394" y="1709.2121212121212"/>
      <point x="465.3939393939394" y="1751.878787878788" type="curve" smooth="yes"/>
      <point x="465.3939393939394" y="1794.5454545454545"/>
      <point x="436.4848484848485" y="1822.909090909091"/>
      <point x="394.24242424242425" y="1822.909090909091" type="curve" smooth="yes"/>
      <point x="352.0" y="1822.909090909091"/>
      <point x="323.09090909090907" y="1794.5454545454545"/>
      <point x="323.09090909090907" y="1751.878787878788" type="curve" smooth="yes"/>
      <point x="323.09090909090907" y="1709.2121212121212"/>
      <point x="352.0" y="1682.7272727272727"/>
    </contour>
  </outline>
</glyph>
<glyph name="Igrave" format="2">
  <advance width="433.3939393939394"/>
  <unicode hex="00CC"/>
  <anchor x="216.6969696969697" y="1520.0" name="_top"/>
  <anchor x="216.66666666666666" y="0.0" name="bottom"/>
  <anchor x="261.1515151515151" y="0.0" name="ogonek"/>
  <anchor x="216.6969696969697" y="1520.0" name="top"/>
  <outline>
    <contour>
      <point x="172.24242424242425" y="0.0" type="line"/>
      <point x="261.1515151515151" y="0.0" type="line"/>
      <point x="261.1515151515151" y="1480.0" type="line"/>
      <point x="172.24242424242425" y="1480.0" type="line"/>
    </contour>
    <contour>
      <point x="177.5151515151515" y="1614.1818181818182" type="line"/>
      <point x="255.87878787878788" y="1614.1818181818182" type="line"/>
      <point x="103.10606060606061" y="1888.8484848484848" type="line"/>
      <point x="6.6060606060606055" y="1888.8484848484848" type="line"/>
    </contour>
  </outline>
</glyph>
<glyph name="Iacute" format="2">
  <advance width="433.3939393939394"/>
  <unicode hex="00CD"/>
  <anchor x="216.6969696969697" y="1520.0" name="_top"/>
  <anchor x="216.66666666666666" y="0.0" name="bottom"/>
  <anchor x="261.1515151515151" y="0.0" name="ogonek"/>
  <anchor x="216.6969696969697" y="1520.0" name="top"/>
  <outline>
    <contour>
      <point x="172.24242424242425" y="0.0" type="line"/>
      <point x="261.1515151515151" y="0.0" type="line"/>
      <point x="261.1515151515151" y="1480.0" type="line"/>
      <point x="172.24242424242425" y="1480.0" type="line"/>
    </contour>
    <contour>
      <point x="177.45454545454547" y="1614.1818181818182" type="line"/>
      <point x="255.8181818181818" y="1614.1818181818182" type="line"/>
      <point x="426.72727272727275" y="1888.8484848484848" type="line"/>
      <point x="330.22727272727275" y="1888.8484848484848" type="line"/>
    </contour>
  </outline>
</glyph>
<glyph name="Icircumflex" format="2">
  <advance width="433.3939393939394"/>
  <unicode hex="00CE"/>
  <anchor x="216.6969696969697" y="1520.0" name="_top"/>
  <anchor x="216.66666666666666" y="0.0" name="bottom"/>
  <anchor x="261.1515151515151" y="0.0" name="ogonek"/>
  <anchor x="216.6969696969697" y="1520.0" name="top"/>
  <outline>
    <contour>
      <point x="172.24242424242425" y="0.0" type="line"/>
      <point x="261.1515151515151" y="0.0" type="line"/>
      <point x="261.1515151515151" y="1480.0" type="line"/>
      <point x="172.24242424242425" y="1480.0" type="line"/>
    </contour>
    <contour>
      <point x="-47.81818181818182" y="1614.1818181818182" type="line"/>
      <point x="40.25757575757576" y="1614.1818181818182" type="line"/>
      <point x="228.13636363636363" y="1854.8030303030303" type="line"/>
      <point x="205.25757575757575" y="1854.8030303030303" type="line"/>
      <point x="393.1363636363636" y="1614.1818181818182" type="line"/>
      <point x="481.2121212121212" y="1614.1818181818182" type="line"/>
      <point x="262.6666666666667" y="1888.8484848484848" type="line"/>
      <point x="170.72727272727272" y="1888.8484848484848" type="line"/>
    </contour>
  </outline>
</glyph>
<glyph name="Idieresis" format="2">
  <advance width="433.3939393939394"/>
  <unicode hex="00CF"/>
  <anchor x="216.6969696969697" y="1520.0" name="_top"/>
  <anchor x="216.66666666666666" y="0.0" name="bottom"/>
  <anchor x="261.1515151515151" y="0.0" name="ogonek"/>
  <anchor x="216.6969696969697" y="1520.0" name="top"/>
  <outline>
    <contour>
      <point x="172.24242424242425" y="0.0" type="line"/>
      <point x="261.1515151515151" y="0.0" type="line"/>
      <point x="261.1515151515151" y="1480.0" type="line"/>
      <point x="172.24242424242425" y="1480.0" type="line"/>
    </contour>
    <contour>
      <point x="420.42424242424244" y="1682.7272727272727" type="curve" smooth="yes"/>
      <point x="462.6666666666667" y="1682.7272727272727"/>
      <point x="491.57575757575756" y="1709.2121212121212"/>
      <point x="491.57575757575756" y="1751.878787878788" type="curve" smooth="yes"/>
      <point x="491.57575757575756" y="1794.5454545454545"/>
      <point x="462.6666666666667" y="1822.909090909091"/>
      <point x="420.42424242424244" y="1822.909090909091" type="curve" smooth="yes"/>
      <point x="378.1818181818182" y="1822.909090909091"/>
      <point x="349.27272727272725" y="1794.5454545454545"/>
      <point x="349.27272727272725" y="1751.878787878788" type="curve" smooth="yes"/>
      <point x="349.27272727272725" y="1709.2121212121212"/>
      <point x="378.1818181818182" y="1682.7272727272727"/>
    </contour>
    <contour>
      <point x="12.969696969696969" y="1682.7272727272727" type="curve" smooth="yes"/>
      <point x="55.21212121212121" y="1682.7272727272727"/>
      <point x="84.12121212121212" y="1709.2121212121212"/>
      <point x="84.12121212121212" y="1751.878787878788" type="curve" smooth="yes"/>
      <point x="84.12121212121212" y="1794.5454545454545"/>
      <point x="55.21212121212121" y="1822.909090909091"/>
      <point x="12.969696969696969" y="1822.909090909091" type="curve" smooth="yes"/>
      <point x="-29.272727272727273" y="1822.909090909091"/>
      <point x="-58.18181818181818" y="1794.5454545454545"/>
      <point x="-58.18181818181818" y="1751.878787878788" type="curve" smooth="yes"/>
      <point x="-58.18181818181818" y="1709.2121212121212"/>
      <point x="-29.272727272727273" y="1682.7272727272727"/>
    </contour>
  </outline>
</glyph>
<glyph name="Ntilde" format="2">
  <advance width="1346.5"/>
  <unicode hex="00D1"/>
  <anchor x="673.4848484848485" y="1520.0" name="_top"/>
  <anchor x="673.4848484848485" y="0.0" name="bottom"/>
  <anchor x="673.4848484848485" y="1520.0" name="top"/>
  <outline>
    <contour>
      <point x="172.24242424242425" y="0.0" type="line"/>
      <point x="257.6666666666667" y="0.0" type="line"/>
      <point x="257.6666666666667" y="1390.3636363636363" type="line"/>
      <point x="224.3181818181818" y="1390.3636363636363" type="line"/>
      <point x="1078.3939393939395" y="0.0" type="line"/>
      <point x="1174.2575757575758" y="0.0" type="line"/>
      <point x="1174.2575757575758" y="1480.0" type="line"/>
      <point x="1088.8333333333333" y="1480.0" type="line"/>
      <point x="1088.8333333333333" y="89.63636363636364" type="line"/>
      <point x="1122.1818181818182" y="89.63636363636364" type="line"/>
      <point x="268.1060606060606" y="1480.0" type="line"/>
      <point x="172.24242424242425" y="1480.0" type="line"/>
    </contour>
    <contour>
      <point x="811.969696969697" y="1689.8030303030303" type="curve" smooth="yes"/>
      <point x="877.439393939394" y="1689.8030303030303"/>
      <point x="926.8181818181818" y="1712.7424242424242"/>
      <point x="960.8030303030303" y="1752.1515151515152" type="curve"/>
      <point x="960.8030303030303" y="1828.7727272727273" type="line"/>
      <point x="918.7878787878788" y="1780.7424242424242"/>
      <point x="874.8787878787879" y="1757.1818181818182"/>
      <point x="812.3333333333334" y="1757.1818181818182" type="curve" smooth="yes"/>
      <point x="723.2424242424242" y="1757.1818181818182"/>
      <point x="643.2727272727273" y="1834.3636363636363"/>
      <point x="535.0" y="1834.3636363636363" type="curve" smooth="yes"/>
      <point x="469.530303030303" y="1834.3636363636363"/>
      <point x="420.1515151515151" y="1811.3030303030303"/>
      <point x="386.1666666666667" y="1771.8939393939395" type="curve"/>
      <point x="386.1666666666667" y="1695.2727272727273" type="line"/>
      <point x="428.1818181818182" y="1743.3030303030303"/>
      <point x="472.0909090909091" y="1766.8636363636363"/>
      <point x="534.6363636363636" y="1766.8636363636363" type="curve" smooth="yes"/>
      <point x="623.7272727272727" y="1766.8636363636363"/>
      <point x="703.6969696969697" y="1689.8030303030303"/>
    </contour>
  </outline>
</glyph>
<glyph name="Oacute" format="2">
  <advance width="1281.3939393939395"/>
  <unicode hex="00D3"/>
  <anchor x="640.6969696969697" y="1520.0" name="_top"/>
  <anchor x="640.6969696969697" y="0.0" name="bottom"/>
  <anchor x="640.6969696969697" y="740.0" name="center"/>
  <anchor x="792.7272727272727" y="0.0" name="ogonek"/>
  <anchor x="640.6969696969697" y="1520.0" name="top"/>
  <anchor x="41.333333333333336" y="1480.0" name="topleft"/>
  <anchor x="792.9848484848485" y="1480.0" name="topright"/>
  <outline>
    <contour>
      <point x="640.6969696969697" y="-18.12121212121212" type="curve" smooth="yes"/>
      <point x="962.9090909090909" y="-18.12121212121212"/>
      <point x="1176.2121212121212" y="190.5"/>
      <point x="1176.2121212121212" y="740.0" type="curve" smooth="yes"/>
      <point x="1176.2121212121212" y="1289.5"/>
      <point x="964.3484848484849" y="1498.121212121212"/>
      <point x="640.6969696969697" y="1498.121212121212" type="curve" smooth="yes"/>
      <point x="318.45454545454544" y="1498.121212121212"/>
      <point x="105.18181818181819" y="1289.560606060606"/>
      <point x="105.18181818181819" y="740.0" type="curve" smooth="yes"/>
      <point x="105.18181818181819" y="190.43939393939394"/>
      <point x="317.07575757575756" y="-18.12121212121212"/>
    </contour>
    <contour>
      <point x="640.6969696969697" y="64.65151515151516" type="curve" smooth="yes"/>
      <point x="375.3939393939394" y="64.65151515151516"/>
      <point x="198.5151515151515" y="228.06060606060606"/>
      <point x="198.5151515151515" y="744.2424242424242" type="curve" smooth="yes"/>
      <point x="198.5151515151515" y="1251.939393939394"/>
      <point x="375.4848484848485" y="1415.3484848484848"/>
      <point x="640.6969696969697" y="1415.3484848484848" type="curve" smooth="yes"/>
      <point x="905.9090909090909" y="1415.3484848484848"/>
      <point x="1082.878787878788" y="1251.8484848484848"/>
      <point x="1082.878787878788" y="735.7575757575758" type="curve" smooth="yes"/>
      <point x="1082.878787878788" y="228.15151515151516"/>
      <point x="906.0" y="64.65151515151516"/>
    </contour>
    <contour>
      <point x="601.4545454545455" y="1614.1818181818182" type="line"/>
      <point x="679.8181818181818" y="1614.1818181818182" type="line"/>
      <point x="850.7272727272727" y="1888.8484848484848" type="line"/>
      <point x="754.2272727272727" y="1888.8484848484848" type="line"/>
    </contour>
  </outline>
</glyph>
<glyph name="Otilde" format="2">
  <advance width="1281.3939393939395"/>
  <unicode hex="00D5"/>
  <anchor x="640.6969696969697" y="1520.0" name="_top"/>
  <anchor x="640.6969696969697" y="0.0" name="bottom"/>
  <anchor x="640.6969696969697" y="740.0" name="center"/>
  <anchor x="792.7272727272727" y="0.0" name="ogonek"/>
  <anchor x="640.6969696969697" y="1520.0" name="top"/>
  <anchor x="41.333333333333336" y="1480.0" name="topleft"/>
  <anchor x="792.9848484848485" y="1480.0" name="topright"/>
  <outline>
    <contour>
      <point x="640.6969696969697" y="-18.12121212121212" type="curve" smooth="yes"/>
      <point x="962.9090909090909" y="-18.12121212121212"/>
      <point x="1176.2121212121212" y="190.5"/>
      <point x="1176.2121212121212" y="740.0" type="curve" smooth="yes"/>
      <point x="1176.2121212121212" y="1289.5"/>
      <point x="964.3484848484849" y="1498.121212121212"/>
      <point x="640.6969696969697" y="1498.121212121212" type="curve" smooth="yes"/>
      <point x="318.45454545454544" y="1498.121212121212"/>
      <point x="105.18181818181819" y="1289.560606060606"/>
      <point x="105.18181818181819" y="740.0" type="curve" smooth="yes"/>
      <point x="105.18181818181819" y="190.43939393939394"/>
      <point x="317.07575757575756" y="-18.12121212121212"/>
    </contour>
    <contour>
      <point x="640.6969696969697" y="64.65151515151516" type="curve" smooth="yes"/>
      <point x="375.3939393939394" y="64.65151515151516"/>
      <point x="198.5151515151515" y="228.06060606060606"/>
      <point x="198.5151515151515" y="744.2424242424242" type="curve" smooth="yes"/>
      <point x="198.5151515151515" y="1251.939393939394"/>
      <point x="375.4848484848485" y="1415.3484848484848"/>
      <point x="640.6969696969697" y="1415.3484848484848" type="curve" smooth="yes"/>
      <point x="905.9090909090909" y="1415.3484848484848"/>
      <point x="1082.878787878788" y="1251.8484848484848"/>
      <point x="1082.878787878788" y="735.7575757575758" type="curve" smooth="yes"/>
      <point x="1082.878787878788" y="228.15151515151516"/>
      <point x="906.0" y="64.65151515151516"/>
    </contour>
    <contour>
      <point x="779.1818181818182" y="1689.8030303030303" type="curve" smooth="yes"/>
      <point x="844.6515151515151" y="1689.8030303030303"/>
      <point x="894.030303030303" y="1712.7424242424242"/>
      <point x="928.0151515151515" y="1752.1515151515152" type="curve"/>
      <point x="928.0151515151515" y="1828.7727272727273" type="line"/>
      <point x="886.0" y="1780.7424242424242"/>
      <point x="842.0909090909091" y="1757.1818181818182"/>
      <point x="779.5454545454545" y="1757.1818181818182" type="curve" smooth="yes"/>
      <point x="690.4545454545455" y="1757.1818181818182"/>
      <point x="610.4848484848485" y="1834.3636363636363"/>
      <point x="502.2121212121212" y="1834.3636363636363" type="curve" smooth="yes"/>
      <point x="436.74242424242425" y="1834.3636363636363"/>
      <point x="387.3636363636364" y="1811.3030303030303"/>
      <point x="353.3787878787879" y="1771.8939393939395" type="curve"/>
      <point x="353.3787878787879" y="1695.2727272727273" type="line"/>
      <point x="395.3939393939394" y="1743.3030303030303"/>
      <point x="439.3030303030303" y="1766.8636363636363"/>
      <point x="501.8484848484849" y="1766.8636363636363" type="curve" smooth="yes"/>
      <point x="590.939393939394" y="1766.8636363636363"/>
      <point x="670.9090909090909" y="1689.8030303030303"/>
    </contour>
  </outline>
</glyph>
<glyph name="Odieresis" format="2">
  <advance width="1281.3939393939395"/>
  <unicode hex="00D6"/>
  <anchor x="640.6969696969697" y="1520.0" name="_top"/>
  <anchor x="640.6969696969697" y="0.0" name="bottom"/>
  <anchor x="640.6969696969697" y="740.0" name="center"/>
  <anchor x="792.7272727272727" y="0.0" name="ogonek"/>
  <anchor x="640.6969696969697" y="1520.0" name="top"/>
  <anchor x="41.333333333333336" y="1480.0" name="topleft"/>
  <anchor x="792.9848484848485" y="1480.0" name="topright"/>
  <outline>
    <contour>
      <point x="640.6969696969697" y="-18.12121212121212" type="curve" smooth="yes"/>
      <point x="962.9090909090909" y="-18.12121212121212"/>
      <point x="1176.2121212121212" y="190.5"/>
      <point x="1176.2121212121212" y="740.0" type="curve" smooth="yes"/>
      <point x="1176.2121212121212" y="1289.5"/>
      <point x="964.3484848484849" y="1498.121212121212"/>
      <point x="640.6969696969697" y="1498.121212121212" type="curve" smooth="yes"/>
      <point x="318.45454545454544" y="1498.121212121212"/>
      <point x="105.18181818181819" y="1289.560606060606"/>
      <point x="105.18181818181819" y="740.0" type="curve" smooth="yes"/>
      <point x="105.18181818181819" y="190.43939393939394"/>
      <point x="317.07575757575756" y="-18.12121212121212"/>
    </contour>
    <contour>
      <point x="640.6969696969697" y="64.65151515151516" type="curve" smooth="yes"/>
      <point x="375.3939393939394" y="64.65151515151516"/>
      <point x="198.5151515151515" y="228.06060606060606"/>
      <point x="198.5151515151515" y="744.2424242424242" type="curve" smooth="yes"/>
      <point x="198.5151515151515" y="1251.939393939394"/>
      <point x="375.4848484848485" y="1415.3484848484848"/>
      <point x="640.6969696969697" y="1415.3484848484848" type="curve" smooth="yes"/>
      <point x="905.9090909090909" y="1415.3484848484848"/>
      <point x="1082.878787878788" y="1251.8484848484848"/>
      <point x="1082.878787878788" y="735.7575757575758" type="curve" smooth="yes"/>
      <point x="1082.878787878788" y="228.15151515151516"/>
      <point x="906.0" y="64.65151515151516"/>
    </contour>
    <contour>
      <point x="844.4242424242425" y="1682.7272727272727" type="curve" smooth="yes"/>
      <point x="886.6666666666666" y="1682.7272727272727"/>
      <point x="915.5757575757576" y="1709.2121212121212"/>
      <point x="915.5757575757576" y="1751.878787878788" type="curve" smooth="yes"/>
      <point x="915.5757575757576" y="1794.5454545454545"/>
      <point x="886.6666666666666" y="1822.909090909091"/>
      <point x="844.4242424242425" y="1822.909090909091" type="curve" smooth="yes"/>
      <point x="802.1818181818182" y="1822.909090909091"/>
      <point x="773.2727272727273" y="1794.5454545454545"/>
      <point x="773.2727272727273" y="1751.878787878788" type="curve" smooth="yes"/>
      <point x="773.2727272727273" y="1709.2121212121212"/>
      <point x="802.1818181818182" y="1682.7272727272727"/>
    </contour>
    <contour>
      <point x="436.969696969697" y="1682.7272727272727" type="curve" smooth="yes"/>
      <point x="479.21212121212125" y="1682.7272727272727"/>
      <point x="508.1212121212121" y="1709.2121212121212"/>
      <point x="508.1212121212121" y="1751.878787878788" type="curve" smooth="yes"/>
      <point x="508.1212121212121" y="1794.5454545454545"/>
      <point x="479.21212121212125" y="1822.909090909091"/>
      <point x="436.969696969697" y="1822.909090909091" type="curve" smooth="yes"/>
      <point x="394.72727272727275" y="1822.909090909091"/>
      <point x="365.8181818181818" y="1794.5454545454545"/>
      <point x="365.8181818181818" y="1751.878787878788" type="curve" smooth="yes"/>
      <point x="365.8181818181818" y="1709.2121212121212"/>
      <point x="394.72727272727275" y="1682.7272727272727"/>
    </contour>
  </outline>
</glyph>
<glyph name="multiply" format="2">
  <advance width="966.6060606060606"/>
  <unicode hex="00D7"/>
  <outline>
    <contour>
      <point x="179.54545454545453" y="401.6363636363636" type="line"/>
      <point x="483.3030303030303" y="705.3939393939394" type="line"/>
      <point x="787.060606060606" y="401.6363636363636" type="line"/>
      <point x="841.6666666666666" y="456.24242424242425" type="line"/>
      <point x="537.9090909090909" y="760.0" type="line"/>
      <point x="841.6666666666666" y="1063.7575757575758" type="line"/>
      <point x="787.060606060606" y="1118.3636363636363" type="line"/>
      <point x="483.3030303030303" y="814.6060606060606" type="line"/>
      <point x="179.54545454545453" y="1118.3636363636363" type="line"/>
      <point x="124.93939393939394" y="1063.7575757575758" type="line"/>
      <point x="428.6969696969697" y="760.0" type="line"/>
      <point x="124.93939393939394" y="456.24242424242425" type="line"/>
    </contour>
  </outline>
</glyph>
<glyph name="Ugrave" format="2">
  <advance width="1294.5454545454545"/>
  <unicode hex="00D9"/>
  <anchor x="648.5" y="1520.0" name="_top"/>
  <anchor x="648.5" y="0.0" name="bottom"/>
  <anchor x="782.6969696969697" y="0.9393939393939394" name="ogonek"/>
  <anchor x="648.5" y="1520.0" name="top"/>
  <anchor x="1046.7272727272727" y="1480.0" name="topright"/>
  <outline>
    <contour>
      <point x="648.5" y="-18.12121212121212" type="curve" smooth="yes"/>
      <point x="983.8181818181819" y="-18.12121212121212"/>
      <point x="1130.1818181818182" y="149.93939393939394"/>
      <point x="1130.1818181818182" y="517.530303030303" type="curve" smooth="yes"/>
      <point x="1130.1818181818182" y="1480.0" type="line"/>
      <point x="1043.6363636363637" y="1480.0" type="line"/>
      <point x="1043.6363636363637" y="505.56060606060606" type="line" smooth="yes"/>
      <point x="1043.6363636363637" y="204.0"/>
      <point x="927.060606060606" y="64.48484848484848"/>
      <point x="648.5" y="64.48484848484848" type="curve" smooth="yes"/>
      <point x="369.93939393939394" y="64.48484848484848"/>
      <point x="253.27272727272728" y="204.0"/>
      <point x="253.27272727272728" y="505.56060606060606" type="curve" smooth="yes"/>
      <point x="253.27272727272728" y="1480.0" type="line"/>
      <point x="164.36363636363637" y="1480.0" type="line"/>
      <point x="164.36363636363637" y="517.530303030303" type="line" smooth="yes"/>
      <point x="164.36363636363637" y="149.93939393939394"/>
      <point x="312.8484848484849" y="-18.12121212121212"/>
    </contour>
    <contour>
      <point x="609.3181818181819" y="1614.1818181818182" type="line"/>
      <point x="687.6818181818181" y="1614.1818181818182" type="line"/>
      <point x="534.9090909090909" y="1888.8484848484848" type="line"/>
      <point x="438.40909090909093" y="1888.8484848484848" type="line"/>
    </contour>
  </outline>
</glyph>
<glyph name="Udieresis" format="2">
  <advance width="1294.5454545454545"/>
  <unicode hex="00DC"/>
  <anchor x="648.5" y="1520.0" name="_top"/>
  <anchor x="648.5" y="0.0" name="bottom"/>
  <anchor x="782.6969696969697" y="0.9393939393939394" name="ogonek"/>
  <anchor x="648.5" y="1520.0" name="top"/>
  <anchor x="1046.7272727272727" y="1480.0" name="topright"/>
  <outline>
    <contour>
      <point x="648.5" y="-18.12121212121212" type="curve" smooth="yes"/>
      <point x="983.8181818181819" y="-18.12121212121212"/>
      <point x="1130.1818181818182" y="149.93939393939394"/>
      <point x="1130.1818181818182" y="517.530303030303" type="curve" smooth="yes"/>
      <point x="1130.1818181818182" y="1480.0" type="line"/>
      <point x="1043.6363636363637" y="1480.0" type="line"/>
      <point x="1043.6363636363637" y="505.56060606060606" type="line" smooth="yes"/>
      <point x="1043.6363636363637" y="204.0"/>
      <point x="927.060606060606" y="64.48484848484848"/>
      <point x="648.5" y="64.48484848484848" type="curve" smooth="yes"/>
      <point x="369.93939393939394" y="64.48484848484848"/>
      <point x="253.27272727272728" y="204.0"/>
      <point x="253.27272727272728" y="505.56060606060606" type="curve" smooth="yes"/>
      <point x="253.27272727272728" y="1480.0" type="line"/>
      <point x="164.36363636363637" y="1480.0" type="line"/>
      <point x="164.36363636363637" y="517.530303030303" type="line" smooth="yes"/>
      <point x="164.36363636363637" y="149.93939393939394"/>
      <point x="312.8484848484849" y="-18.12121212121212"/>
    </contour>
    <contour>
      <point x="852.2272727272727" y="1682.7272727272727" type="curve" smooth="yes"/>
      <point x="894.469696969697" y="1682.7272727272727"/>
      <point x="923.3787878787879" y="1709.2121212121212"/>
      <point x="923.3787878787879" y="1751.878787878788" type="curve" smooth="yes"/>
      <point x="923.3787878787879" y="1794.5454545454545"/>
      <point x="894.469696969697" y="1822.909090909091"/>
      <point x="852.2272727272727" y="1822.909090909091" type="curve" smooth="yes"/>
      <point x="809.9848484848485" y="1822.909090909091"/>
      <point x="781.0757575757576" y="1794.5454545454545"/>
      <point x="781.0757575757576" y="1751.878787878788" type="curve" smooth="yes"/>
      <point x="781.0757575757576" y="1709.2121212121212"/>
      <point x="809.9848484848485" y="1682.7272727272727"/>
    </contour>
    <contour>
      <point x="444.77272727272725" y="1682.7272727272727" type="curve" smooth="yes"/>
      <point x="487.0151515151515" y="1682.7272727272727"/>
      <point x="515.9242424242424" y="1709.2121212121212"/>
      <point x="515.9242424242424" y="1751.878787878788" type="curve" smooth="yes"/>
      <point x="515.9242424242424" y="1794.5454545454545"/>
      <point x="487.0151515151515" y="1822.909090909091"/>
      <point x="444.77272727272725" y="1822.909090909091" type="curve" smooth="yes"/>
      <point x="402.530303030303" y="1822.909090909091"/>
      <point x="373.6212121212121" y="1794.5454545454545"/>
      <point x="373.6212121212121" y="1751.878787878788" type="curve" smooth="yes"/>
      <point x="373.6212121212121" y="1709.2121212121212"/>
      <point x="402.530303030303" y="1682.7272727272727"/>
    </contour>
  </outline>
</glyph>
<glyph name="Thorn" format="2">
  <advance width="1139.6969696969697"/>
  <unicode hex="00DE"/>
  <outline>
    <contour>
      <point x="172.24242424242425" y="0.0" type="line"/>
      <point x="261.1515151515151" y="0.0" type="line"/>
      <point x="261.1515151515151" y="277.1060606060606" type="line"/>
      <point x="327.6212121212121" y="270.530303030303"/>
      <point x="386.74242424242425" y="268.06060606060606"/>
      <point x="455.42424242424244" y="268.06060606060606" type="curve" smooth="yes"/>
      <point x="857.4242424242425" y="268.06060606060606"/>
      <point x="1036.7121212121212" y="439.5"/>
      <point x="1036.7121212121212" y="759.530303030303" type="curve" smooth="yes"/>
      <point x="1036.7121212121212" y="1098.469696969697"/>
      <point x="851.6666666666666" y="1252.030303030303"/>
      <point x="494.969696969697" y="1252.030303030303" type="curve" smooth="yes"/>
      <point x="402.75757575757575" y="1252.030303030303"/>
      <point x="319.54545454545456" y="1243.4545454545455"/>
      <point x="261.1515151515151" y="1234.060606060606" type="curve"/>
      <point x="261.1515151515151" y="1480.469696969697" type="line"/>
      <point x="172.24242424242425" y="1480.469696969697" type="line"/>
    </contour>
    <contour>
      <point x="459.6515151515151" y="349.27272727272725" type="curve" smooth="yes"/>
      <point x="389.0" y="349.27272727272725"/>
      <point x="325.6818181818182" y="352.2121212121212"/>
      <point x="261.1515151515151" y="360.90909090909093" type="curve"/>
      <point x="261.1515151515151" y="1152.4848484848485" type="line"/>
      <point x="334.77272727272725" y="1164.121212121212"/>
      <point x="410.969696969697" y="1170.8181818181818"/>
      <point x="497.06060606060606" y="1170.8181818181818" type="curve" smooth="yes"/>
      <point x="799.9090909090909" y="1170.8181818181818"/>
      <point x="944.8636363636364" y="1046.2727272727273"/>
      <point x="944.8636363636364" y="756.060606060606" type="curve" smooth="yes"/>
      <point x="944.8636363636364" y="481.6666666666667"/>
      <point x="797.0909090909091" y="349.27272727272725"/>
    </contour>
  </outline>
</glyph>
<glyph name="germandbls" format="2">
  <advance width="1229.2727272727273"/>
  <unicode hex="00DF"/>
  <outline>
    <contour>
      <point x="791.3636363636364" y="-18.242424242424242" type="curve" smooth="yes"/>
      <point x="1030.1818181818182" y="-18.242424242424242"/>
      <point x="1160.0" y="95.57575757575758"/>
      <point x="1160.0" y="283.3939393939394" type="curve" smooth="yes"/>
      <point x="1160.0" y="429.90909090909093"/>
      <point x="1096.3939393939395" y="523.9848484848485"/>
      <point x="899.3484848484849" y="573.5757575757576" type="curve" smooth="yes"/>
      <point x="784.6969696969697" y="601.1212121212121" type="line" smooth="yes"/>
      <point x="657.5454545454545" y="633.0454545454545"/>
      <point x="605.439393939394" y="697.530303030303"/>
      <point x="605.439393939394" y="804.5757575757576" type="curve" smooth="yes"/>
      <point x="605.439393939394" y="923.4090909090909"/>
      <point x="688.9545454545455" y="1017.0"/>
      <point x="889.7424242424242" y="1017.0" type="curve" smooth="yes"/>
      <point x="951.9242424242424" y="1017.0"/>
      <point x="987.4545454545455" y="1010.7727272727273"/>
      <point x="1027.6363636363637" y="1001.9848484848485" type="curve"/>
      <point x="1038.4848484848485" y="1045.9545454545455"/>
      <point x="1051.7272727272727" y="1129.030303030303"/>
      <point x="1051.7272727272727" y="1202.1969696969697" type="curve" smooth="yes"/>
      <point x="1051.7272727272727" y="1512.2878787878788"/>
      <point x="878.6969696969697" y="1636.0"/>
      <point x="648.3030303030303" y="1636.0" type="curve" smooth="yes"/>
      <point x="381.74242424242425" y="1636.0"/>
      <point x="218.28787878787878" y="1484.7121212121212"/>
      <point x="218.28787878787878" y="1152.909090909091" type="curve" smooth="yes"/>
      <point x="218.28787878787878" y="0.0" type="line"/>
      <point x="306.74242424242425" y="0.0" type="line"/>
      <point x="306.74242424242425" y="1147.4242424242425" type="line" smooth="yes"/>
      <point x="306.74242424242425" y="1448.2878787878788"/>
      <point x="437.57575757575756" y="1556.969696969697"/>
      <point x="651.060606060606" y="1556.969696969697" type="curve" smooth="yes"/>
      <point x="833.3484848484849" y="1556.969696969697"/>
      <point x="974.3333333333334" y="1468.8333333333333"/>
      <point x="973.8636363636364" y="1201.060606060606" type="curve" smooth="yes"/>
      <point x="973.8636363636364" y="1150.3181818181818"/>
      <point x="967.5909090909091" y="1099.0"/>
      <point x="958.1060606060606" y="1052.378787878788" type="curve"/>
      <point x="1003.0" y="1084.969696969697" type="line"/>
      <point x="963.0909090909091" y="1092.2575757575758"/>
      <point x="919.4545454545455" y="1094.7272727272727"/>
      <point x="886.6212121212121" y="1094.7272727272727" type="curve" smooth="yes"/>
      <point x="641.8484848484849" y="1094.7272727272727"/>
      <point x="516.7878787878788" y="969.7121212121212"/>
      <point x="516.7878787878788" y="800.1363636363636" type="curve" smooth="yes"/>
      <point x="516.7878787878788" y="657.1969696969697"/>
      <point x="584.1969696969697" y="562.1515151515151"/>
      <point x="770.9848484848485" y="515.8484848484849" type="curve" smooth="yes"/>
      <point x="885.6363636363636" y="488.3030303030303" type="line" smooth="yes"/>
      <point x="1012.7878787878788" y="456.3787878787879"/>
      <point x="1071.3484848484848" y="400.25757575757575"/>
      <point x="1071.3484848484848" y="278.030303030303" type="curve" smooth="yes"/>
      <point x="1071.3484848484848" y="139.66666666666666"/>
      <point x="977.969696969697" y="62.09090909090909"/>
      <point x="789.6515151515151" y="62.09090909090909" type="curve" smooth="yes"/>
      <point x="708.5454545454545" y="62.09090909090909"/>
      <point x="631.5757575757576" y="72.48484848484848"/>
      <point x="534.939393939394" y="102.12121212121212" type="curve"/>
      <point x="534.939393939394" y="19.87878787878788" type="line"/>
      <point x="614.4848484848485" y="-6.181818181818182"/>
      <point x="698.3181818181819" y="-18.242424242424242"/>
    </contour>
    <contour>
      <point x="11.924242424242424" y="999.939393939394" type="line"/>
      <point x="273.06060606060606" y="999.939393939394" type="line"/>
      <point x="273.06060606060606" y="1081.2121212121212" type="line"/>
      <point x="11.924242424242424" y="1081.2121212121212" type="line"/>
    </contour>
  </outline>
</glyph>
<glyph name="acircumflex" format="2">
  <advance width="926.1969696969697"/>
  <unicode hex="00E2"/>
  <anchor x="458.0151515151515" y="1200.0" name="_top"/>
  <anchor x="466.469696969697" y="0.0" name="bottom"/>
  <anchor x="784.9848484848485" y="0.0" name="ogonek"/>
  <anchor x="458.0151515151515" y="1200.0" name="top"/>
  <outline>
    <contour>
      <point x="393.1515151515151" y="-16.363636363636363" type="curve" smooth="yes"/>
      <point x="515.2121212121212" y="-16.363636363636363"/>
      <point x="623.6818181818181" y="32.72727272727273"/>
      <point x="692.7121212121212" y="123.87878787878788" type="curve"/>
      <point x="701.2575757575758" y="123.87878787878788" type="line"/>
      <point x="708.6212121212121" y="0.0" type="line"/>
      <point x="784.9848484848485" y="0.0" type="line"/>
      <point x="784.9848484848485" y="742.6060606060606" type="line" smooth="yes"/>
      <point x="784.9848484848485" y="1010.8484848484849"/>
      <point x="657.2878787878788" y="1097.3333333333333"/>
      <point x="427.4090909090909" y="1097.3333333333333" type="curve" smooth="yes"/>
      <point x="338.42424242424244" y="1097.3333333333333"/>
      <point x="229.13636363636363" y="1080.9545454545455"/>
      <point x="149.72727272727272" y="1051.1363636363637" type="curve"/>
      <point x="149.72727272727272" y="968.560606060606" type="line"/>
      <point x="246.3030303030303" y="1002.5151515151515"/>
      <point x="345.2878787878788" y="1016.4545454545455"/>
      <point x="421.6515151515151" y="1016.4545454545455" type="curve" smooth="yes"/>
      <point x="599.5909090909091" y="1016.4545454545455"/>
      <point x="697.2272727272727" y="959.4242424242424"/>
      <point x="697.2272727272727" y="744.969696969697" type="curve" smooth="yes"/>
      <point x="697.2272727272727" y="225.06060606060606" type="line"/>
      <point x="616.0909090909091" y="104.60606060606061"/>
      <point x="506.06060606060606" y="62.90909090909091"/>
      <point x="406.1363636363636" y="62.90909090909091" type="curve" smooth="yes"/>
      <point x="261.77272727272725" y="62.90909090909091"/>
      <point x="184.93939393939394" y="133.8030303030303"/>
      <point x="184.93939393939394" y="278.1363636363636" type="curve" smooth="yes"/>
      <point x="184.93939393939394" y="411.90909090909093"/>
      <point x="262.3636363636364" y="485.9848484848485"/>
      <point x="443.3787878787879" y="505.5151515151515" type="curve" smooth="yes"/>
      <point x="744.469696969697" y="539.4090909090909" type="line"/>
      <point x="735.3333333333334" y="614.6515151515151" type="line"/>
      <point x="442.3787878787879" y="580.7575757575758" type="line" smooth="yes"/>
      <point x="200.56060606060606" y="554.6818181818181"/>
      <point x="91.48484848484848" y="453.1060606060606"/>
      <point x="91.48484848484848" y="268.9848484848485" type="curve" smooth="yes"/>
      <point x="91.48484848484848" y="85.6969696969697"/>
      <point x="210.77272727272728" y="-16.363636363636363"/>
    </contour>
    <contour>
      <point x="214.13636363636363" y="1261.3333333333333" type="line"/>
      <point x="294.24242424242425" y="1261.3333333333333" type="line"/>
      <point x="469.3939393939394" y="1583.9848484848485" type="line"/>
      <point x="446.6363636363636" y="1583.9848484848485" type="line"/>
      <point x="621.7878787878788" y="1261.3333333333333" type="line"/>
      <point x="701.8939393939394" y="1261.3333333333333" type="line"/>
      <point x="503.77272727272725" y="1616.0" type="line"/>
      <point x="412.25757575757575" y="1616.0" type="line"/>
    </contour>
  </outline>
</glyph>
